<?xml version="1.0" encoding="utf-8"?>
<!-- Generator: Adobe Illustrator 28.6.0, SVG Export Plug-In . SVG Version: 9.03 Build 54939)  -->
<svg version="1.1" baseProfile="tiny" id="Réteg_1"
	 xmlns="http://www.w3.org/2000/svg" xmlns:xlink="http://www.w3.org/1999/xlink" x="0px" y="0px" viewBox="0 0 1792.2 776.5"
	 overflow="visible" xml:space="preserve">
<g id="Réteg_2_00000023271007513853938400000012358209313846158523_">
	<path fill="#AA4805" d="M1789.3,553c-2.1-8.2-7.8-19.3-8.9-21.5c0.2-7.6,2.6-93.5-5.2-125.7c-7.3-30.1-17.7-44.2-19.9-47
		c0.3-6.7,2.5-65.4,0.9-86.6c-1.7-22.8-6.3-30-11.2-37.7l-0.1-0.2c-2.5-3.9-21.5-26.8-51.9-57.8c-26.3-26.9-67.6-66.5-115.1-102.3
		l5.1-21.8c0.6-2.4-0.4-4.9-2.4-6.3l-7.9-5.4c-0.8-0.6-1.7-0.9-2.7-1c-8.5-1-52-6-74.3-7.9c-2.8-2.6-18.6-16-47.3-21.2
		c-26-4.7-169.4-7.4-255.1-9.1c-17-0.3-31.6-0.6-42.3-0.8c-14-0.3-34.4-0.5-59.1-0.5C1015,0,889.1,1.7,862.6,5.4
		c-32.8,4.6-61.3,17.1-87.1,30c-4.6,0.6-65.9,9.5-100.6,30.9h-0.1h-0.1c-1.4,1-141.3,104.2-240.7,199.5l-0.2-0.3h-1l-33.1-1
		l-4.4-7.7c-1.1-1.9-3.1-3.1-5.3-3.1c-0.2,0-0.4,0-0.6,0c-15.6,1.5-96.4,9.4-152.5,17c-61.6,8.4-102.1,18.6-127.3,32.3
		c-19.8,10.8-40,29.5-47.7,37c-1.9,1.9-3.5,4.1-4.7,6.5l-17.1,35.7l-2.1,0.1c-2.1,0.1-4,1-5.5,2.5l-14.1,14.6
		c-1.9,2-3.3,4.5-4.1,7.1c-2.4,8.2-8,31.3-8,68.9v60.2c-1.4,1.9-6.7,9.5-6.7,16v8.7c0,1.7,0.6,3.4,1.8,4.6l2.3,2.5
		c0.5,4.6,3.8,38,3.8,48.5c0,7.7-1.2,12.4-1.9,14.6c-0.6,1.7-0.4,3.6,0.4,5.1c2.2,4.1,8.4,11.9,24.4,18.3c17,6.8,25.9,9.3,29,10v4
		c0,5.8,5.2,11.7,16.8,11.7h49.2h1.7l-0.1-1.7c-4.1-95.9,10.5-159.9,44.7-195.7c33.5-34.9,82.2-39.7,129.9-39.7
		c25.1,0,47.5,0.3,67.6,4.1c21.9,4.1,38.5,12,52.5,24.8c15.7,14.4,28.2,35.6,37.9,64.6c10.5,31.2,18.1,71.7,23.2,124l0.1,1.5h1.5
		l885.2-8.5h1.5l0.1-1.5c3.9-49.1,10.7-87.8,21.1-118.2c9.6-28.4,22.2-49.4,38.5-64.4c14.5-13.3,32.4-22.2,54.8-27.1
		c22.5-4.9,48.3-5.6,70.6-5.6c52.2,0,86.7,0,113.5,23.4c27.1,23.7,46.4,71.8,66.6,166l0.4,1.9l1.8-0.8c22.3-9.8,48.2-28.3,51.3-35
		C1793.9,584.4,1791.6,562.1,1789.3,553z M986.2,25.2c-36.8,0.8-92.5,2.7-112,3.4c7.4-3.4,12.2-3.9,12.2-3.9
		c0.2,0,24.6-1.5,37.7-2.1c11.6-0.6,53.4-2.3,62.7-2.6L986.2,25.2z M1063.2,23.2h-3.7v-3.5c2.7,0,8.5,0.1,16.1,0.2
		c3.3,0,8.9,0.1,15.5,0.2C1078.6,20.7,1064.7,22.9,1063.2,23.2z M1147,20.6c21.5,0.3,65.4,0.9,91.3,1.3
		c28.6,0.4,106.7,2.5,114.8,2.8l0.8,0.9C1300.7,23.4,1205.7,21.7,1147,20.6z"/>
	<polygon fill="#343434" points="119.9,675.4 489.1,656.5 991.7,648.3 1340.4,647.3 1370.4,647.3 1742.8,616.9 1723.4,366.5 
		1581,264.9 215.9,379.3 91.7,467.4 	"/>
	<path fill="#EE7019" d="M1787.7,553.4c-2.3-8.8-9-21.5-9-21.5s2.9-92.5-5.1-125.7s-20-46.8-20-46.8s2.6-64.5,0.9-87.1
		c-1.6-22.6-6.1-29.4-11.1-37.2c-4.9-7.8-77.1-92.2-167.4-160.4l5.3-22.8c0.4-1.8-0.3-3.6-1.8-4.6l-7.9-5.4c-0.6-0.4-1.3-0.7-2-0.7
		c-7.5-0.9-52.5-6.1-74.8-8c0,0-15.9-15.5-46.9-21.2c-31.1-5.6-233.6-8.5-297.2-9.9c-63.5-1.4-255.2,0.4-288,4.9
		C830,11.6,802.1,24,776,37c0,0-64.2,8.5-100.2,30.7c0,0-141.5,104.1-242.1,200.8l-0.7-1.4l-34-1.1l-4.8-8.5
		c-0.9-1.5-2.6-2.4-4.3-2.2c-16.1,1.6-96.4,9.4-152.4,17c-62.5,8.5-102,18.7-126.7,32.1c-19.8,10.8-40.1,29.7-47.4,36.8
		c-1.8,1.8-3.3,3.8-4.4,6.1l-17.5,36.5l-3,0.2c-1.7,0.1-3.2,0.8-4.4,2L20,400.7c-1.8,1.8-3,4-3.8,6.5c-2.5,8.6-7.9,31.3-7.9,68.5
		c0,48.4,0,60.7,0,60.7s-6.7,8.5-6.7,15.4v8.7c0,1.3,0.5,2.6,1.4,3.5l2.7,2.9c0,0,3.9,37.8,3.9,49.2c0,7.8-1.2,12.8-2,15.1
		c-0.4,1.3-0.3,2.6,0.3,3.8c2,3.7,7.9,11.3,23.6,17.6c21.5,8.6,30,10.2,30,10.2s0,0.7,0,5.3s4.1,10.1,15.2,10.1s49.2,0,49.2,0
		c-9.2-213.5,75.5-237.1,176.2-237.1c100.3,0,161.9,5.2,182.8,218.9l885.2-8.5c15.8-200.8,82.4-216.8,186.6-216.8
		s140.7,0,181.7,190.7c22.1-9.7,47.6-28,50.5-34.2C1792.2,584.3,1790,562.2,1787.7,553.4z M987.6,26.7
		c-45.3,0.9-120.4,3.7-120.4,3.7c11.2-6.6,19-7.3,19-7.3s24.5-1.5,37.7-2.1s64.6-2.7,64.6-2.7L987.6,26.7z M1098.9,21.4
		c-14.1-0.3-35.6,3.4-35.6,3.4h-5.5V18c0,0,7.1,0.1,17.7,0.2s47.8,0.5,63.3,0.7s69.2,0.9,99.5,1.4c30.4,0.5,115.5,2.8,115.5,2.8
		l3.9,4.2C1283.2,24.2,1113,21.7,1098.9,21.4z"/>
	<path d="M103,557.6c26.9-113.1,67-148.1,135.8-150.3c4.7-0.2,9.4,0.9,13.5,3l6.8,3.5c2.8,1.5,6,2.2,9.2,2.1l50.2-1.6
		c3.4-0.1,6.7-1.1,9.6-3l5.4-3.4c3.8-2.5,8.2-3.9,12.8-4.3c80.6-5.5,131.5,27.8,168.5,209.5c1.1,5.6,6.1,9.6,11.9,9.5l815.6-17.7
		c25.1-167.2,76.4-198.8,155.6-204.7c2.6-0.2,5.1,0.4,7.3,1.7l7.1,4.2c2.9,1.7,6.1,2.5,9.5,2.5l48.2-1.2c3.2-0.1,6.3-1,9.1-2.8
		l11.3-7.2c1.9-1.2,4.1-1.9,6.3-1.9c68.2-1.9,95.4-0.6,141.2,97.4c3,6.4,9.5,10.3,16.5,10l24.8-1.2c-0.1,17.6-0.5,30.2-0.5,30.2
		s6.7,12.7,9,21.5s4.5,30.9,1.2,37.9c-2.9,6.2-28.4,24.5-50.5,34.2c-41-190.7-77.5-190.7-181.7-190.7s-170.8,16-186.6,216.8
		l-885.2,8.5C464,446.4,402.4,441.2,302.1,441.2c-100.7,0-185.4,23.5-176.2,237.1c0,0-38.1,0-49.2,0s-15.2-5.5-15.2-10.1
		s0-5.3,0-5.3s-8.5-1.6-30-10.2c-15.7-6.3-21.5-13.9-23.6-17.6c-0.6-1.2-0.8-2.5-0.3-3.8c0.8-2.4,2-7.3,2-15.1
		c0-11.5-3.9-49.2-3.9-49.2L3,564c-0.9-1-1.4-2.2-1.4-3.5v-8.7c0-6.9,6.7-15.4,6.7-15.4s0-12.4,0-60.7c0-37.1,5.4-59.9,7.9-68.5
		c0.4-1.2,0.9-2.4,1.5-3.5c0,0,3.8,0,12.5,0s27.5,3.3,27.5,63s-19.1,83.5-34.6,83.5L36.4,574l48.1-1.3
		C93.3,572.5,100.9,566.3,103,557.6z"/>
	<g>
		<path fill="#AA4805" d="M445.8,428.4c-17.6-20.8-43.4-28.9-69.8-30.6c-26.1-1.8-52.4,0.3-78.5,0.1c-46.5,0.8-114.2,3.7-148.1,38.9
			c33.3-36.3,101.5-39.7,148.1-40.5c26.2,0.3,52.4-1.8,78.6,0.2C403,398.7,428.3,407,445.8,428.4L445.8,428.4z"/>
		<path fill="#AA4805" d="M1698.5,419.7c-19-24.7-52.3-29.1-81.5-30.1c-30-0.6-60.1-0.4-90,0.4c-29.8,1.1-60.2,4-88,15.5
			c-28,11.3-50.2,34.1-61.9,61.8c14.3-35,41.2-58.1,77.4-68.8c38.1-11.2,78.2-10.6,117.5-10.7c22.5,0,45.2-0.5,67.5,2.4
			C1662,393,1684.6,401,1698.5,419.7L1698.5,419.7z"/>
		<path fill="#AA4805" d="M538.7,617.9c20.7-14.1,41.7-27.7,63.7-39.9c7.3-4,14.8-7.9,22.5-11c3.4-1.3,6.9-2.6,10.6-3.1
			c4.7-0.5,9.4-0.6,14.1-0.8c91.3-3.3,184.1-5.8,275.3-8.4c104.3-1.9,208.6-7,313-4.7c12.6,0.9,24.7,6.3,33.7,15.1
			c11.6,12,23.1,24.1,34.6,36.2c-11.6-12-23.2-24-34.9-35.9c-9-8.7-21.1-14-33.5-14.7c-104.3-1.7-208.6,3.5-312.9,5.6
			c-91.2,2.3-184,4.5-275.3,7.6c-4.7,0.2-9.4,0.3-14,0.7c-3.6,0.5-7,1.7-10.4,3c-7.8,3-15.2,6.8-22.6,10.7
			C580.6,590.5,559.4,604,538.7,617.9L538.7,617.9z"/>
		<path fill="#AA4805" d="M521.7,621.7c-1.4-16.3-5-35.8-10.1-63.5c-3.7-20.2-8.3-45.3-13.3-76.2c-9.5-58.6-7.3-114.8-6.2-144.9
			c0.3-7.3,0.5-13,0.5-17.1c0-21.1,5.6-39.1,5.7-39.3l1.5,0.5c-0.1,0.2-5.6,18-5.6,38.8c0,4.1-0.2,9.8-0.5,17.1
			c-1.2,30.1-3.3,86.1,6.1,144.6c5,30.8,9.6,55.9,13.3,76.1c5.1,27.7,8.7,48,10.1,64.3L521.7,621.7z"/>
		<path fill="#AA4805" d="M978.1,72.1l8.2,8.1c-5.1,31.7-17.9,111.4-22.9,142c-2.5,15.9-11.1,30.8-23.6,40.9
			c-7.8,6.2-15.5,12.7-24.3,17.6c-12.3,6.9-25.9,11.4-39.8,13c-74.9,4.9-234.8,12.6-311.2,16.7c-47.6,2.5-143.9,7.4-191.5,9.7
			c47.9-2.8,143.6-8.2,191.5-10.7c77.3-4.5,235.7-12.5,311.1-16.9c15.8-1.8,31.1-7.3,44.5-15.9c6.7-4.3,12.8-9.5,19.1-14.4
			c12.4-10,20.8-24.6,23.4-40.2c5-30.3,18.5-110.6,23.8-141.9C986.3,80.4,978,72.1,978.1,72.1L978.1,72.1z"/>
		<path fill="#AA4805" d="M1054.5,73.7c0,0-8.6,4.4-8.4,4.2c-1.5,34-5.3,120-6.9,152.8c-0.2,4.2-0.7,15-0.9,19.1
			c-0.1,1.8-0.3,4.6-0.2,6.3c0,13.4,11,25,24.3,26c2.7,0.2,8.2-0.1,11.1-0.2c115.4-3.8,291.1-9.2,407.7-12.5c2.1-0.1,4.3,0,6.3-0.4
			c4.1-0.6,7.9-2.8,10.7-5.9c2.7-3.1,4.5-7.1,4.7-11.3c0.1-2.1-0.1-4.2-0.3-6.3l-0.9-12.7c-0.6-7.3-1.1-18.2-1.9-25.4
			c-1.2-8.4-4.5-16.4-9.7-23.1c-9.7-12.7-36.4-47.5-46.6-60.7c10.2,13.2,37.1,47.5,47,60.3c5.3,6.7,8.8,14.8,10,23.3
			c0.9,7.2,1.3,18.1,2,25.4l0.9,12.7c0.1,2.1,0.4,4.2,0.3,6.4c-0.2,4.4-2.1,8.6-4.9,11.8c-2.9,3.2-6.9,5.5-11.2,6.2
			c-2.2,0.4-4.3,0.3-6.4,0.4c-117,3.8-291.8,9.4-407.7,12.7l-6.4,0.2h-1.6c-1.1,0-2.2,0-3.2-0.1c-13.8-1-25.3-13.2-25.2-27.1
			c-0.1-1.8,0.2-4.6,0.2-6.4c0.2-4,0.8-14.9,0.9-19.1c1.5-32.5,6.1-119.2,7.8-152.8C1046,77.8,1054.5,73.7,1054.5,73.7L1054.5,73.7z
			"/>
		<path fill="#AA4805" d="M985.4,612.7c-2.7-45.7-7.7-167.2,4.7-309.2C1002.2,164.8,1015.9,73,1016,72l1.6,0.1
			c-0.1,0.9-13.8,92.9-25.9,231.5c-12.4,141.9-7.4,263.4-4.7,309L985.4,612.7z"/>
		<path fill="#AA4805" d="M1460.9,405.8l-1.9,0.5c3.6-8.5,12.1-44.2,16.7-64.4c2-8.8,3-17.8,3-26.9v-33.8c0-21.3-4.2-36.7-4.2-36.9
			l1.6-0.4c0,0.2,4.2,15.8,4.2,37.3V315c0,9.1-1,18.3-3.1,27.2C1472.7,362.4,1464.6,397.1,1460.9,405.8z"/>
		<path fill="#AA4805" d="M179.7,337.1l-0.1-1.6L343,322.6c14.4-1.1,27.8-6.5,38.9-15.7l40-33.2c2-1.6,4.2-3,6.5-3.9l8-3.5l0.6,1.5
			l-8,3.5c-2.2,0.9-4.3,2.2-6.1,3.7l-40,33.2c-11.3,9.4-25.1,15-39.8,16.1L179.7,337.1z"/>
		<path fill="#AA4805" d="M502.4,281.8c-0.1,0-12.4-0.5-24.7-2.9c-12.3-2.4-20-5.6-20.1-5.6l0.6-1.5c0.1,0,7.7,3.2,19.8,5.5
			c12.1,2.4,24.3,2.9,24.4,2.9L502.4,281.8z"/>
		<path fill="#AA4805" d="M149.4,365c71.1-10.5,142.9-18,214.9-18.4c24-0.1,48.1,0.2,71.8,4.3c23.9,3.9,46.1,14.7,65.3,29.3
			c4.9,3.5,9.3,7.7,13.5,12c12.4,13.1,23.2,27.6,33.6,42.3c27.6,39.3,52.4,80.4,76.2,122c-12-20.7-24.5-41.2-37.3-61.5
			c-19.2-30.3-38.9-60.5-61.6-88.4c-7.6-9.2-15.6-18.3-25.2-25.3c-19.1-14.4-41-25.1-64.7-28.9c-35.4-5.9-71.7-4.5-107.5-3.8
			C268.5,351,208.6,356.9,149.4,365L149.4,365z"/>
		<path fill="#AA4805" d="M1754.7,360.8c-19.1-21.8-44.9-42.4-74.4-46.5c-19.1-1.8-39.5-1.6-58.7-1.7c-90.6,0.6-181.6,4.3-272,9.1
			c-24.7,1.3-49.4,2.8-74,5.1c-25.7,2.9-88.4,7.3-103.3,28.6l-0.4,0.6l-0.4,0.7l-0.7,1.3c-0.2,0.7-0.9,2.1-1.1,2.8
			c-0.7,2.4-1,5-0.8,7.5c0.7,8.1,3.3,16.1,5.7,23.9c5.2,15.6,11.5,30.9,18.1,46c10,22.6,20.9,44.9,33.7,66.1c4.3,7,8.8,14,14.4,20.1
			c-5.6-6.1-10.1-13-14.5-20c-13-21.1-24-43.3-34.2-65.9c-8.3-18.9-16.4-38-21.9-57.9c-1.5-6-3.1-12.3-1.9-18.5
			c0.3-0.9,0.6-2.2,0.9-3l0.6-1.5c0.3-0.5,0.9-1.6,1.2-2.1c10.3-15.2,38.2-20.1,55.3-23.5c32.6-5.7,65.6-8,98.5-10.2
			c90.5-5.6,181.4-8.6,272.1-9.8c13.7-0.1,35.9-0.2,49.5,0.1c11.3,0.2,22.8,0.5,34,1.7C1710,318,1735.8,338.8,1754.7,360.8
			L1754.7,360.8z"/>
		<path fill="#AA4805" d="M1657.8,399.3l-1.5-0.4c10.9-22.8,30.2-83.3,30.4-83.9l23.3-59.2l1.5,0.6l-23.3,59.2
			C1688,316.1,1668.8,376.4,1657.8,399.3z"/>
		<path fill="#AA4805" d="M162.1,434.2c-0.2-0.3-20.6-30.8-27.6-43.2c-7-12.4-11.3-21.1-11.3-21.1l1.5-0.7c0,0.1,4.3,8.7,11.2,21
			c7,12.3,27.3,42.6,27.5,42.9L162.1,434.2z"/>
		<path fill="#AA4805" d="M412.8,270.9c-60.6,5-132.1,10.4-192,16.7c-31.9,3.7-63.9,7.3-95.1,14.7c-6.2,1.6-12.4,3.3-18.3,6
			c5.8-2.8,12-4.7,18.2-6.4c43.7-11,88.7-15.2,133.4-19.7C308.6,277.7,362.9,273.8,412.8,270.9L412.8,270.9z"/>
		<path fill="#AA4805" d="M1542.5,83.7c-0.2-0.2-15.2-17.8-22.6-28.3c-7.5-10.5-13.6-20.6-13.7-20.7l1.4-0.8
			c0.1,0.1,6.2,10.1,13.6,20.6c7.4,10.4,22.4,28,22.5,28.2L1542.5,83.7z"/>
		<path fill="#AA4805" d="M1581.4,49.7c-6.8,3.4-13.4,7.6-19,12.8l-17.1,15.7c6-5.6,18.8-19.3,25.5-23.7c3.2-2.3,6.5-4.3,9.9-6.2
			L1581.4,49.7L1581.4,49.7z"/>
		<path fill="#AA4805" d="M1534.9,78.2c-54.2-2.2-109-5.5-163.1-9.9C1426,70.5,1480.8,73.8,1534.9,78.2L1534.9,78.2z"/>
	</g>
	<path fill="#CAE4ED" d="M675.7,67.7c0,0-141.5,104.1-242.1,200.8h10.2c2.6,0,5.1,0.6,7.4,1.7l6.8,3.2c0,0,134.5-127.6,247.1-205.7
		L675.7,67.7L675.7,67.7z"/>
	<path fill="#C4C4C4" d="M1494.9,33.1c0,0-15.9-15.5-46.9-21.2c-31.1-5.6-233.6-8.5-297.2-9.9c-63.5-1.4-255.2,0.4-288,4.9
		C830,11.6,802.1,24,776,37l-14.3,7.6c0,0,45.9-8.7,103.1-12.5c0,0,10.6-7.7,21.6-9c11.1-1.3,102.4-4.8,102.4-4.8l-1,9.9L1058,27v-9
		c0,0,229.2,2.1,296,5.1l8.9,9.7l138.8,5.3L1494.9,33.1z"/>
	<path d="M1755.1,299.4c0.1-10.8-0.1-20.6-0.5-27.1c-1.6-22.6-6.1-29.4-11.1-37.2c-4.9-7.8-77.1-92.2-167.4-160.4l-34,7.1
		c0,0,94.8,95.1,124.8,127.6s56.1,61.4,68.1,75.1S1755.1,299.4,1755.1,299.4z"/>
	<polygon fill="#CAE4ED" points="539.5,278.3 879.5,261.5 921.1,248.1 942.3,225.9 972.7,67.7 752.8,73.7 730.2,85.4 598.5,193.8 	
		"/>
	<polygon fill="#CAE4ED" points="1060.5,67.7 1054.5,227 1057.5,244.5 1066.2,252.7 1418.8,244.5 1403.6,108.4 1377.1,80.5 
		1345.4,73.3 	"/>
	<path d="M1467.4,187.1c-8.2-12.4-49.9-68.8-72.4-99c-9.1-12.3-23.3-19.8-38.6-20.4c-49.8-2.1-173.4-6.4-339.6-6.4
		c-151.8,0-220.6,2-248.5,3.3c-10.7,0.5-21.1,4.1-29.7,10.5c-25.1,18.5-80.7,60-116.1,90.7c-46.9,40.6-123.7,116.7-123.7,116.7
		s252.5-10.8,311.8-13.8s81.9-3.7,98.8-10.4c16.9-6.7,34.2-20.8,38.1-37.8c3.9-16.9,30.6-148.3,30.6-148.3h77.8l-5.3,165.2
		c0,0,0.7,20.5,21.9,19.8c21.2-0.7,403.9-11.2,403.9-11.2S1478.7,204.2,1467.4,187.1z M934.2,228.7c-5.6,15.5-35.6,27.5-85.4,30.7
		s-260.1,13-260.1,13l26.1-86.8c23.2-20.8,91.8-72.9,122.8-96.3c10.1-7.6,22.3-11.8,34.9-12l196.6-3.7
		C969.1,73.7,939.8,213.2,934.2,228.7z M1323.1,241.1l-248.4,7c-8.7,0.2-15.8-6.9-15.5-15.5l4.8-159.3c99.2,0,262.2,4.9,262.2,4.9
		L1323.1,241.1z M1397.2,239l-61.4,1.8l1.8-162.6l15.4,0.6c12,0.4,23.2,6,30.8,15.3l15.6,18.9L1397.2,239z"/>
	<polygon points="988.7,18.3 990.5,2.4 1057.8,1.6 1057.8,18 1057.8,27 987.6,28.2 	"/>
	<path d="M1353.8,23.1l8.9,9.7c0,0,39.5,1.5,78.2,3s60.6,2.3,60.6,2.3l-6.7-5c0,0-16.7-16-46.9-21.2c-30.3-5.2-110-5.8-110-5.8
		L1353.8,23.1z"/>
	<path d="M545.4,253.7c0,0,0-10.8,0-18.4c0-7.5,9.4-17.6,25.6-25.2c16.2-7.5,40.9-9.4,49.4-7.5s10.4,13.9,10.4,26.4s0,17.9,0,26.6
		c0,8.7-7.8,12.2-13.9,14.8s-27.8-2.1-31.1,0c-1.9,1.2-3.6,3.5-4.7,5.3c-1,1.5-2.7,2.5-4.5,2.5c-6.5,0.1-21.7,0-31.3-1.5
		c-12.5-2-11.3-10-6.6-16.2C543.5,254.5,545.4,253.7,545.4,253.7z"/>
	<path fill="#EE7019" d="M545.4,253.7c0,0,0-10.8,0-18.4c0-7.5,9.4-17.6,25.6-25.2c14-6.5,34.2-8.8,44.9-8.1c0,0,8.5,4.3,8.5,14.7
		s0,34.4,0,34.4h-59.2c-1,0-2,0.5-2.5,1.3l0,0c-0.6,0.8-1.5,1.3-2.5,1.3L545.4,253.7L545.4,253.7z"/>
	<path fill="#D76B1D" d="M628.5,244.1h-53.6c-2.1,0-3.8-1.7-3.8-3.8l0,0c0-2.1,1.7-3.8,3.8-3.8h53.6c0.3,0,0.5,0.2,0.5,0.5v6.6
		C628.9,243.9,628.7,244.1,628.5,244.1z"/>
	<path fill="#C4C4C4" d="M1780.8,536.1c0,0,0.4,21.7-3.5,38.8s-25.3,43.9-25.3,43.9s11.5-6.5,17.7-10.9s18.1-12.7,19.2-16.5
		s1.7-4.8,1.6-10.2s-0.2-13.4-1.3-19.5C1788.2,555.6,1787.8,550.3,1780.8,536.1z"/>
	<path fill="#C4C4C4" d="M8.3,533h3.5c1.1,0,2.2,0.6,2.7,1.6c1.7,3,5.4,9.8,8.6,15.6c4.3,7.7,13.2,23.8,13.2,23.8
		s10.5,11.4,12.6,24.1c2.1,12.7,5.2,33.2,10.4,47.3C64.5,659.5,69,664,69,664s-2.3,0.3-7.6-1.1s-13.4-3.8-21.7-7
		s-24.9-7.7-32.4-22.8H16c0.8,0,1.6-0.3,2.1-0.9c1.6-1.6,4.6-5.1,4.7-8c0.2-4-0.5-21.6-4.2-33.6c-3.8-12-13-23.7-13-23.7L3,564
		c0,0-1.4-0.8-1.4-3.5s0-8.7,0-8.7s0-3.9,2.1-7.9s4.6-7.5,4.6-7.5S8.3,533,8.3,533z"/>
	<path fill="#CAE4ED" d="M1584.1,80.9l-18.3,4.6c0,0,58.7,43.6,139.4,127c3.6,3.7,8,6.5,12.9,8.2l19.2,6.6c0,0-10.4-12.4-18.7-21.3
		s-16.5-17.9-25.7-27.3c-9.2-9.4-33.8-33.5-42.2-41.1c-8.3-7.7-22.3-20.2-30.7-27.4c-8.5-7.2-14.3-12.1-20.3-16.9
		C1593.7,88.5,1584.1,80.9,1584.1,80.9z"/>
	<g>
		<path fill="#991915" d="M1751.3,251.9h-6.7c-0.3,0-0.5,0.3-0.5,0.6l3.4,11.9c0.1,0.2,0.3,0.4,0.5,0.4h3.2l-3.5-11.8
			c-0.1-0.3,0.1-0.6,0.4-0.6L1751.3,251.9z"/>
		<path fill="#E51B2A" d="M1753.8,264.9h-2.6l-3.5-11.8c0,0-0.1-0.5,0.5-0.6s3-0.5,3-0.5s0.8,1.8,1.3,5
			C1753,259.7,1753.7,263.3,1753.8,264.9z"/>
	</g>
	<g>
		<path fill="#991915" d="M1744.7,251.9h-6.7c-0.3,0-0.5,0.3-0.5,0.6l3.4,11.9c0.1,0.2,0.3,0.4,0.5,0.4h3.2l-3.5-11.8
			c-0.1-0.3,0.1-0.6,0.4-0.6L1744.7,251.9z"/>
		<path fill="#E51B2A" d="M1744.7,251.9l4,12.4c0.1,0.3-0.1,0.6-0.4,0.6h-3.6l-3.5-11.8c0,0-0.1-0.5,0.5-0.6
			C1742.3,252.4,1744.7,251.9,1744.7,251.9z"/>
	</g>
	<g>
		<path fill="#E51B2A" d="M1754.5,273.4l-0.9-3c0,0-0.3-0.6,0.4-0.7c0.1,0,0.2,0,0.3,0C1754.3,269.6,1754.5,272.1,1754.5,273.4z"/>
		<path fill="#991915" d="M1754.3,269h-4.2c-0.4,0-0.6,0.3-0.5,0.7l3.8,13.4c0.1,0.3,0.3,0.5,0.6,0.5h3.6l-3.9-13.3
			c-0.1-0.3,0.1-0.6,0.4-0.7h0.3L1754.3,269z"/>
	</g>
	<g>
		<path fill="#991915" d="M1750.2,269h-7.5c-0.4,0-0.6,0.3-0.5,0.7l3.8,13.4c0.1,0.3,0.3,0.5,0.6,0.5h3.6l-3.9-13.3
			c-0.1-0.3,0.1-0.6,0.4-0.7L1750.2,269z"/>
		<path fill="#E51B2A" d="M1750.2,269l4.6,13.9c0.1,0.3-0.1,0.6-0.5,0.6h-4.1l-3.9-13.3c0,0-0.1-0.6,0.6-0.7
			C1747.5,269.5,1750.2,269,1750.2,269z"/>
	</g>
	<g>
		<path d="M61.3,343.4c-0.9,1.2-1.7,2.5-2.4,3.9l-17.5,36.5c0,0,77.2-9.3,98.1-16.9c20.9-7.5,40-26.4,43.3-31.6L61.3,343.4z"/>
		<path fill="#E9F2F4" d="M107.5,363.9H122c0.2,0,0.3-0.1,0.4-0.2l12.5-14.1h-16c-0.2,0-0.3,0.1-0.4,0.2L107.5,363.9z"/>
		<path fill="#E9F2F4" d="M87.5,366h12.8c0.1,0,0.3-0.1,0.4-0.2l10-14.1H96.6c-0.1,0-0.3,0.1-0.4,0.2L87.5,366z"/>
		<path fill="#E9F2F4" d="M74.1,366.5h8.8c0.1,0,0.2,0,0.3-0.1l8.5-12.1h-9.1c-0.1,0-0.2,0.1-0.3,0.2L74.1,366.5z"/>
		<path fill="#E9F2F4" d="M62.7,370.2h6.8c0.1,0,0.2,0,0.3-0.1l9.1-14.2h-7.1c-0.1,0-0.2,0.1-0.3,0.2L62.7,370.2z"/>
		<path fill="#E9F2F4" d="M55.8,370.2h4.9c0.1,0,0.2,0,0.3-0.1l9.1-14.2H65c-0.1,0-0.2,0.1-0.3,0.2L55.8,370.2z"/>
		<path fill="#E9F2F4" d="M50.5,370.2h3.7c0.1,0,0.2,0,0.3-0.1l9.1-14.2h-4c-0.1,0-0.2,0.1-0.3,0.2L50.5,370.2z"/>
	</g>
	<g>
		<path fill="#E9F2F4" d="M42,425.4c-7.6,0-13.8,20.9-13.8,46.8C28.2,498,34.4,519,42,519s13.8-20.9,13.8-46.8
			C55.8,446.4,49.6,425.4,42,425.4z M41.3,511.8c-5.3,0-9.6-17.7-9.6-39.6s4.3-39.6,9.6-39.6s9.6,17.7,9.6,39.6
			C50.9,494.1,46.6,511.8,41.3,511.8z"/>
		<rect x="28.4" y="434.3" transform="matrix(0.7071 -0.7071 0.7071 0.7071 -305.0593 152.6866)" width="6.7" height="20.5"/>
		<rect x="21.5" y="498.8" transform="matrix(0.7071 -0.7071 0.7071 0.7071 -345.7754 169.4965)" width="20.5" height="6.7"/>
		<polygon points="48.7,454.2 56.3,446.7 54.4,439.1 44,449.5 		"/>
		<polygon points="44,497.3 53.4,506.7 54.9,498.8 48.7,492.6 		"/>
		<path fill="#E9F2F4" d="M46,465.7h-8.4c-1.9,0-3.4-1.5-3.4-3.4v-1.6c0-1.9,1.5-3.4,3.4-3.4H46c1.9,0,3.4,1.5,3.4,3.4v1.6
			C49.5,464.2,47.9,465.7,46,465.7z"/>
		<path fill="#CAE4ED" d="M46,480.7h-8.4c-1.9,0-3.4-1.5-3.4-3.4v-1.6c0-1.9,1.5-3.4,3.4-3.4H46c1.9,0,3.4,1.5,3.4,3.4v1.6
			C49.5,479.1,47.9,480.7,46,480.7z"/>
	</g>
	<g>
		<polygon fill="#252525" points="1017.6,72.1 1016,72.1 1017.1,61.2 1018.7,61.2 		"/>
		<path fill="#252525" d="M1401.3,114.9c1,1.1,3.1,3.2,3.9,4.4c0.3,0.6,0.5,1.3,0.5,2l0.2,7.9c0.5,31.2,0.5,63.1,0,94.3
			c-0.1,5.2-0.2,10.5-0.4,15.7c-0.2-5.2-0.3-10.5-0.4-15.7c-0.5-31.2-0.5-63.1,0-94.3l0.2-7.9c0-0.6-0.1-1.2-0.4-1.8
			C1404.2,118.3,1402.1,116.1,1401.3,114.9L1401.3,114.9z"/>
		<path fill="#252525" d="M1463.7,239.2c-10.5,0.4-25.7,0.5-36.4,0.6l-9.1,0.1h-1.1c-3.2,0.3-5.9-2.3-5.7-5.6
			c0-13.1-0.1-32.4,0.1-45.4v-4.5c0-1.6,0-3.4,1.1-4.7c1-1.4,2.8-2.1,4.5-1.9l4.5,0.1c8.8,0.1,18.5,0.2,27.3,0.5
			c-6.1,0.2-12.1,0.3-18.2,0.4l-9.1,0.1l-4.5,0.1c-1.4-0.1-2.7,0.4-3.5,1.5c-0.9,1.1-0.7,2.6-0.7,4v4.5c0.1,13,0.1,32.3,0.1,45.4
			c-0.3,2.5,1.8,4.4,4.2,4.2h1.1l9.1,0.1C1438.1,238.6,1453.2,238.9,1463.7,239.2L1463.7,239.2z"/>
		<path fill="#252525" d="M545.4,253.7c-4.1,3.6-12.6,12.5-8.1,18c1.7,1.6,4.1,2.4,6.3,3.1c6.3,1.9,12.9,2.7,19.4,3.2
			c3.3,0.3,6.6,0.4,9.8,0.3c1.9-0.1,3.8-0.1,5.6-0.8c0.4-0.2,0.7-0.7,1-0.9c1.6-1.8,3.4-3.8,5.4-5.2c1.3-1,3-1.7,4.7-1.5
			c-1.7,0-3.2,0.8-4.4,1.9c-1.8,1.5-3.4,3.7-5,5.5c-0.4,0.4-0.7,0.9-1.2,1.2c-1.9,0.9-4,1-6,1.2c-8.8,0.6-31.1-0.7-37-7.5
			C532,265.5,540.4,257.3,545.4,253.7L545.4,253.7z"/>
		<polygon fill="#252525" points="185.8,468.5 162.1,434.2 163.3,433.2 187.1,467.6 		"/>
		<polygon fill="#252525" points="1642.2,442.4 1640.7,441.8 1656.2,398.9 1657.8,399.3 		"/>
		<polygon fill="#252525" points="1444.6,456.9 1442.1,458.5 1459.1,406.2 1460.9,405.8 		"/>
		<path fill="#252525" d="M1362.9,580.9c10.2-39.7,26.9-88.9,54.1-120c5.3-5.8,11.3-11.1,18.2-14.9c4.5-2.4,9.5-4.5,14.3-6.4
			c39.8-16.7,80-19.9,122.7-18.2c50,2.3,94.8,2.9,124.7,49.6c11.4,17.5,19.4,36.8,26.6,56.3c-7.4-19.4-15.7-38.6-27.2-55.9
			c-11.3-17.3-27.6-31.6-47.3-38.3c-24.6-8.5-51-9-76.8-10.2c-42.2-1.5-82.7,1.6-122.1,18c-4.7,1.9-9.6,4-14.1,6.3
			c-6.7,3.7-12.7,8.9-17.9,14.6C1391.1,492,1373.4,542.1,1362.9,580.9L1362.9,580.9z"/>
		<path fill="#252525" d="M128.6,533c13-32.2,37.3-78.3,70.8-92.1c4.5-1.8,9.7-2.8,14.5-3.6c12.2-2.2,24.4-3.8,36.7-5.1
			c34.4-3.5,69.2-5.2,103.7-2.3l7.4,0.7l7.4,1l3.7,0.5l3.7,0.7c4.4,0.7,10.2,2.1,14.5,3.2c29.6,7.6,50.4,32.5,63.7,58.8
			c11.3,22,19,45.6,26,69.3c-7.2-23.6-15.4-47-26.8-68.9c-15.6-29.5-36.5-52.9-70.5-59.6c-3.4-0.7-7.4-1.4-10.9-2
			c-2.2-0.3-8.7-1.1-11-1.4l-7.4-0.7c-31.9-2.5-64.2-1.4-96,1.5c-12.2,1.1-24.6,2.6-36.7,4.5c-7.2,1.3-14.7,2-21.5,4.7
			C166.9,455.3,141.8,501.6,128.6,533L128.6,533z"/>
		<polygon fill="#252525" points="512.6,602.8 477.5,602.8 477.3,601.2 512.3,601.2 		"/>
		<polygon fill="#252525" points="1375.2,604.5 1342.4,604.5 1342.6,602.9 1375.4,602.9 		"/>
	</g>
	<g>
		<path fill="#252525" d="M301.8,474.5c-83.4,0-151,67.6-151,151s67.6,151,151,151s151-67.6,151-151S385.2,474.5,301.8,474.5z
			 M301.8,736.2c-61.1,0-110.7-49.6-110.7-110.7s49.6-110.7,110.7-110.7s110.7,49.6,110.7,110.7S363,736.2,301.8,736.2z"/>
		<circle fill="#343434" cx="301.8" cy="625.5" r="74.3"/>
		<path fill="#8F8F8F" d="M301.8,510.4c-63.6,0-115.1,51.5-115.1,115.1s51.5,115.1,115.1,115.1s115.1-51.5,115.1-115.1
			S365.4,510.4,301.8,510.4z M260.1,618l-25,16c-2,1.3-4.7,0.7-6-1.3l-16-25c-1.3-2-0.7-4.7,1.3-6l25-16c2-1.3,4.7-0.7,6,1.3l16,25
			C262.7,614,262.1,616.7,260.1,618z M309.1,698.2l-25,16c-2,1.3-4.7,0.7-6-1.3l-16-25c-1.3-2-0.7-4.7,1.3-6l25-16
			c2-1.3,4.7-0.7,6,1.3l16,25C311.7,694.3,311.1,696.9,309.1,698.2z M340.3,569l-25,16c-2,1.3-4.7,0.7-6-1.3l-16-25
			c-1.3-2-0.7-4.7,1.3-6l25-16c2-1.3,4.7-0.7,6,1.3l16,25C342.9,565.1,342.3,567.7,340.3,569z M389.3,649.3l-25,16
			c-2,1.3-4.7,0.7-6-1.3l-16-25c-1.3-2-0.7-4.7,1.3-6l25-16c2-1.3,4.7-0.7,6,1.3l16,25C391.9,645.3,391.3,648,389.3,649.3z"/>
		<path fill="#C4C4C4" d="M301.8,509.4c-64.1,0-116.1,52-116.1,116.1s52,116.1,116.1,116.1s116.1-52,116.1-116.1
			S366,509.4,301.8,509.4z M290.7,514.5c0.9-0.6,1.1-1.8,0.5-2.6c3.5-0.3,7-0.5,10.6-0.5c22.3,0,43.1,6.4,60.6,17.4l-0.6,0.3
			c-0.9,0.5-1.3,1.7-0.7,2.6l14.3,22.8c1.3,2.1,0.7,4.9-1.4,6.2l-57.5,36.2c-4.1,2.6-9.5,1.5-12.2-2.5l-4.3-6.3l0,0l-33.8-52.9
			c-1.4-2.1-0.7-4.9,1.4-6.3L290.7,514.5z M211.7,661.3c-2.1,1.4-4.9,0.7-6.3-1.4l-14.5-23.2c-0.6-0.9-1.8-1.1-2.6-0.5
			c-0.3-3.5-0.5-7-0.5-10.6c0-22.3,6.4-43.1,17.4-60.6l0.3,0.6c0.5,0.9,1.7,1.3,2.6,0.7l22.8-14.3c2.1-1.3,4.9-0.7,6.2,1.4
			l36.2,57.5c2.6,4.1,1.5,9.5-2.5,12.2l-6.3,4.3L211.7,661.3z M313,736.4c-0.9,0.6-1.1,1.8-0.5,2.6c-3.5,0.3-7,0.5-10.6,0.5
			c-22.3,0-43.1-6.4-60.6-17.4l0.6-0.3c0.9-0.5,1.3-1.7,0.7-2.6l-14.3-22.8c-1.3-2.1-0.7-4.9,1.4-6.2l57.5-36.2
			c4.1-2.6,9.5-1.5,12.2,2.5l4.3,6.3l0,0l33.8,52.9c1.4,2.1,0.7,4.9-1.4,6.3L313,736.4z M398.1,685.5c-0.5-0.9-1.7-1.3-2.6-0.7
			l-22.8,14.3c-2.1,1.3-4.9,0.7-6.2-1.4l-36.2-57.5c-2.6-4.1-1.5-9.5,2.5-12.2l6.3-4.3l0,0l52.9-33.8c2.1-1.4,4.9-0.7,6.3,1.4
			l14.5,23.2c0.6,0.9,1.8,1.1,2.6,0.5c0.3,3.5,0.5,7,0.5,10.6c0,22.3-6.4,43.1-17.4,60.6L398.1,685.5z"/>
		<g>
			<path fill="#C4C4C4" d="M311.2,595.7c-2.1,0-4.2-1.1-5.5-3l-25.1-41.2c-1.9-3-1-7,2-8.9l39.7-23.8c3-1.9,7-1,8.9,2l25.1,38.9
				c0.9,1.5,1.2,3.2,0.9,4.9c-0.4,1.7-1.4,3.1-2.8,4.1l-39.7,26.1C313.7,595.4,312.4,595.7,311.2,595.7z M325.8,518.7
				c-1,0-2,0.3-2.9,0.9l-39.7,23.8c-2.5,1.6-3.3,5-1.6,7.6l25.1,41.2c1.6,2.5,5,3.3,7.6,1.6l39.7-26.1c1.2-0.8,2.1-2,2.4-3.4
				s0.1-2.9-0.7-4.1l-25.1-38.9C329.4,519.6,327.6,518.7,325.8,518.7z"/>
			<path fill="#C4C4C4" d="M224.3,647.6c-2.1,0-4.2-1.1-5.5-3L195,605c-0.9-1.4-1.2-3.2-0.9-4.9c0.4-1.7,1.4-3.1,2.8-4.1l38.9-25.1
				c3-1.9,7-1,8.9,2l26.1,39.7c0.9,1.5,1.2,3.2,0.9,4.9c-0.4,1.7-1.4,3.1-2.8,4.1l-41.2,25.1C226.7,647.3,225.5,647.6,224.3,647.6z
				 M239.4,570.9c-1,0-2,0.3-2.9,0.9l-38.9,25.1c-1.2,0.8-2.1,2-2.4,3.4c-0.3,1.4-0.1,2.9,0.7,4.1l23.8,39.7c1.6,2.5,5,3.3,7.6,1.6
				l41.2-25.1c1.2-0.8,2.1-2,2.4-3.4s0.1-2.9-0.7-4.1L244,573.4C243,571.8,241.2,570.9,239.4,570.9z"/>
			<path fill="#C4C4C4" d="M277.8,733.3c-2.1,0-4.2-1.1-5.5-3l-25.1-38.9c-0.9-1.5-1.2-3.2-0.9-4.9c0.4-1.7,1.4-3.1,2.8-4.1
				l39.7-26.1c3-1.9,7-1.1,9,2l25.1,41.2c0.9,1.4,1.2,3.2,0.9,4.9c-0.4,1.7-1.4,3.1-2.8,4.1l-39.7,23.8
				C280.2,733,279,733.3,277.8,733.3z M292.4,656.3c-1,0-2,0.3-2.9,0.9l-39.7,26.1c-1.2,0.8-2.1,2-2.4,3.4c-0.3,1.4-0.1,2.9,0.7,4.1
				l25.1,38.9c1.6,2.5,5,3.3,7.6,1.7l39.7-23.8c1.2-0.8,2.1-2,2.4-3.4s0.1-2.9-0.7-4.1L297,658.8C296,657.2,294.2,656.3,292.4,656.3
				z"/>
			<path fill="#C4C4C4" d="M364.2,681.1c-2.1,0-4.2-1.1-5.5-3l-26.1-39.7c-0.9-1.5-1.2-3.2-0.9-4.9c0.4-1.7,1.4-3.1,2.8-4.1
				l41.2-25.1c3-1.9,7-1,8.9,2l23.8,39.7c0.9,1.4,1.2,3.2,0.9,4.9c-0.4,1.7-1.4,3.1-2.8,4.1l-38.8,25
				C366.6,680.7,365.4,681.1,364.2,681.1z M379.3,604.3c-1,0-2,0.3-2.9,0.9l-41.2,25.1c-1.2,0.8-2.1,2-2.4,3.4s-0.1,2.9,0.7,4.1
				l26.1,39.7c1.6,2.5,5,3.3,7.6,1.7l38.9-25.1c1.2-0.8,2.1-2,2.4-3.4s0.1-2.9-0.7-4.1L384,606.9
				C382.9,605.2,381.1,604.3,379.3,604.3z"/>
		</g>
		<circle fill="#8F8F8F" cx="301.8" cy="625.5" r="14.4"/>
		<path fill="#8F8F8F" d="M301.8,652.2c-14.7,0-26.7-12-26.7-26.7s12-26.7,26.7-26.7s26.7,12,26.7,26.7S316.5,652.2,301.8,652.2z
			 M301.8,599.8c-14.2,0-25.7,11.5-25.7,25.7s11.5,25.7,25.7,25.7s25.7-11.5,25.7-25.7S316,599.8,301.8,599.8z"/>
		<g>
			<circle fill="#252525" cx="289.8" cy="603.8" r="8.6"/>
			<circle fill="#252525" cx="280.2" cy="637.5" r="8.6"/>
			<circle fill="#252525" cx="313.9" cy="647.1" r="8.6"/>
			<circle fill="#252525" cx="323.5" cy="613.5" r="8.6"/>
		</g>
	</g>
	<g>
		<path fill="#252525" d="M1554.8,474.5c-83.4,0-151,67.6-151,151s67.6,151,151,151s151-67.6,151-151S1638.2,474.5,1554.8,474.5z
			 M1554.8,736.2c-61.1,0-110.7-49.6-110.7-110.7s49.6-110.7,110.7-110.7s110.7,49.6,110.7,110.7S1615.9,736.2,1554.8,736.2z"/>
		<circle fill="#343434" cx="1554.8" cy="625.5" r="74.3"/>
		<path fill="#8F8F8F" d="M1554.8,510.4c-63.6,0-115.1,51.5-115.1,115.1s51.5,115.1,115.1,115.1s115.1-51.5,115.1-115.1
			S1618.4,510.4,1554.8,510.4z M1513.1,618l-25,16c-2,1.3-4.7,0.7-6-1.3l-16-25c-1.3-2-0.7-4.7,1.3-6l25-16c2-1.3,4.7-0.7,6,1.3
			l16,25C1515.7,614,1515.1,616.7,1513.1,618z M1562,698.2l-25,16c-2,1.3-4.7,0.7-6-1.3l-16-25c-1.3-2-0.7-4.7,1.3-6l25-16
			c2-1.3,4.7-0.7,6,1.3l16,25C1564.6,694.3,1564.1,696.9,1562,698.2z M1593.3,569l-25,16c-2,1.3-4.7,0.7-6-1.3l-16-25
			c-1.3-2-0.7-4.7,1.3-6l25-16c2-1.3,4.7-0.7,6,1.3l16,25C1595.9,565.1,1595.3,567.7,1593.3,569z M1642.3,649.3l-25,16
			c-2,1.3-4.7,0.7-6-1.3l-16-25c-1.3-2-0.7-4.7,1.3-6l25-16c2-1.3,4.7-0.7,6,1.3l16,25C1644.9,645.3,1644.3,648,1642.3,649.3z"/>
		<path fill="#C4C4C4" d="M1554.8,509.4c-64.1,0-116.1,52-116.1,116.1s52,116.1,116.1,116.1s116.1-52,116.1-116.1
			S1618.9,509.4,1554.8,509.4z M1543.7,514.5c0.9-0.6,1.1-1.8,0.5-2.6c3.5-0.3,7-0.5,10.6-0.5c22.3,0,43.1,6.4,60.6,17.4l-0.6,0.3
			c-0.9,0.5-1.3,1.7-0.7,2.6l14.3,22.8c1.3,2.1,0.7,4.9-1.4,6.2l-57.5,36.2c-4.1,2.6-9.5,1.5-12.2-2.5l-4.3-6.3l0,0l-33.8-52.9
			c-1.4-2.1-0.7-4.9,1.4-6.3L1543.7,514.5z M1464.7,661.3c-2.1,1.4-4.9,0.7-6.3-1.4l-14.5-23.2c-0.6-0.9-1.8-1.1-2.6-0.5
			c-0.3-3.5-0.5-7-0.5-10.6c0-22.3,6.4-43.1,17.4-60.6l0.3,0.6c0.5,0.9,1.7,1.3,2.6,0.7l22.8-14.3c2.1-1.3,4.9-0.7,6.2,1.4
			l36.2,57.5c2.6,4.1,1.5,9.5-2.5,12.2l-6.3,4.3L1464.7,661.3z M1565.9,736.4c-0.9,0.6-1.1,1.8-0.5,2.6c-3.5,0.3-7,0.5-10.6,0.5
			c-22.3,0-43.1-6.4-60.6-17.4l0.6-0.3c0.9-0.5,1.3-1.7,0.7-2.6l-14.3-22.8c-1.3-2.1-0.7-4.9,1.4-6.2l57.5-36.2
			c4.1-2.6,9.5-1.5,12.2,2.5l4.3,6.3l0,0l33.8,52.9c1.4,2.1,0.7,4.9-1.4,6.3L1565.9,736.4z M1651.1,685.5c-0.5-0.9-1.7-1.3-2.6-0.7
			l-22.8,14.3c-2.1,1.3-4.9,0.7-6.2-1.4l-36.2-57.5c-2.6-4.1-1.5-9.5,2.5-12.2l6.3-4.3l0,0l52.9-33.8c2.1-1.4,4.9-0.7,6.3,1.4
			l14.5,23.2c0.6,0.9,1.8,1.1,2.6,0.5c0.3,3.5,0.5,7,0.5,10.6c0,22.3-6.4,43.1-17.4,60.6L1651.1,685.5z"/>
		<g>
			<path fill="#C4C4C4" d="M1564.2,595.7c-2.1,0-4.2-1.1-5.5-3l-25.1-41.2c-1.9-3-1-7,2-8.9l39.7-23.8c3-1.9,7-1,8.9,2l25.1,38.9
				c0.9,1.5,1.2,3.2,0.9,4.9c-0.4,1.7-1.4,3.1-2.8,4.1l-39.7,26.1C1566.6,595.4,1565.4,595.7,1564.2,595.7z M1578.8,518.7
				c-1,0-2,0.3-2.9,0.9l-39.7,23.8c-2.5,1.6-3.3,5-1.6,7.6l25.1,41.2c1.6,2.5,5,3.3,7.6,1.6l39.7-26.1c1.2-0.8,2.1-2,2.4-3.4
				s0.1-2.9-0.7-4.1l-25.1-38.9C1582.4,519.6,1580.6,518.7,1578.8,518.7z"/>
			<path fill="#C4C4C4" d="M1477.3,647.6c-2.1,0-4.2-1.1-5.5-3L1448,605c-0.9-1.4-1.2-3.2-0.9-4.9c0.4-1.7,1.4-3.1,2.8-4.1
				l38.9-25.1c3-1.9,7-1,8.9,2l26.1,39.7c0.9,1.5,1.2,3.2,0.9,4.9c-0.4,1.7-1.4,3.1-2.8,4.1l-41.2,25.1
				C1479.7,647.3,1478.5,647.6,1477.3,647.6z M1492.4,570.9c-1,0-2,0.3-2.9,0.9l-38.9,25.1c-1.2,0.8-2.1,2-2.4,3.4s-0.1,2.9,0.7,4.1
				l23.8,39.7c1.6,2.5,5,3.3,7.6,1.6l41.2-25.1c1.2-0.8,2.1-2,2.4-3.4s0.1-2.9-0.7-4.1l-26.1-39.7
				C1496,571.8,1494.2,570.9,1492.4,570.9z"/>
			<path fill="#C4C4C4" d="M1530.8,733.3c-2.1,0-4.2-1.1-5.5-3l-25.1-38.9c-0.9-1.5-1.2-3.2-0.9-4.9c0.4-1.7,1.4-3.1,2.8-4.1
				l39.7-26.1c3-1.9,7-1.1,9,2l25.1,41.2c0.9,1.4,1.2,3.2,0.9,4.9c-0.4,1.7-1.4,3.1-2.8,4.1l-39.7,23.8
				C1533.2,733,1532,733.3,1530.8,733.3z M1545.4,656.3c-1,0-2,0.3-2.9,0.9l-39.7,26.1c-1.2,0.8-2.1,2-2.4,3.4s-0.1,2.9,0.7,4.1
				l25.1,38.9c1.6,2.5,5,3.3,7.6,1.7l39.7-23.8c1.2-0.8,2.1-2,2.4-3.4s0.1-2.9-0.7-4.1l-25.1-41.2
				C1549,657.2,1547.2,656.3,1545.4,656.3z"/>
			<path fill="#C4C4C4" d="M1617.2,681.1c-2.1,0-4.2-1.1-5.5-3l-26.1-39.7c-0.9-1.5-1.2-3.2-0.9-4.9c0.4-1.7,1.4-3.1,2.8-4.1
				l41.2-25.1c3-1.9,7-1,8.9,2l23.8,39.7c0.9,1.4,1.2,3.2,0.9,4.9c-0.4,1.7-1.4,3.1-2.8,4.1l-38.9,25.1
				C1619.6,680.7,1618.4,681.1,1617.2,681.1z M1632.3,604.3c-1,0-2,0.3-2.9,0.9l-41.2,25.1c-1.2,0.8-2.1,2-2.4,3.4s-0.1,2.9,0.7,4.1
				l26.1,39.7c1.6,2.5,5,3.3,7.6,1.7l38.9-25.1c1.2-0.8,2.1-2,2.4-3.4s0.1-2.9-0.7-4.1l-23.8-39.7
				C1635.9,605.2,1634.1,604.3,1632.3,604.3z"/>
		</g>
		<circle fill="#8F8F8F" cx="1554.8" cy="625.5" r="14.4"/>
		<path fill="#8F8F8F" d="M1554.8,652.2c-14.7,0-26.7-12-26.7-26.7s12-26.7,26.7-26.7s26.7,12,26.7,26.7S1569.5,652.2,1554.8,652.2z
			 M1554.8,599.8c-14.2,0-25.7,11.5-25.7,25.7s11.5,25.7,25.7,25.7s25.7-11.5,25.7-25.7S1569,599.8,1554.8,599.8z"/>
		<g>
			<circle fill="#252525" cx="1542.8" cy="603.8" r="8.6"/>
			<circle fill="#252525" cx="1533.2" cy="637.5" r="8.6"/>
			<circle fill="#252525" cx="1566.8" cy="647.1" r="8.6"/>
			<circle fill="#252525" cx="1576.5" cy="613.5" r="8.6"/>
		</g>
	</g>
</g>
</svg>
