<?xml version="1.0" encoding="utf-8"?>
<!-- Generator: Adobe Illustrator 28.1.0, SVG Export Plug-In . SVG Version: 6.00 Build 0)  -->
<svg version="1.1" id="Réteg_1" xmlns="http://www.w3.org/2000/svg" xmlns:xlink="http://www.w3.org/1999/xlink" x="0px" y="0px"
	 viewBox="0 0 1596.8 581" style="enable-background:new 0 0 1596.8 581;" xml:space="preserve">
<style type="text/css">
	.st0{fill:#AA4805;}
	.st1{fill:#343434;}
	.st2{fill:#252525;}
	.st3{fill:#8F8F8F;}
	.st4{fill:#C4C4C4;}
	.st5{fill:#EE7019;}
	.st6{fill:#CAE4ED;}
	.st7{fill:#991915;}
	.st8{fill:#D76B1D;}
	.st9{fill:#E9F2F4;}
	.st10{fill:#E51B2A;}
</style>
<g id="Réteg_2_00000112606015932665038030000002736132514083966116_">
	<path class="st0" d="M975,0c-42.4,0-187.3,2.1-269.9,29.1c-95.5,31.2-259.8,119.5-306.8,148.2c-2.6,0-22-0.2-31.5-4.5
		c-1.9-0.9-3.9-1.3-6-1.3c-0.5,0-1.1,0-1.6,0.1C340,173.7,240,185.4,158.6,212c-47.2,15.4-76.3,29.8-92.5,39.1
		c-15.6,9-22.4,15.2-23.9,16.7l-8,1.9c-2.7,0.6-5.1,2.3-6.8,4.5c-5.2,7.3-14.2,20.8-16.4,29.2c-2.8,10.9-2.5,32.9-2.5,34.3
		c0,0.8-0.1,8.3,5,13.6l-9.2,10.9c-1.2,1.4-1.8,3.2-1.8,5v25.4c0,2.2,1.8,3.9,3.9,3.9h0.3v13c0,1.3,0.7,2.5,1.8,3.2l5.5,3.2v1.4
		L2.3,427.5c-1.4,1.2-2.3,3-2.3,4.9v41.5c0,9.9,8,16.3,24.4,19.5c19,3.6,117.4,15.8,145.7,15.8h1.9l-0.3-1.8
		c-4.5-28.6-3.5-55.5,2.9-79.9c5.8-22.2,16.1-42,30.4-58.8c13.6-15.9,30.8-28.8,50-37.5c18.5-8.4,38.8-12.8,58.6-12.8
		c41,0,79.9,17.1,106.6,46.8c22,24.4,46.5,69.2,38.6,143.9l-0.2,1.8h1.8l745.4-10.4h1.8l-0.2-1.8c-6.3-52.4,6-97.8,35.7-131.3
		c14.3-16.1,31.8-28.7,52.2-37.4c19.1-8.2,40.1-12.6,60.7-12.6c38.9,0,76.9,17.1,104.4,47c28.5,31,42.2,72.1,38.5,115.5l-0.2,1.9
		l1.9-0.2c29-2.9,52.2-6.7,55.2-9c1.9-1.5,9.4-8.1,11.4-9.8h9.2c2.5,0,4.8-1.2,6.2-3.3c14.3-20.8,14.3-22.7,14.3-23.5v-32
		c0-1.8-0.3-3.5-0.9-5.2l-7.3-19.4v-6.3c0.7-2.4,6.1-22.3,6.1-37.6v-29.4c0-8.1-15.8-27-18.7-30.4c-0.4-2.1-2.5-12.5-2.5-22.3v-28.7
		c0-0.5,0-1,0-1.5c0.1-10.9,0.3-39.6-24.1-57.8c-3-3.4-64.8-72.3-98.1-98.5c4.5-2.3,14.5-7.5,18.3-9.9c0.8-0.5,1.2-1.3,1.2-2.2v-1.7
		c0-1.2-0.9-2.3-2.1-2.6c-6.9-1.4-70-14.2-159.7-26.4c-116.7-15.9-224.7-24-321-24C988.2,0.1,983.3,0,975,0L975,0z"/>
	<polygon class="st1" points="170.1,507.6 460.4,509.2 676.9,396.4 1205.8,498.9 1500.4,480 1578.7,405.7 1393.6,236.2 285.8,263.1 
		136.1,356.4 	"/>
	<g>
		<path class="st2" d="M314.1,338.4c-67,0-121.3,54.3-121.3,121.3S247.1,581,314.1,581s121.3-54.3,121.3-121.3
			S381.1,338.4,314.1,338.4z M314.1,548.6c-49.1,0-88.9-39.8-88.9-88.9s39.8-88.9,88.9-88.9s88.9,39.8,88.9,88.9
			S363.2,548.6,314.1,548.6z"/>
		<circle class="st1" cx="314.1" cy="459.7" r="60.4"/>
		<g>
			<path class="st3" d="M314.1,364.1c-52.8,0-95.6,42.8-95.6,95.6s42.8,95.6,95.6,95.6s95.6-42.8,95.6-95.6S366.9,364.1,314.1,364.1
				z M376.3,433.9l6.5-8.7c0.2-0.3,0.5-0.5,0.9-0.6c0.9-0.3,1.8,0.1,2.2,0.9c1.5,3.1,2.7,6.3,3.8,9.6l0,0l0,0l0,0l0,0
				c1.1,3.3,1.9,6.6,2.5,10c0.2,0.9-0.4,1.8-1.2,2c-0.4,0.1-0.7,0.1-1.1,0l-10.4-3.3c-2.3-0.7-4.8-0.8-7.1-0.2l-17.9,4.6
				c-0.3,0.1-0.7-0.1-0.8-0.4l-0.3-1v-0.1l-0.3-1c-0.1-0.3,0.1-0.7,0.4-0.8l17.2-6.8C372.9,437.4,374.9,435.9,376.3,433.9z
				 M303.7,380.8c3.4-0.4,6.8-0.7,10.3-0.7l0,0l0,0l0,0l0,0c3.5,0,6.9,0.2,10.3,0.7c0.9,0.1,1.6,0.9,1.6,1.8c0,0.4-0.1,0.7-0.3,1
				l-6.3,8.9c-1.4,2-2.2,4.3-2.4,6.7l-1.1,18.4c0,0.3-0.3,0.6-0.6,0.6h-1.1H314h-1c-0.3,0-0.6-0.3-0.6-0.6l-1.1-18.4
				c-0.1-2.4-1-4.8-2.4-6.7l-6.3-8.9c-0.2-0.3-0.3-0.7-0.3-1C302.2,381.7,302.8,380.9,303.7,380.8z M235.9,445.1
				c0.6-3.3,1.5-6.7,2.5-10l0,0l0,0l0,0l0,0c1.1-3.3,2.4-6.5,3.8-9.6c0.4-0.8,1.3-1.2,2.2-0.9c0.4,0.1,0.7,0.3,0.9,0.6l6.5,8.7
				c1.4,1.9,3.4,3.5,5.7,4.3l17.2,6.8c0.3,0.1,0.5,0.5,0.4,0.8l-0.3,1v0.1l-0.3,1c-0.1,0.3-0.4,0.5-0.8,0.4l-17.9-4.6
				c-2.3-0.6-4.8-0.5-7.1,0.2l-10.4,3.3c-0.4,0.1-0.7,0.1-1.1,0C236.2,446.9,235.7,446,235.9,445.1z M246.6,493.4l-3.7-0.2
				c-0.6,0-1.1-0.4-1.3-0.9c-1.2-2.6-2.2-5.3-3.1-8l0,0l0,0l0,0l0,0c-0.9-2.8-1.6-5.5-2.2-8.3c-0.1-0.6,0.1-1.1,0.5-1.5l2.9-2.3
				c1.1-0.9,2.4-1.6,3.7-1.9l29.2-8.3c0.8-0.2,1.6-0.2,2.3,0.1l5.5,2.1c1.1,0.4,1.9,1.3,2.2,2.4l1,3.2v0.1l1,3.2
				c0.4,1.1,0.2,2.3-0.4,3.2l-3.2,4.9c-0.4,0.7-1.1,1.2-1.8,1.5l-28.5,10.5C249.4,493.2,248,493.4,246.6,493.4z M290.8,494.7
				l-9.9,15.6c-1.3,2-2,4.4-2,6.8l-0.1,10.9c0,0.4-0.1,0.7-0.3,1c-0.5,0.7-1.5,1-2.3,0.5c-3-1.6-5.9-3.5-8.7-5.5l0,0l0,0l0,0l0,0
				c-2.8-2-5.5-4.2-7.9-6.6c-0.7-0.6-0.8-1.6-0.2-2.4c0.2-0.3,0.5-0.5,0.9-0.6l10.3-3.5c2.3-0.8,4.3-2.2,5.9-4l11.7-14.3
				c0.2-0.3,0.6-0.3,0.9-0.1l0.9,0.6l0,0l0.9,0.6C290.9,494,291,494.4,290.8,494.7z M299.8,423.1l-0.3,5.8c-0.1,1.1-0.6,2.2-1.5,2.9
				l-2.7,2l0,0l-2.7,2c-0.9,0.7-2.1,0.9-3.2,0.6l-5.6-1.5c-0.8-0.2-1.5-0.7-1.9-1.3L263,409.7c-0.9-1.1-1.5-2.4-1.9-3.8l-1-3.6
				c-0.1-0.6,0-1.2,0.5-1.5c2.1-1.9,4.3-3.7,6.7-5.4l0,0l0,0l0,0l0,0c2.4-1.7,4.8-3.3,7.2-4.7c0.5-0.3,1.1-0.3,1.6,0l3.1,2
				c1.2,0.8,2.2,1.8,3,3l16.9,25.2C299.6,421.5,299.9,422.3,299.8,423.1z M325.3,534.3l-1.3,3.5c-0.2,0.5-0.7,0.9-1.3,1
				c-2.8,0.3-5.7,0.5-8.6,0.5l0,0l0,0l0,0l0,0c-2.9,0-5.8-0.2-8.6-0.5c-0.6-0.1-1.1-0.4-1.3-1l-1.3-3.5c-0.5-1.3-0.7-2.7-0.7-4.2
				l1.2-30.3c0-0.8,0.3-1.6,0.8-2.2l3.7-4.5c0.7-0.9,1.8-1.4,2.9-1.4h3.3h0.1h3.3c1.1,0,2.2,0.5,2.9,1.4l3.7,4.5
				c0.5,0.6,0.8,1.4,0.8,2.2l1.2,30.3C326,531.5,325.8,532.9,325.3,534.3z M332.9,433.8L332.9,433.8l-2.7-2
				c-0.9-0.7-1.5-1.7-1.5-2.9l-0.3-5.8c0-0.8,0.2-1.6,0.6-2.2l16.9-25.2c0.8-1.2,1.8-2.2,3-3l3.1-2c0.5-0.3,1.1-0.3,1.6,0
				c2.5,1.4,4.9,3,7.2,4.7l0,0l0,0l0,0l0,0c2.3,1.7,4.6,3.5,6.7,5.4c0.4,0.4,0.6,1,0.5,1.5l-1,3.6c-0.4,1.4-1,2.7-1.9,3.8
				l-18.7,23.8c-0.5,0.6-1.2,1.1-1.9,1.3l-5.6,1.5c-1.1,0.3-2.3,0.1-3.2-0.6L332.9,433.8z M368.8,517.4c-2.5,2.3-5.1,4.5-7.9,6.6
				l0,0l0,0l0,0l0,0c-2.8,2-5.7,3.9-8.7,5.5c-0.8,0.4-1.8,0.2-2.3-0.5c-0.2-0.3-0.3-0.7-0.3-1l-0.1-10.9c0-2.4-0.7-4.8-2-6.8
				l-9.9-15.6c-0.2-0.3-0.1-0.7,0.2-0.9l0.9-0.6l0,0l0.9-0.6c0.3-0.2,0.7-0.2,0.9,0.1l11.7,14.3c1.5,1.9,3.6,3.3,5.9,4l10.3,3.5
				c0.4,0.1,0.7,0.3,0.9,0.6C369.5,515.7,369.4,516.8,368.8,517.4z M391.9,475.9c-0.6,2.8-1.3,5.6-2.2,8.3l0,0l0,0l0,0l0,0
				c-0.9,2.8-1.9,5.4-3.1,8c-0.2,0.5-0.8,0.9-1.3,0.9l-3.7,0.2c-1.4,0.1-2.8-0.1-4.2-0.6l-28.5-10.5c-0.7-0.3-1.4-0.8-1.8-1.5
				l-3.2-4.9c-0.6-1-0.8-2.1-0.4-3.2l1-3.2v-0.1l1-3.2c0.4-1.1,1.2-2,2.2-2.4l5.5-2.1c0.7-0.3,1.6-0.3,2.3-0.1l29.2,8.3
				c1.4,0.4,2.6,1.1,3.7,1.9l2.9,2.3C391.8,474.8,392,475.4,391.9,475.9z"/>
			<g>
				<path class="st4" d="M289,394.3c0.9,0.9,2.1,1.5,3.4,1.6l4,0.3c0.6,0,1-0.4,1-1c0-0.3-0.1-0.6-0.3-0.9l-15.2-20.2
					c-0.1-0.2-0.2-0.4-0.2-0.7c0-0.5,0.3-0.9,0.7-1c9.9-3.6,20.6-5.6,31.7-5.6s21.8,2,31.7,5.6c0.4,0.2,0.7,0.6,0.7,1
					c0,0.2-0.1,0.5-0.2,0.7l-15.2,20.2c-0.2,0.3-0.3,0.6-0.3,0.9c0,0.6,0.5,1,1,1l4-0.3c1.3-0.1,2.5-0.7,3.4-1.6l18.4-19.4
					c0.1-0.1,0.1-0.3-0.1-0.4c-13-6.7-27.8-10.4-43.4-10.4s-30.4,3.8-43.4,10.4c-0.2,0.1-0.2,0.3-0.1,0.4L289,394.3z"/>
				<path class="st4" d="M246.7,460.6l1.5-3.7c0.2-0.5-0.1-1.1-0.6-1.3c-0.3-0.1-0.6-0.1-0.9,0l-23.9,8.2c-0.2,0.1-0.5,0.1-0.7,0
					c-0.4-0.1-0.7-0.5-0.8-1c-0.4-10.5,1.1-21.3,4.5-31.9s8.6-20.1,15.1-28.4c0.3-0.4,0.8-0.5,1.2-0.4c0.2,0.1,0.4,0.2,0.6,0.4
					l14.5,20.7c0.2,0.3,0.4,0.5,0.7,0.5c0.5,0.2,1.1-0.1,1.2-0.7l0.9-3.9c0.3-1.2,0.1-2.6-0.5-3.7l-12.8-23.5
					c-0.1-0.1-0.3-0.2-0.4-0.1c-10.4,10.3-18.5,23.2-23.3,38.1s-5.8,30.1-3.5,44.5c0,0.2,0.2,0.3,0.4,0.2l24.2-11.5
					C245.3,462.8,246.2,461.8,246.7,460.6z"/>
				<path class="st4" d="M302.4,450.8c0.4-0.1,0.8-0.2,1.1-0.5l2.5-1.8l2.5-1.8c0.3-0.3,0.6-0.6,0.8-0.9l0.1-0.1
					c0.2-0.2,0.2-0.4,0.2-0.6v-0.4c0-0.1,0-0.2,0-0.4l-0.1-2.7l-1.4-41.7c-0.1-2.9-1.1-5.6-2.9-7.8l-15.9-19.4
					c-0.3-0.4-0.9-0.6-1.4-0.4c-0.9,0.3-1.9,0.6-2.8,0.9c-0.3,0.1-0.4,0.3-0.4,0.6c0,0.1,0,0.3,0.1,0.4c1.5,1.9,14.7,18.8,16.9,23.6
					c2.1,4.3,4.9,38.7,5.6,47.6c-0.2,0.3-0.5,0.7-0.8,0.9l-1.4,1l-1.4,1c-0.3,0.2-0.7,0.4-1.1,0.5c-8.3-3.4-40-16.7-43.5-20
					c-3.8-3.6-15.9-21.4-17.2-23.4c-0.1-0.1-0.2-0.2-0.3-0.2c-0.3-0.1-0.5,0-0.7,0.2c-0.6,0.8-1.1,1.6-1.7,2.4c-0.3,0.4-0.3,1,0,1.4
					l13.6,21.1c1.5,2.4,3.8,4.2,6.5,5.2l39.2,14.2l2.5,0.9c0.1,0,0.2,0.1,0.4,0.1l0.3,0.1C301.9,450.9,302.1,450.9,302.4,450.8
					L302.4,450.8z"/>
				<path class="st4" d="M295.9,527.3c-0.2-1.3-0.8-2.4-1.8-3.3l-3-2.6c-0.4-0.4-1.1-0.3-1.4,0.2c-0.2,0.3-0.3,0.6-0.3,0.9l0.4,25.3
					c0,0.2-0.1,0.5-0.2,0.7c-0.3,0.4-0.8,0.5-1.2,0.4c-10.1-2.9-19.9-7.6-28.9-14.1s-16.5-14.4-22.4-23.1c-0.3-0.4-0.2-0.9,0-1.3
					c0.1-0.2,0.3-0.3,0.6-0.4l24.2-7.4c0.3-0.1,0.6-0.3,0.8-0.5c0.3-0.5,0.2-1.1-0.3-1.4l-3.4-2.1c-1.1-0.7-2.4-0.9-3.7-0.7
					l-26.3,4.9c-0.2,0-0.3,0.2-0.2,0.4c6.6,13.1,16.4,24.8,29,34c12.7,9.2,26.8,14.8,41.3,17.1c0.2,0,0.3-0.1,0.3-0.3L295.9,527.3z"
					/>
				<path class="st4" d="M267.7,502.5c-4.6,2.5-25.3,8.5-27.5,9.1c-0.1,0-0.2,0.1-0.3,0.2c-0.2,0.2-0.2,0.5,0,0.7
					c0.6,0.8,1.1,1.6,1.7,2.4c0.3,0.4,0.9,0.6,1.4,0.5l24.2-6.4c2.8-0.7,5.2-2.3,7-4.6l25.6-32.9l1.7-2.1c0.1-0.1,0.1-0.2,0.2-0.3
					l0.2-0.3c0.1-0.2,0.2-0.4,0.2-0.6v-0.1c0.1-0.4,0-0.8-0.1-1.2l-0.9-2.9l-1.1-3c-0.1-0.4-0.4-0.8-0.6-1.1l-0.1-0.1
					c-0.1-0.2-0.3-0.3-0.5-0.4l-0.4-0.1c-0.1,0-0.2-0.1-0.4-0.1l-2.6-0.7l-40.1-11.6c-2.7-0.8-5.7-0.7-8.3,0.4l-23.4,9.1
					c-0.5,0.2-0.8,0.7-0.8,1.2c0,1,0,2,0,2.9c0,0.3,0.2,0.5,0.4,0.6c0.1,0,0.3,0,0.4,0c2.2-0.8,22.5-8.1,27.6-8.8
					c4.8-0.6,38.3,7.3,47,9.4c0.3,0.3,0.5,0.6,0.6,1l0.5,1.7l0.5,1.7c0.1,0.4,0.2,0.8,0.1,1.2C294.4,474,271.9,500.2,267.7,502.5z"
					/>
				<path class="st4" d="M399.1,502.7l-26.3-4.9c-1.3-0.2-2.6,0-3.7,0.7l-3.4,2.1c-0.5,0.3-0.6,0.9-0.3,1.4c0.2,0.3,0.4,0.4,0.8,0.5
					l24.2,7.4c0.2,0.1,0.4,0.2,0.6,0.4c0.3,0.4,0.3,0.9,0,1.3c-5.9,8.7-13.4,16.6-22.4,23.1s-18.8,11.2-28.9,14.1
					c-0.4,0.1-0.9,0-1.2-0.4c-0.1-0.2-0.2-0.4-0.2-0.7l0.4-25.3c0-0.3-0.1-0.6-0.3-0.9c-0.3-0.5-1-0.5-1.4-0.2l-3,2.6
					c-1,0.8-1.6,2-1.8,3.3l-3.5,26.6c0,0.2,0.1,0.3,0.3,0.3c14.5-2.3,28.6-7.9,41.3-17.1c12.7-9.2,22.4-20.9,29-34
					C399.4,502.9,399.3,502.7,399.1,502.7z"/>
				<path class="st4" d="M340.5,517c1,5.1,0.2,26.6,0.2,29c0,0.1,0,0.3,0.1,0.4c0.2,0.2,0.4,0.3,0.7,0.2c0.9-0.3,1.9-0.6,2.8-0.9
					c0.5-0.2,0.8-0.6,0.9-1.1l1.4-25c0.2-2.9-0.6-5.7-2.2-8L321,477.1l-1.5-2.2c-0.1-0.1-0.1-0.2-0.2-0.3l-0.2-0.3
					c-0.1-0.2-0.3-0.3-0.5-0.3h-0.1c-0.4-0.2-0.8-0.3-1.2-0.3h-3.1H311c-0.4,0-0.8,0.1-1.2,0.3h-0.1c-0.2,0-0.4,0.2-0.5,0.3
					l-0.2,0.3c-0.1,0.1-0.2,0.2-0.2,0.3l-1.5,2.2l-23.4,34.5c-1.6,2.4-2.4,5.2-2.2,8l1.4,25c0,0.5,0.4,1,0.9,1.1
					c0.9,0.3,1.9,0.6,2.8,0.9c0.3,0.1,0.5,0,0.7-0.2c0.1-0.1,0.1-0.2,0.1-0.4c-0.1-2.4-0.8-23.9,0.2-29c0.9-4.7,18.8-34.2,23.4-41.8
					c0.4-0.2,0.8-0.3,1.2-0.3h1.8h1.8c0.4,0,0.8,0.1,1.2,0.3C321.7,482.8,339.6,512.3,340.5,517z"/>
				<path class="st4" d="M387.3,405.4c-0.2-0.2-0.4-0.3-0.7-0.2c-0.1,0-0.2,0.1-0.3,0.2c-1.3,2-13.4,19.8-17.2,23.4
					c-3.5,3.3-35.3,16.6-43.5,20c-0.4-0.1-0.8-0.2-1.1-0.5l-1.4-1l-1.4-1c-0.3-0.2-0.6-0.6-0.8-0.9c0.7-8.9,3.5-43.3,5.6-47.6
					c2.2-4.7,15.5-21.7,16.9-23.6c0.1-0.1,0.1-0.2,0.1-0.4c0-0.3-0.2-0.5-0.4-0.6c-0.9-0.3-1.9-0.6-2.8-0.9c-0.5-0.1-1,0-1.4,0.4
					L323,392.2c-1.8,2.2-2.8,5-2.9,7.8l-1.4,41.7l-0.1,2.7c0,0.1,0,0.3,0,0.4v0.4c0,0.2,0.1,0.4,0.2,0.6l0.1,0.1
					c0.2,0.4,0.5,0.7,0.8,0.9l2.5,1.8l2.5,1.8c0.3,0.3,0.7,0.4,1.1,0.5l0.1,0.1c0.2,0.1,0.4,0.1,0.6,0l0.3-0.1
					c0.1,0,0.2-0.1,0.4-0.1l2.5-0.9l39.2-14.2c2.7-1,5-2.8,6.5-5.2l13.6-21.1c0.3-0.4,0.3-1,0-1.4
					C388.4,407,387.9,406.2,387.3,405.4z"/>
				<path class="st4" d="M405,430.1c-4.8-14.9-13-27.8-23.3-38.1c-0.1-0.1-0.3-0.1-0.4,0.1l-12.8,23.5c-0.6,1.1-0.8,2.4-0.5,3.7
					l0.9,3.9c0.1,0.5,0.7,0.9,1.2,0.7c0.3-0.1,0.6-0.3,0.7-0.5l14.5-20.7c0.1-0.2,0.3-0.3,0.6-0.4c0.4-0.1,0.9,0,1.2,0.4
					c6.5,8.3,11.6,17.8,15.1,28.4c3.4,10.6,4.9,21.3,4.5,31.9c0,0.5-0.3,0.9-0.8,1c-0.2,0.1-0.5,0.1-0.7,0l-23.9-8.2
					c-0.3-0.1-0.6-0.1-0.9,0c-0.5,0.2-0.8,0.8-0.6,1.3l1.5,3.7c0.5,1.2,1.4,2.1,2.6,2.7l24.2,11.5c0.2,0.1,0.3,0,0.4-0.2
					C410.8,460.2,409.8,445,405,430.1z"/>
				<path class="st4" d="M328,466.1l0.5-1.7l0.5-1.7c0.1-0.4,0.3-0.7,0.6-1c8.7-2.1,42.2-10,47-9.4c5.2,0.7,25.4,8,27.6,8.8
					c0.1,0,0.3,0,0.4,0c0.3-0.1,0.4-0.3,0.4-0.6c0-1,0-2,0-2.9c0-0.5-0.3-1-0.8-1.2l-23.4-9.1c-2.7-1-5.6-1.2-8.3-0.4l-40.1,11.6
					l-2.6,0.7c-0.1,0-0.2,0.1-0.4,0.1l-0.4,0.1c-0.2,0.1-0.4,0.2-0.5,0.4l-0.1,0.1c-0.3,0.3-0.5,0.7-0.6,1.1l-0.9,2.9l-0.9,2.9
					c-0.1,0.4-0.2,0.8-0.1,1.2v0.1c0,0.2,0,0.4,0.2,0.6l0.2,0.3c0.1,0.1,0.1,0.2,0.2,0.3l1.7,2.1l25.6,32.9c1.8,2.3,4.2,3.9,7,4.6
					l24.2,6.4c0.5,0.1,1,0,1.4-0.5c0.6-0.8,1.2-1.6,1.7-2.4c0.2-0.2,0.2-0.5,0-0.7c-0.1-0.1-0.2-0.2-0.3-0.2
					c-2.3-0.7-23-6.6-27.5-9.1c-4.2-2.3-26.7-28.4-32.5-35.2C327.9,466.9,327.9,466.4,328,466.1z"/>
			</g>
			<circle class="st4" cx="314.1" cy="459.7" r="11.7"/>
			<g>
				<g>
					<g>
						<path class="st4" d="M314.1,553.2c-5,0-10-0.4-15-1.2l0.1-0.5c9.8,1.6,20,1.6,29.7,0l0.1,0.5
							C324.1,552.8,319.1,553.2,314.1,553.2z"/>
						<polygon class="st4" points="299.2,551.7 304.1,537.7 299.7,551.8 						"/>
						<path class="st4" d="M295.4,525.5c1.8-8.9,3.9-18.2,5.8-27.1v-0.1l0,0c0,0.1,0.2,0.2,0.2,0.1c-0.1,0.2-0.6,0.9-0.7,1.2
							c-2.1,3.4-4.4,7-6.5,10.3l-3.8,5.9l-0.5,0.7c-0.3,0.5-0.4,1-0.5,1.6c0,1.4,0,2.9,0,4.4c-0.1-1.4-0.1-2.9-0.1-4.4
							c0-0.6,0.1-1.2,0.5-1.7l0.4-0.7l3.6-6c2.2-3.6,4.6-7.5,6.9-11.1l0.2-0.4l0,0c0,0,0,0,0-0.1c0.3-0.4,0.9,0,0.7,0.4
							c-0.1,0.4-0.3,1.2-0.4,1.6C299.5,508.4,297.4,517.2,295.4,525.5L295.4,525.5z"/>
						<path class="st4" d="M301.1,531.5c0.1-4.8,0.6-27.5,0.7-31.8c0.1-1,0-2.3,0.2-3.2c0.2-1.1,0.8-2,1.4-2.9l1.8-2.6
							c0.3-0.4,0.6-0.9,0.9-1.3c0.6-0.7,1.4-1,2.3-1h0.8c1,0,3.7,0,4.8,0v0.5c-1.1,0-3.7,0-4.8,0c-0.4,0-1.1-0.1-1.5,0.1
							c-0.5,0.1-0.9,0.4-1.2,0.7c-0.3,0.3-0.7,0.9-0.9,1.3l-1.8,2.6c-0.6,0.8-1.2,1.7-1.4,2.7c-0.2,0.9-0.1,2.2-0.2,3.1
							C302,503.9,301.2,526.8,301.1,531.5L301.1,531.5z"/>
						<polygon class="st4" points="328.4,551.8 324,537.7 328.9,551.7 						"/>
						<path class="st4" d="M332.8,525.5c-2.1-8.6-4.2-17.7-6.2-26.3c0-0.2-0.1-0.6-0.2-0.8c-0.1-0.4,0.5-0.7,0.7-0.3
							c0.1,0.1,0,0.1,0.1,0.1l0.2,0.4c2.2,3.6,4.7,7.5,6.9,11.1l3.6,6l0.4,0.7c0.3,0.5,0.4,1.1,0.5,1.7c0,1.4-0.1,2.9-0.1,4.4
							c0-1.4,0-2.9,0-4.4c0-0.6-0.2-1.1-0.5-1.6l-0.5-0.7l-3.8-5.9c-2.1-3.3-4.4-7-6.5-10.3c-0.2-0.3-0.6-1-0.7-1.2
							c0.1,0.1,0.2,0,0.2-0.1l0,0v0.1C328.9,507.3,331,516.6,332.8,525.5L332.8,525.5z"/>
						<path class="st4" d="M327,531.5c-0.2-4.8-0.9-27.5-1.1-31.8c-0.1-0.9,0-2.3-0.2-3.1c-0.2-1-0.8-1.9-1.4-2.7l-1.8-2.6
							c-0.3-0.3-0.6-1-0.9-1.3c-0.3-0.4-0.8-0.6-1.2-0.7c-0.4-0.1-1.1-0.1-1.5-0.1c-1,0-3.7,0-4.8,0v-0.5c1.1,0,3.7,0,4.8,0h0.8
							c0.9,0,1.7,0.3,2.3,1c0.3,0.4,0.6,0.9,0.9,1.3l1.8,2.6c0.6,0.9,1.2,1.8,1.4,2.9c0.2,0.9,0.1,2.3,0.2,3.2
							C326.4,503.9,326.9,526.8,327,531.5L327,531.5z"/>
					</g>
					<g>
						<path class="st4" d="M397.2,502.4l-0.5-0.2c2.3-4.4,4.2-9,5.7-13.8c1.5-4.7,2.7-9.6,3.5-14.5l0.5,0.1
							c-0.8,4.9-1.9,9.8-3.5,14.6C401.4,493.3,399.5,498,397.2,502.4z"/>
						<polygon class="st4" points="397,502.2 385.3,493.2 397.3,501.8 						"/>
						<path class="st4" d="M370.9,497.8c-7.9-4.4-16.1-9.3-23.9-13.9l-0.1-0.1l0,0c0.1,0.1,0.2-0.1,0.2-0.2l0,0
							c0.2,0.2,0.7,0.8,0.9,1c2.5,3.1,5.3,6.3,7.8,9.4l4.4,5.4l0.5,0.7c0.3,0.5,0.8,0.7,1.4,0.9c1.4,0.5,2.8,0.9,4.1,1.4
							c-1.4-0.4-2.8-0.8-4.2-1.2c-0.6-0.2-1.1-0.5-1.5-1l-0.6-0.7l-4.5-5.3c-2.8-3.2-5.7-6.7-8.5-10l-0.3-0.3l0,0c0,0,0,0-0.1-0.1
							c-0.3-0.4,0.2-0.8,0.6-0.6c0.4,0.2,1,0.6,1.4,0.8C355.9,488.6,363.7,493.3,370.9,497.8L370.9,497.8z"/>
						<path class="st4" d="M378.3,494.2c-4.5-1.6-26-9.1-30-10.5c-0.9-0.3-2.2-0.7-3-1.2c-1-0.5-1.7-1.4-2.3-2.3l-1.9-2.5
							c-0.3-0.4-0.7-0.9-1-1.3c-0.4-0.7-0.5-1.7-0.2-2.5l0.2-0.8c0.3-1,1.1-3.5,1.4-4.5l0.5,0.2l-1,3l-0.5,1.5l-0.2,0.8
							c-0.4,1-0.1,2,0.6,2.7c0.3,0.4,2,2.7,2.4,3.2c0.6,0.8,1.3,1.7,2.2,2.2c0.8,0.5,2.1,0.8,2.9,1.2
							C352.4,484.8,374,492.6,378.3,494.2L378.3,494.2z"/>
						<polygon class="st4" points="406.2,474.5 391.4,474.4 406.2,474 						"/>
						<path class="st4" d="M382.5,462.2c-8.8-0.6-18.1-1.4-26.9-2.2c-0.2,0-0.6-0.1-0.8-0.1c-0.4-0.1-0.5-0.7-0.1-0.8
							c0.1,0,0.1,0,0.1,0l0.4-0.1c4.2-1,8.6-2.1,12.7-3.1l6.8-1.6l0.8-0.2c0.6-0.2,1.2-0.1,1.8,0.1c1.4,0.5,2.8,1,4.1,1.5
							c-1.4-0.4-2.8-0.9-4.2-1.3c-0.5-0.1-1.1-0.2-1.7,0l-0.8,0.2l-6.8,1.8c-3.8,1-8,2-11.8,3c-0.3,0.1-1.1,0.3-1.3,0.3
							c0.1,0,0.1-0.2,0-0.2l0,0h0.1C363.9,460.3,373.5,461.2,382.5,462.2L382.5,462.2z"/>
						<path class="st4" d="M386.4,469.5c-4.6-1.3-26.4-7.6-30.5-8.8c-0.9-0.2-2.1-0.7-3-0.8c-1-0.1-2.1,0.2-3,0.5l-3,0.9
							c-0.4,0.1-1.1,0.3-1.5,0.5s-0.8,0.5-1.1,0.9c-0.3,0.4-0.4,1-0.5,1.4c-0.3,1-1.1,3.5-1.4,4.5l-0.5-0.2c0.3-1,1.2-3.5,1.5-4.5
							l0.2-0.8c0.2-0.8,0.9-1.5,1.7-1.9c0.5-0.2,1.1-0.3,1.5-0.5l3-0.9c1-0.3,2.1-0.6,3.2-0.5c0.9,0.1,2.2,0.6,3.1,0.8
							C359.9,461.6,381.9,468.2,386.4,469.5L386.4,469.5z"/>
					</g>
					<g>
						<path class="st4" d="M380,394.2c-3.5-3.5-7.3-6.8-11.3-9.7c-4-2.9-8.3-5.5-12.7-7.8l0.2-0.5c4.4,2.2,8.7,4.9,12.8,7.8
							c4.1,2.9,7.9,6.2,11.4,9.8L380,394.2z"/>
						<polygon class="st4" points="380.2,394 368,402.3 379.9,393.5 						"/>
						<path class="st4" d="M367.9,417.4c-6.7,6.1-13.8,12.5-20.6,18.5l-0.1,0.1l0,0c0.1-0.1,0-0.2-0.1-0.2l0,0
							c0.3-0.1,1-0.4,1.3-0.5c3.7-1.5,7.6-3.1,11.3-4.5l6.5-2.5l0.8-0.3c0.5-0.2,1-0.6,1.3-1c0.9-1.2,1.7-2.4,2.6-3.5
							c-0.8,1.2-1.6,2.4-2.5,3.6c-0.4,0.5-0.8,0.9-1.4,1.1l-0.8,0.3l-6.4,2.7c-3.9,1.6-8.2,3.3-12.1,5l-0.4,0.2h-0.1c0,0,0,0-0.1,0
							c-0.4,0.1-0.7-0.5-0.3-0.7c0.3-0.3,0.9-0.8,1.2-1.1C354.5,428.8,361.4,422.9,367.9,417.4L367.9,417.4z"/>
						<path class="st4" d="M366.8,409.2c-2.9,3.8-16.7,21.9-19.3,25.3c-0.6,0.7-1.3,1.9-2,2.5c-0.8,0.7-1.9,1.2-2.9,1.5l-3,1.1
							c-0.5,0.1-1,0.4-1.5,0.5c-0.8,0.2-1.8,0-2.4-0.5l-0.6-0.5c-0.8-0.6-3-2.2-3.9-2.8l0.3-0.4l2.6,1.9l1.3,0.9l0.6,0.5
							c0.8,0.7,1.9,0.7,2.8,0.3c0.5-0.2,3.2-1.1,3.8-1.3c1-0.3,2-0.7,2.7-1.4c0.7-0.6,1.4-1.7,2-2.4
							C349.8,431,363.9,412.9,366.8,409.2L366.8,409.2z"/>
						<polygon class="st4" points="356.6,376.7 352,390.7 356.1,376.5 						"/>
						<path class="st4" d="M337.7,395.4c-3.3,8.2-7,16.8-10.4,24.9c-0.1,0.2-0.2,0.6-0.3,0.8c-0.2,0.4-0.8,0.3-0.8-0.2
							c0-0.3,0.1-1.1,0.1-1.4c0.4-6,1-13.1,1.5-19.1l0.1-0.9c0-0.6,0.3-1.2,0.6-1.7c0.9-1.1,1.8-2.3,2.7-3.4
							c-0.8,1.2-1.7,2.4-2.5,3.5c-0.3,0.5-0.5,1-0.6,1.6v0.9l-0.4,7c-0.2,4-0.5,8.2-0.8,12.2c0,0.3-0.1,1.1-0.1,1.4
							c0-0.1-0.2-0.2-0.2-0.1l0,0v-0.1C330.1,412.4,333.9,403.7,337.7,395.4L337.7,395.4z"/>
						<path class="st4" d="M345.8,394c-2.7,4-15.4,22.8-17.8,26.3c-0.5,0.8-1.3,1.8-1.7,2.7c-0.4,0.9-0.5,2-0.5,3c0,0.6,0,3.5-0.1,4
							c-0.1,1,0.2,2,1.1,2.6l0.6,0.5l1.3,0.9l2.6,1.9l-0.3,0.4c-0.9-0.6-3-2.2-3.8-2.8l-0.6-0.5c-0.7-0.5-1.2-1.3-1.3-2.2
							c0-0.5,0-1.1,0-1.6l0.1-3.2c0-1.1,0.1-2.2,0.5-3.2c0.4-0.9,1.2-1.9,1.7-2.7C330.1,416.7,343.1,397.8,345.8,394L345.8,394z"/>
					</g>
					<g>
						<path class="st4" d="M248.1,394.2l-0.4-0.4c3.5-3.5,7.3-6.8,11.4-9.8c4.1-2.9,8.4-5.6,12.8-7.8l0.2,0.5
							c-4.4,2.2-8.7,4.9-12.7,7.8C255.4,387.4,251.6,390.6,248.1,394.2z"/>
						<polygon class="st4" points="272,376.5 276.2,390.7 271.5,376.6 						"/>
						<path class="st4" d="M290.5,395.4c3.8,8.2,7.6,17,11.2,25.3v0.1l0,0c-0.1-0.1-0.2-0.1-0.2,0.1l0,0c0-0.3-0.1-1.1-0.1-1.4
							c-0.3-4-0.6-8.2-0.8-12.2l-0.4-7v-0.9c0-0.6-0.2-1.1-0.6-1.6c-0.8-1.2-1.7-2.4-2.5-3.5c0.9,1.1,1.8,2.3,2.7,3.4
							c0.3,0.5,0.6,1.1,0.6,1.7l0.1,0.9l0.6,7c0.3,4.2,0.7,8.8,1,13v0.4v0.1c0,0,0,0,0,0.1c0,0.5-0.7,0.5-0.8,0.1
							c-0.2-0.4-0.5-1.1-0.6-1.5C297.3,411.7,293.7,403.3,290.5,395.4L290.5,395.4z"/>
						<path class="st4" d="M282.4,393.9c2.7,3.9,15.6,22.6,18.1,26.1c0.5,0.8,1.4,1.8,1.7,2.7c0.5,1,0.5,2.1,0.5,3.2l0.1,3.2
							c0,0.5,0.1,1.1,0,1.6c-0.1,0.9-0.6,1.7-1.3,2.2l-0.6,0.5c-0.8,0.6-3,2.2-3.8,2.8l-0.3-0.4c0.9-0.6,3-2.2,3.9-2.8
							c0.3-0.3,0.9-0.6,1.2-1c0.3-0.4,0.5-0.8,0.6-1.3c0-0.4,0-1.1,0-1.6v-3.2c0-1,0-2.1-0.5-3c-0.3-0.8-1.2-1.9-1.7-2.7
							C297.8,416.8,285,397.8,282.4,393.9L282.4,393.9z"/>
						<polygon class="st4" points="248.3,393.5 260.2,402.3 248,394 						"/>
						<path class="st4" d="M260.3,417.4c6.8,5.7,13.8,11.8,20.5,17.6c0.2,0.1,0.5,0.4,0.6,0.5c0.3,0.3,0,0.8-0.4,0.7
							c-0.3-0.1-1-0.4-1.3-0.5c-5.6-2.3-12.1-5-17.7-7.3l-0.8-0.3c-0.6-0.2-1-0.6-1.4-1.1c-0.8-1.2-1.6-2.4-2.5-3.6
							c0.9,1.2,1.7,2.3,2.6,3.5c0.4,0.4,0.8,0.8,1.3,1l0.8,0.3l6.5,2.5c3.7,1.4,7.6,3.1,11.3,4.5c0.3,0.1,1,0.4,1.3,0.5
							c-0.1,0-0.2,0.1-0.1,0.2l0,0l-0.1-0.1C274.1,429.9,266.9,423.5,260.3,417.4L260.3,417.4z"/>
						<path class="st4" d="M261.4,409.2c2.9,3.8,16.9,21.7,19.5,25c0.6,0.7,1.3,1.8,2,2.4c0.8,0.7,1.8,1.1,2.7,1.4
							c0.5,0.2,3.3,1.1,3.8,1.3c0.9,0.4,2,0.4,2.8-0.3l0.6-0.5l1.3-0.9l2.6-1.9l0.3,0.4c-0.9,0.6-3,2.2-3.9,2.8l-0.6,0.5
							c-0.7,0.5-1.6,0.7-2.4,0.5c-0.5-0.1-1.1-0.4-1.5-0.5l-3-1.1c-1-0.3-2.1-0.7-2.9-1.5c-0.7-0.6-1.4-1.7-2-2.5
							C278.1,431.1,264.2,412.9,261.4,409.2L261.4,409.2z"/>
					</g>
					<g>
						<path class="st4" d="M230.9,502.4c-2.3-4.4-4.2-9.1-5.8-13.9c-1.5-4.8-2.7-9.7-3.5-14.6l0.5-0.1c0.8,4.9,1.9,9.8,3.5,14.5
							c1.5,4.7,3.5,9.4,5.7,13.8L230.9,502.4z"/>
						<polygon class="st4" points="222,473.9 236.8,474.3 222,474.5 						"/>
						<path class="st4" d="M245.7,462.2c9-1,18.5-2,27.5-2.8h0.1c0,0,0.1,0,0,0s-0.1,0.2,0,0.2l0,0c-0.3-0.1-1-0.3-1.3-0.3
							c-3.9-1-8-2-11.8-3l-6.8-1.8l-0.8-0.2c-0.5-0.2-1.1-0.1-1.7,0c-1.4,0.4-2.8,0.9-4.2,1.3c1.4-0.5,2.7-1,4.1-1.5
							c0.6-0.2,1.2-0.3,1.8-0.1l0.8,0.2l6.8,1.6c4.1,1,8.6,2.1,12.7,3.1l0.4,0.1h0.1c0,0,0,0,0.1,0c0.4,0.2,0.3,0.8-0.2,0.8
							c-0.4,0-1.2,0.1-1.6,0.1C263.3,460.8,254.2,461.6,245.7,462.2L245.7,462.2z"/>
						<path class="st4" d="M241.8,469.5c4.6-1.4,26.4-7.9,30.4-9.1c0.9-0.2,2.2-0.7,3.1-0.8c1.1-0.1,2.2,0.2,3.2,0.5l3,0.9
							c0.5,0.2,1.1,0.3,1.5,0.5c0.8,0.3,1.4,1.1,1.7,1.9l0.2,0.8c0.3,1,1.2,3.5,1.5,4.5l-0.5,0.2c-0.3-1-1.1-3.6-1.4-4.5
							c-0.2-0.4-0.3-1.1-0.5-1.4c-0.3-0.4-0.6-0.7-1.1-0.9c-0.4-0.2-1.1-0.3-1.5-0.5l-3-0.9c-1-0.3-2-0.6-3-0.5
							c-0.9,0.1-2.2,0.6-3,0.8C268.3,461.9,246.2,468.2,241.8,469.5L241.8,469.5z"/>
						<polygon class="st4" points="230.8,501.8 242.9,493.2 231.2,502.2 						"/>
						<path class="st4" d="M257.2,497.8c7.5-4.7,15.5-9.5,23.1-14c0.2-0.1,0.5-0.3,0.7-0.4c0.4-0.2,0.8,0.3,0.5,0.6
							c0,0.1,0,0.1-0.1,0.1l-0.3,0.3c-2.8,3.3-5.7,6.7-8.5,10l-4.5,5.3l-0.6,0.7c-0.4,0.5-0.9,0.8-1.5,1c-1.4,0.4-2.8,0.8-4.2,1.2
							c1.4-0.5,2.8-0.9,4.1-1.4c0.5-0.2,1-0.5,1.4-0.9l0.5-0.7l4.4-5.4c2.5-3.1,5.3-6.3,7.8-9.4c0.2-0.2,0.7-0.9,0.9-1.1
							c-0.1,0.1,0,0.2,0.2,0.2l0,0L281,484C273.4,488.5,265.1,493.3,257.2,497.8L257.2,497.8z"/>
						<path class="st4" d="M249.8,494.2c4.5-1.6,25.9-9.4,29.9-10.8c0.9-0.3,2.1-0.7,2.9-1.2c0.9-0.5,1.6-1.4,2.2-2.2
							c0.3-0.5,2.1-2.8,2.4-3.2c0.7-0.8,1-1.8,0.6-2.7l-0.2-0.8l-0.5-1.5l-1-3l0.5-0.2c0.3,1,1.1,3.6,1.4,4.5l0.2,0.8
							c0.3,0.8,0.2,1.8-0.2,2.5c-0.3,0.4-0.7,0.9-1,1.3l-1.9,2.5c-0.6,0.9-1.3,1.7-2.3,2.3c-0.8,0.5-2.1,0.8-3,1.2
							C275.8,485,254.2,492.6,249.8,494.2L249.8,494.2z"/>
					</g>
				</g>
				<g>
					<g>
						<path class="st4" d="M302.5,383.6c-0.9-1.2-3.2-4.1-4-5.2l-0.7-0.9c-0.4-0.6-0.9-1.1-1.6-1.4c-1.8-0.8-5.1-2.4-6.9-3.3
							l-0.2-0.1c1-0.5,2.1-0.9,3.2-1.2c5-1.6,10.3-2.3,15.5-2.6c1.8-0.1,4.4-0.2,6.3-0.2v0.5H311c-5.7,0.2-11.6,0.7-17.1,2.1
							c-1.5,0.4-3,0.9-4.5,1.5v-0.2l3.9,1.9l2,1l1,0.5c0.7,0.3,1.2,0.8,1.7,1.4C299.1,379.1,301.3,382,302.5,383.6L302.5,383.6z"/>
						<path class="st4" d="M325.5,383.6c1.2-1.6,3.4-4.5,4.6-6.1c0.4-0.6,1-1.2,1.7-1.4l1-0.5c1.3-0.6,4.6-2.3,5.9-2.9v0.2
							c-1.4-0.6-2.9-1.1-4.5-1.5c-5.6-1.4-11.4-2-17.1-2.1H314v-0.5c1.9,0,4.5,0.1,6.3,0.2c5.2,0.4,10.5,1.1,15.5,2.6
							c1.1,0.3,2.1,0.7,3.2,1.2l-0.2,0.1c-1.8,0.9-5.1,2.4-6.9,3.3c-0.7,0.3-1.2,0.8-1.6,1.4l-0.7,0.9
							C328.7,379.6,326.4,382.5,325.5,383.6L325.5,383.6z"/>
					</g>
					<g>
						<path class="st4" d="M238.2,447.2c-1.4,0.5-4.9,1.8-6.2,2.2l-1,0.4c-0.7,0.2-1.3,0.5-1.8,1.1c-1.4,1.4-3.9,4.1-5.3,5.6
							l-0.2,0.2c-0.2-1.1-0.2-2.3-0.2-3.4c0.1-5.3,1-10.5,2.3-15.6c0.4-1.8,1.2-4.3,1.7-6.1l0.5,0.2l-0.9,3
							c-1.6,5.5-2.9,11.2-3.3,16.9c-0.1,1.6-0.1,3.1,0,4.7l-0.2-0.1l3.1-3.1l1.5-1.6l0.8-0.8c0.5-0.6,1.2-0.9,1.9-1.1
							C232.8,449,236.3,447.8,238.2,447.2L238.2,447.2z"/>
						<path class="st4" d="M245.3,425.3c-1.2-1.7-3.2-4.7-4.4-6.3c-0.5-0.6-0.8-1.3-0.8-2l-0.2-1.1c-0.2-1.4-0.7-5.1-0.9-6.5
							l0.2,0.1c-1,1.2-1.9,2.5-2.8,3.8c-3.1,4.9-5.4,10.2-7.3,15.6l-1,3l-0.5-0.2c0.6-1.8,1.5-4.2,2.2-5.9c2-4.9,4.3-9.7,7.3-14
							c0.7-0.9,1.3-1.8,2.1-2.6v0.2c0.3,2,0.7,5.6,1,7.6c0,0.7,0.4,1.4,0.8,2l0.6,0.9C242.4,421,244.5,424.1,245.3,425.3
							L245.3,425.3z"/>
					</g>
					<g>
						<path class="st4" d="M278.7,528c0,1.5,0.2,5.2,0.2,6.6v1.1c0,0.7,0.1,1.4,0.5,2.1c1,1.7,2.7,5,3.7,6.7l0.1,0.2
							c-1.1-0.2-2.2-0.5-3.3-0.9c-5-1.7-9.7-4.2-14.1-7c-1.6-1-3.7-2.5-5.2-3.5l0.3-0.4l2.6,1.8c4.7,3.2,9.8,6.2,15.1,8.3
							c1.5,0.6,3,1.1,4.5,1.4l-0.1,0.2c-0.7-1.3-2.4-4.6-3.1-5.8l-0.5-1c-0.4-0.6-0.5-1.4-0.5-2.1C278.9,533.6,278.8,530,278.7,528
							L278.7,528z"/>
						<path class="st4" d="M260.1,514.4c-2,0.6-5.4,1.6-7.4,2.2c-0.7,0.3-1.5,0.4-2.2,0.2l-1.1-0.2c-1.4-0.2-5.1-0.9-6.5-1.1
							l0.1-0.2c0.8,1.4,1.7,2.6,2.7,3.8c3.7,4.4,8.1,8.3,12.6,11.8l2.5,1.9l-0.3,0.4c-1.5-1.1-3.6-2.7-5-3.9c-4-3.4-7.9-7.1-11-11.3
							c-0.7-0.9-1.3-1.8-1.9-2.9h0.2c2,0.4,5.6,1,7.6,1.4c0.7,0.2,1.4,0.1,2.1-0.2l1.1-0.3C255.2,515.9,258.7,514.8,260.1,514.4
							L260.1,514.4z"/>
					</g>
					<g>
						<path class="st4" d="M368.1,514.4c1.4,0.4,5,1.4,6.3,1.8l1.1,0.3c0.7,0.2,1.4,0.3,2.1,0.2c2-0.4,5.6-1,7.6-1.4h0.2
							c-0.5,1-1.2,1.9-1.9,2.9c-3.1,4.2-7,7.9-11,11.3c-1.4,1.2-3.5,2.8-5,3.9l-0.3-0.4l2.5-1.9c4.5-3.5,8.9-7.3,12.6-11.8
							c1-1.2,2-2.5,2.7-3.8l0.1,0.2c-1.5,0.3-5.1,0.9-6.5,1.1l-1.1,0.2c-0.7,0.2-1.5,0.1-2.2-0.2C373.6,516,370,515,368.1,514.4
							L368.1,514.4z"/>
						<path class="st4" d="M349.5,527.9c0,2-0.1,5.7-0.1,7.7c0,0.7-0.1,1.5-0.5,2.1l-0.5,1c-0.7,1.2-2.4,4.5-3.1,5.8l-0.1-0.2
							c1.5-0.3,3-0.9,4.5-1.4c5.4-2.1,10.4-5.1,15.1-8.3l2.6-1.8l0.3,0.4c-1.5,1.1-3.7,2.5-5.2,3.5c-4.4,2.8-9.2,5.3-14.1,7
							c-1.1,0.4-2.2,0.7-3.3,0.9l0.1-0.2c1-1.8,2.7-5,3.7-6.7c0.4-0.6,0.5-1.3,0.5-2.1v-1.1C349.3,533.1,349.4,529.3,349.5,527.9
							L349.5,527.9z"/>
					</g>
					<g>
						<path class="st4" d="M382.8,425.2c0.8-1.2,2.9-4.3,3.7-5.4l0.6-0.9c0.4-0.6,0.8-1.2,0.8-2c0.3-2,0.7-5.6,1-7.6v-0.2
							c0.8,0.8,1.5,1.7,2.1,2.6c3,4.3,5.4,9.1,7.3,14c0.7,1.7,1.6,4.2,2.2,5.9l-0.5,0.2l-1-3c-1.9-5.4-4.2-10.8-7.3-15.6
							c-0.9-1.3-1.7-2.6-2.8-3.8l0.2-0.1l-0.6,4.3l-0.3,2.2l-0.2,1.1c0,0.7-0.4,1.4-0.8,2C386,420.5,384,423.5,382.8,425.2
							L382.8,425.2z"/>
						<path class="st4" d="M389.9,447.1c1.9,0.7,5.4,1.9,7.3,2.5c0.7,0.2,1.4,0.6,1.9,1.1l0.8,0.8c1,1,3.6,3.7,4.6,4.7l-0.2,0.1
							c0.2-1.5,0.1-3.1,0-4.7c-0.4-5.7-1.6-11.4-3.3-16.9l-0.9-3l0.5-0.2c0.5,1.8,1.3,4.3,1.7,6.1c1.3,5.1,2.2,10.3,2.3,15.6
							c0,1.1,0,2.3-0.2,3.4l-0.2-0.2c-1.4-1.5-3.9-4.1-5.3-5.6c-0.5-0.6-1.1-0.9-1.8-1.1l-1-0.4
							C394.8,448.8,391.3,447.6,389.9,447.1L389.9,447.1z"/>
					</g>
				</g>
				<g>
					<g>
						<path class="st4" d="M312.3,417.7c0,0-0.8,6.4-0.8,6.3c0,4.2,0.1,13,0.2,17.1v0.7v0.3c0,0.1,0,0.1,0,0.1
							c0.1,0.2,0.2,0.2,0.4,0.2c0.4,0,1.5,0,2,0v0.5c-0.4,0-1.6,0-2,0c-0.5,0.1-0.9-0.3-0.9-0.8v-0.3c0-0.4,0-1.5,0-2
							c0-3.4,0.1-12.3,0.2-15.8C311.4,424,312.3,417.7,312.3,417.7L312.3,417.7z"/>
						<path class="st4" d="M315.8,417.7l0.9,6.3c0,3.5,0.1,12.4,0.2,15.8c0,0.4,0,1.6,0,2v0.3c0,0.5-0.4,0.9-0.9,0.8
							c-0.4,0-1.5,0-2,0v-0.5c0.4,0,1.6,0,2,0c0.2,0,0.4-0.1,0.4-0.3c0,0,0,0,0-0.1v-0.3V441c0-4.1,0.1-12.9,0.2-17.1
							C316.6,424,315.8,417.7,315.8,417.7L315.8,417.7z"/>
					</g>
					<g>
						<path class="st4" d="M273.6,448.4l5.8,2.7c4,1.3,12.4,3.9,16.3,5.1l0.6,0.2l0.3,0.1c0.1,0,0.1,0,0.1,0c0.2,0,0.3-0.1,0.3-0.3
							c0.1-0.4,0.5-1.5,0.6-1.9l0.5,0.2c-0.1,0.4-0.5,1.5-0.6,1.9c-0.1,0.5-0.6,0.8-1.1,0.6l-0.3-0.1c-0.4-0.1-1.5-0.5-1.9-0.6
							c-3.2-1.1-11.7-3.9-15-5C279.3,451.2,273.6,448.4,273.6,448.4L273.6,448.4z"/>
						<path class="st4" d="M274.7,445l6.3,1.1c3.4,1.1,11.8,3.7,15.1,4.7c0.4,0.1,1.5,0.5,1.9,0.6l0.3,0.1c0.5,0.1,0.7,0.7,0.5,1.1
							c-0.1,0.4-0.5,1.5-0.6,1.9l-0.5-0.2c0.1-0.4,0.5-1.5,0.6-1.9c0.1-0.2,0.1-0.4-0.1-0.5c0,0,0,0-0.1,0l-0.3-0.1l-0.6-0.2
							c-3.9-1.3-12.3-4.1-16.2-5.5C281,446.2,274.7,445,274.7,445L274.7,445z"/>
					</g>
					<g>
						<path class="st4" d="M290.8,494.7l4.4-4.7c2.5-3.5,7.5-10.6,9.9-13.9l0.4-0.5l0.2-0.3c0,0,0-0.1,0.1-0.1
							c0.1-0.2,0-0.3-0.2-0.4c-0.3-0.2-1.3-0.9-1.6-1.1l0.3-0.4c0.4,0.3,1.2,0.9,1.6,1.2c0.4,0.2,0.5,0.8,0.2,1.2l-0.2,0.3
							c-0.2,0.3-0.9,1.2-1.2,1.6c-2,2.7-7.4,9.9-9.4,12.7C295.3,490.1,290.8,494.7,290.8,494.7L290.8,494.7z"/>
						<path class="st4" d="M288,492.6l3-5.7c2-2.9,7.2-10.1,9.2-12.9c0.2-0.3,0.9-1.3,1.1-1.6l0.2-0.3c0.2-0.4,0.9-0.5,1.2-0.1
							c0.3,0.2,1.3,0.9,1.6,1.1l-0.3,0.4c-0.4-0.3-1.2-0.9-1.6-1.2c-0.2-0.2-0.3-0.2-0.5,0l0,0l-0.2,0.3l-0.4,0.5
							c-2.4,3.3-7.7,10.4-10.2,13.8C291.1,487,288,492.6,288,492.6L288,492.6z"/>
					</g>
					<g>
						<path class="st4" d="M340.2,492.6l-3.1-5.6c-2.5-3.4-7.7-10.4-10.2-13.8l-0.4-0.5l-0.2-0.3c0,0,0-0.1-0.1-0.1
							c-0.2-0.1-0.3-0.1-0.4,0.1c-0.3,0.2-1.2,0.9-1.6,1.2l-0.3-0.4c0.4-0.3,1.3-0.9,1.6-1.1c0.4-0.3,0.9-0.3,1.2,0.1l0.2,0.3
							c0.2,0.3,0.9,1.3,1.1,1.6c1.9,2.7,7.2,10.1,9.2,12.9C337.2,486.9,340.2,492.6,340.2,492.6L340.2,492.6z"/>
						<path class="st4" d="M337.3,494.6l-4.5-4.6c-2.1-2.8-7.4-10-9.4-12.7c-0.3-0.3-0.9-1.3-1.2-1.6l-0.2-0.3
							c-0.3-0.4-0.2-1,0.2-1.2c0.3-0.3,1.2-0.9,1.6-1.2l0.3,0.4c-0.4,0.3-1.3,0.9-1.6,1.1c-0.2,0.1-0.3,0.3-0.2,0.4c0,0,0,0,0,0.1
							l0.2,0.3l0.4,0.5c2.4,3.3,7.5,10.5,9.9,13.9C333,490,337.3,494.6,337.3,494.6L337.3,494.6z"/>
					</g>
					<g>
						<path class="st4" d="M353.5,445l-6.3,1.2c-4,1.4-12.3,4.1-16.2,5.5l-0.6,0.2L330,452c-0.1,0-0.1,0-0.1,0
							c-0.2,0.1-0.2,0.2-0.1,0.4c0.1,0.4,0.5,1.5,0.6,1.9l-0.5,0.2c-0.1-0.4-0.5-1.5-0.6-1.9c-0.2-0.4,0-1,0.5-1.1l0.3-0.1
							c0.4-0.1,1.5-0.5,1.9-0.6c3.2-1,11.8-3.7,15.1-4.7C347.2,446.1,353.5,445,353.5,445L353.5,445z"/>
						<path class="st4" d="M354.5,448.3l-5.7,2.8c-3.3,1.1-11.8,4-15,5c-0.4,0.1-1.5,0.5-1.9,0.6l-0.3,0.1c-0.4,0.2-1-0.1-1.1-0.6
							c-0.1-0.4-0.5-1.5-0.6-1.9l0.5-0.2c0.1,0.4,0.5,1.5,0.6,1.9c0,0.2,0.2,0.3,0.4,0.3c0,0,0,0,0.1,0l0.3-0.1l0.6-0.2
							c3.9-1.2,12.3-3.9,16.3-5.1C348.7,451.1,354.5,448.3,354.5,448.3L354.5,448.3z"/>
					</g>
				</g>
			</g>
			<g>
				<circle class="st2" cx="299.4" cy="444.9" r="6.8"/>
				<circle class="st2" cx="299.3" cy="474.3" r="6.8"/>
				<circle class="st2" cx="328.7" cy="474.4" r="6.8"/>
				<circle class="st2" cx="328.8" cy="445" r="6.8"/>
			</g>
		</g>
	</g>
	<g>
		<path class="st2" d="M1354.2,338.4c-67,0-121.3,54.3-121.3,121.3S1287.2,581,1354.2,581s121.3-54.3,121.3-121.3
			S1421.2,338.4,1354.2,338.4z M1354.2,548.6c-49.1,0-88.9-39.8-88.9-88.9s39.8-88.9,88.9-88.9s88.9,39.8,88.9,88.9
			S1403.3,548.6,1354.2,548.6z"/>
		<circle class="st1" cx="1354.2" cy="459.7" r="60.4"/>
		<g>
			<path class="st3" d="M1354.2,364.1c-52.8,0-95.6,42.8-95.6,95.6s42.8,95.6,95.6,95.6c52.8,0,95.6-42.8,95.6-95.6
				S1407,364.1,1354.2,364.1z M1416.4,433.9l6.5-8.7c0.2-0.3,0.5-0.5,0.9-0.6c0.9-0.3,1.8,0.1,2.2,0.9c1.5,3.1,2.7,6.3,3.8,9.6l0,0
				l0,0l0,0l0,0c1.1,3.3,1.9,6.6,2.5,10c0.2,0.9-0.4,1.8-1.2,2c-0.4,0.1-0.7,0.1-1.1,0l-10.4-3.3c-2.3-0.7-4.8-0.8-7.1-0.2
				l-17.9,4.6c-0.3,0.1-0.7-0.1-0.8-0.4l-0.3-1v-0.1l-0.3-1c-0.1-0.3,0.1-0.7,0.4-0.8l17.2-6.8C1413,437.4,1415,435.9,1416.4,433.9z
				 M1343.9,380.8c3.4-0.4,6.8-0.7,10.3-0.7l0,0l0,0l0,0l0,0c3.5,0,6.9,0.2,10.3,0.7c0.9,0.1,1.6,0.9,1.6,1.8c0,0.4-0.1,0.7-0.3,1
				l-6.3,8.9c-1.4,2-2.2,4.3-2.4,6.7l-1.1,18.4c0,0.3-0.3,0.6-0.6,0.6h-1.1h-0.1h-1.1c-0.3,0-0.6-0.3-0.6-0.6l-1.1-18.4
				c-0.1-2.4-1-4.8-2.4-6.7l-6.3-8.9c-0.2-0.3-0.3-0.7-0.3-1C1342.3,381.7,1343,380.9,1343.9,380.8z M1276,445.1
				c0.6-3.3,1.5-6.7,2.5-10l0,0l0,0l0,0l0,0c1.1-3.3,2.4-6.5,3.8-9.6c0.4-0.8,1.3-1.2,2.2-0.9c0.4,0.1,0.7,0.3,0.9,0.6l6.5,8.7
				c1.4,1.9,3.4,3.5,5.7,4.3l17.2,6.8c0.3,0.1,0.5,0.5,0.4,0.8l-0.3,1v0.1l-0.3,1c-0.1,0.3-0.4,0.5-0.8,0.4l-17.9-4.6
				c-2.3-0.6-4.8-0.5-7.1,0.2l-10.4,3.3c-0.4,0.1-0.7,0.1-1.1,0C1276.4,446.9,1275.8,446,1276,445.1z M1286.7,493.4l-3.7-0.2
				c-0.6,0-1.1-0.4-1.3-0.9c-1.2-2.6-2.2-5.3-3.1-8l0,0l0,0l0,0l0,0c-0.9-2.8-1.6-5.5-2.2-8.3c-0.1-0.6,0.1-1.1,0.5-1.5l2.9-2.3
				c1.1-0.9,2.4-1.6,3.8-1.9l29.2-8.3c0.8-0.2,1.6-0.2,2.3,0.1l5.5,2.1c1.1,0.4,1.9,1.3,2.2,2.4l1,3.2v0.1l1,3.2
				c0.4,1.1,0.2,2.3-0.4,3.2l-3.2,4.9c-0.4,0.7-1.1,1.2-1.8,1.5l-28.5,10.5C1289.5,493.2,1288.1,493.4,1286.7,493.4z M1330.9,494.7
				l-9.9,15.6c-1.3,2-2,4.4-2,6.8l-0.1,10.9c0,0.4-0.1,0.7-0.3,1c-0.5,0.7-1.5,1-2.3,0.5c-3-1.6-5.9-3.5-8.7-5.5l0,0l0,0l0,0l0,0
				c-2.8-2-5.5-4.2-7.9-6.6c-0.7-0.6-0.8-1.6-0.2-2.4c0.2-0.3,0.5-0.5,0.9-0.6l10.3-3.5c2.3-0.8,4.3-2.2,5.9-4l11.7-14.3
				c0.2-0.3,0.6-0.3,0.9-0.1l0.9,0.6l0,0l0.9,0.6C1331.1,494,1331.1,494.4,1330.9,494.7z M1339.9,423.1l-0.3,5.8
				c-0.1,1.1-0.6,2.2-1.5,2.9l-2.7,2l0,0l-2.7,2c-0.9,0.7-2.1,0.9-3.2,0.6l-5.6-1.5c-0.8-0.2-1.5-0.7-1.9-1.3l-18.7-23.8
				c-0.9-1.1-1.5-2.4-1.9-3.8l-1-3.6c-0.1-0.6,0-1.2,0.5-1.5c2.1-1.9,4.3-3.7,6.7-5.4l0,0l0,0l0,0l0,0c2.4-1.7,4.8-3.3,7.2-4.7
				c0.5-0.3,1.1-0.3,1.6,0l3.1,2c1.2,0.8,2.2,1.8,3,3l16.9,25.2C1339.8,421.5,1340,422.3,1339.9,423.1z M1365.4,534.3l-1.3,3.5
				c-0.2,0.5-0.7,0.9-1.3,1c-2.8,0.3-5.7,0.5-8.6,0.5l0,0l0,0l0,0l0,0c-2.9,0-5.8-0.2-8.6-0.5c-0.6-0.1-1.1-0.4-1.3-1l-1.3-3.5
				c-0.5-1.3-0.7-2.7-0.7-4.2l1.2-30.3c0-0.8,0.3-1.6,0.8-2.2l3.7-4.5c0.7-0.9,1.8-1.4,2.9-1.4h3.3h0.1h3.3c1.1,0,2.2,0.5,2.9,1.4
				l3.7,4.5c0.5,0.6,0.8,1.4,0.8,2.2l1.2,30.3C1366.1,531.5,1365.9,532.9,1365.4,534.3z M1373.1,433.8L1373.1,433.8l-2.7-2
				c-0.9-0.7-1.5-1.7-1.5-2.9l-0.3-5.8c0-0.8,0.2-1.6,0.6-2.2l16.9-25.2c0.8-1.2,1.8-2.2,3-3l3.1-2c0.5-0.3,1.1-0.3,1.6,0
				c2.5,1.4,4.9,3,7.2,4.7l0,0l0,0l0,0l0,0c2.3,1.7,4.6,3.5,6.7,5.4c0.4,0.4,0.6,1,0.5,1.5l-1,3.6c-0.4,1.4-1,2.7-1.9,3.8
				l-18.7,23.8c-0.5,0.6-1.2,1.1-1.9,1.3l-5.6,1.5c-1.1,0.3-2.3,0.1-3.2-0.6L1373.1,433.8z M1408.9,517.4c-2.5,2.3-5.1,4.5-7.9,6.6
				l0,0l0,0l0,0l0,0c-2.8,2-5.7,3.9-8.7,5.5c-0.8,0.4-1.8,0.2-2.3-0.5c-0.2-0.3-0.3-0.7-0.3-1l-0.1-10.9c0-2.4-0.7-4.8-2-6.8
				l-9.9-15.6c-0.2-0.3-0.1-0.7,0.2-0.9l0.9-0.6l0,0l0.9-0.6c0.3-0.2,0.7-0.2,0.9,0.1l11.7,14.3c1.5,1.9,3.6,3.3,5.9,4l10.3,3.5
				c0.4,0.1,0.7,0.3,0.9,0.6C1409.6,515.7,1409.6,516.8,1408.9,517.4z M1432,475.9c-0.6,2.8-1.3,5.6-2.2,8.3l0,0l0,0l0,0l0,0
				c-0.9,2.8-1.9,5.4-3.1,8c-0.2,0.5-0.8,0.9-1.3,0.9l-3.7,0.2c-1.4,0.1-2.8-0.1-4.2-0.6l-28.5-10.5c-0.7-0.3-1.4-0.8-1.8-1.5
				l-3.2-4.9c-0.6-1-0.8-2.1-0.4-3.2l1-3.2v-0.1l1-3.2c0.4-1.1,1.2-2,2.2-2.4l5.5-2.1c0.7-0.3,1.6-0.3,2.3-0.1l29.2,8.3
				c1.4,0.4,2.6,1.1,3.8,1.9l2.9,2.3C1431.9,474.8,1432.1,475.4,1432,475.9z"/>
			<g>
				<path class="st4" d="M1329.1,394.3c0.9,0.9,2.1,1.5,3.4,1.6l4,0.3c0.6,0,1-0.4,1-1c0-0.3-0.1-0.6-0.3-0.9l-15.2-20.2
					c-0.1-0.2-0.2-0.4-0.2-0.7c0-0.5,0.3-0.9,0.7-1c9.9-3.6,20.6-5.6,31.7-5.6s21.8,2,31.7,5.6c0.4,0.2,0.7,0.6,0.7,1
					c0,0.2-0.1,0.5-0.2,0.7l-15.2,20.2c-0.2,0.3-0.3,0.6-0.3,0.9c0,0.6,0.5,1,1,1l4-0.3c1.3-0.1,2.5-0.7,3.4-1.6l18.4-19.4
					c0.1-0.1,0.1-0.3-0.1-0.4c-13-6.7-27.8-10.4-43.4-10.4s-30.4,3.8-43.4,10.4c-0.2,0.1-0.2,0.3-0.1,0.4L1329.1,394.3z"/>
				<path class="st4" d="M1286.8,460.6l1.5-3.7c0.2-0.5-0.1-1.1-0.6-1.3c-0.3-0.1-0.6-0.1-0.9,0l-23.9,8.2c-0.2,0.1-0.5,0.1-0.7,0
					c-0.4-0.1-0.7-0.5-0.8-1c-0.4-10.5,1.1-21.3,4.5-31.9s8.6-20.1,15.1-28.4c0.3-0.4,0.8-0.5,1.2-0.4c0.2,0.1,0.4,0.2,0.6,0.4
					l14.5,20.7c0.2,0.3,0.4,0.5,0.7,0.5c0.5,0.2,1.1-0.1,1.2-0.7l0.9-3.9c0.3-1.2,0.1-2.6-0.5-3.7l-12.8-23.5
					c-0.1-0.1-0.3-0.2-0.4-0.1c-10.4,10.3-18.5,23.2-23.3,38.1s-5.8,30.1-3.5,44.5c0,0.2,0.2,0.3,0.4,0.2l24.2-11.5
					C1285.4,462.8,1286.4,461.8,1286.8,460.6z"/>
				<path class="st4" d="M1342.5,450.8c0.4-0.1,0.8-0.2,1.1-0.5l2.5-1.8l2.5-1.8c0.3-0.3,0.6-0.6,0.8-0.9l0.1-0.1
					c0.2-0.2,0.2-0.4,0.2-0.6v-0.4c0-0.1,0-0.2,0-0.4l-0.1-2.7l-1.4-41.7c-0.1-2.9-1.1-5.6-2.9-7.8l-15.9-19.4
					c-0.3-0.4-0.9-0.6-1.4-0.4c-0.9,0.3-1.9,0.6-2.8,0.9c-0.3,0.1-0.4,0.3-0.4,0.6c0,0.1,0,0.3,0.1,0.4c1.5,1.9,14.7,18.8,16.9,23.6
					c2.1,4.3,4.9,38.7,5.6,47.6c-0.2,0.3-0.5,0.7-0.8,0.9l-1.4,1l-1.4,1c-0.3,0.2-0.7,0.4-1.1,0.5c-8.3-3.4-40-16.7-43.5-20
					c-3.8-3.6-15.9-21.4-17.2-23.4c-0.1-0.1-0.2-0.2-0.3-0.2c-0.3-0.1-0.5,0-0.7,0.2c-0.6,0.8-1.1,1.6-1.7,2.4c-0.3,0.4-0.3,1,0,1.4
					l13.6,21.1c1.5,2.4,3.8,4.2,6.5,5.2l39.2,14.2l2.5,0.9c0.1,0,0.2,0.1,0.4,0.1l0.3,0.1c0.2,0.1,0.4,0.1,0.6,0L1342.5,450.8z"/>
				<path class="st4" d="M1336.1,527.3c-0.2-1.3-0.8-2.4-1.8-3.3l-3-2.6c-0.4-0.4-1.1-0.3-1.4,0.2c-0.2,0.3-0.3,0.6-0.3,0.9
					l0.4,25.3c0,0.2-0.1,0.5-0.2,0.7c-0.3,0.4-0.8,0.5-1.2,0.4c-10.1-2.9-19.9-7.6-28.9-14.1s-16.5-14.4-22.4-23.1
					c-0.3-0.4-0.2-0.9,0-1.3c0.1-0.2,0.3-0.3,0.6-0.4l24.2-7.4c0.3-0.1,0.6-0.3,0.8-0.5c0.3-0.5,0.2-1.1-0.3-1.4l-3.4-2.1
					c-1.1-0.7-2.4-0.9-3.7-0.7l-26.3,4.9c-0.2,0-0.3,0.2-0.2,0.4c6.6,13.1,16.4,24.8,29,34c12.7,9.2,26.8,14.8,41.3,17.1
					c0.2,0,0.3-0.1,0.3-0.3L1336.1,527.3z"/>
				<path class="st4" d="M1307.8,502.5c-4.6,2.5-25.3,8.5-27.5,9.1c-0.1,0-0.2,0.1-0.3,0.2c-0.2,0.2-0.2,0.5,0,0.7
					c0.6,0.8,1.1,1.6,1.7,2.4c0.3,0.4,0.9,0.6,1.4,0.5l24.2-6.4c2.8-0.7,5.2-2.3,7-4.6l25.6-32.9l1.7-2.1c0.1-0.1,0.1-0.2,0.2-0.3
					l0.2-0.3c0.1-0.2,0.2-0.4,0.2-0.6v-0.1c0.1-0.4,0-0.8-0.1-1.2l-0.9-2.9l-0.9-2.9c-0.1-0.4-0.4-0.8-0.6-1.1l-0.1-0.1
					c-0.1-0.2-0.3-0.3-0.5-0.4l-0.4-0.1c-0.1,0-0.2-0.1-0.4-0.1l-2.6-0.7l-40.1-11.6c-2.7-0.8-5.7-0.7-8.3,0.4l-23.4,9.1
					c-0.5,0.2-0.8,0.7-0.8,1.2c0,1,0,2,0,2.9c0,0.3,0.2,0.5,0.4,0.6c0.1,0,0.3,0,0.4,0c2.2-0.8,22.5-8.1,27.6-8.8
					c4.8-0.6,38.3,7.3,47,9.4c0.3,0.3,0.5,0.6,0.6,1l0.5,1.7l0.5,1.7c0.1,0.4,0.2,0.8,0.1,1.2C1334.5,474,1312,500.2,1307.8,502.5z"
					/>
				<path class="st4" d="M1439.2,502.7l-26.3-4.9c-1.3-0.2-2.6,0-3.7,0.7l-3.4,2.1c-0.5,0.3-0.6,0.9-0.3,1.4
					c0.2,0.3,0.4,0.4,0.8,0.5l24.2,7.4c0.2,0.1,0.4,0.2,0.6,0.4c0.3,0.4,0.3,0.9,0,1.3c-5.9,8.7-13.4,16.6-22.4,23.1
					s-18.8,11.2-28.9,14.1c-0.4,0.1-0.9,0-1.2-0.4c-0.1-0.2-0.2-0.4-0.2-0.7l0.4-25.3c0-0.3-0.1-0.6-0.3-0.9c-0.3-0.5-1-0.5-1.4-0.2
					l-3,2.6c-1,0.8-1.6,2-1.8,3.3l-3.5,26.6c0,0.2,0.1,0.3,0.3,0.3c14.5-2.3,28.6-7.9,41.3-17.1c12.7-9.2,22.4-20.9,29-34
					C1439.5,502.9,1439.4,502.7,1439.2,502.7z"/>
				<path class="st4" d="M1380.6,517c1,5.1,0.2,26.6,0.2,29c0,0.1,0,0.3,0.1,0.4c0.2,0.2,0.4,0.3,0.7,0.2c0.9-0.3,1.9-0.6,2.8-0.9
					c0.5-0.2,0.8-0.6,0.9-1.1l1.4-25c0.2-2.9-0.6-5.7-2.2-8l-23.4-34.5l-1.5-2.2c-0.1-0.1-0.1-0.2-0.2-0.3l-0.2-0.3
					c-0.1-0.2-0.3-0.3-0.5-0.3h-0.1c-0.4-0.2-0.8-0.3-1.2-0.3h-3.1h-3.1c-0.4,0-0.8,0.1-1.2,0.3h-0.1c-0.2,0-0.4,0.2-0.5,0.3
					l-0.2,0.3c-0.1,0.1-0.2,0.2-0.2,0.3l-1.5,2.2l-23.4,34.5c-1.6,2.4-2.4,5.2-2.2,8l1.4,25c0,0.5,0.4,1,0.9,1.1
					c0.9,0.3,1.9,0.6,2.8,0.9c0.3,0.1,0.5,0,0.7-0.2c0.1-0.1,0.1-0.2,0.1-0.4c-0.1-2.4-0.8-23.9,0.2-29c0.9-4.7,18.8-34.2,23.4-41.8
					c0.4-0.2,0.8-0.3,1.2-0.3h1.8h1.8c0.4,0,0.8,0.1,1.2,0.3C1361.8,482.8,1379.7,512.3,1380.6,517z"/>
				<path class="st4" d="M1427.4,405.4c-0.2-0.2-0.4-0.3-0.7-0.2c-0.1,0-0.2,0.1-0.3,0.2c-1.3,2-13.4,19.8-17.2,23.4
					c-3.5,3.3-35.3,16.6-43.5,20c-0.4-0.1-0.8-0.2-1.1-0.5l-1.4-1l-1.4-1c-0.3-0.2-0.6-0.6-0.8-0.9c0.7-8.9,3.5-43.3,5.6-47.6
					c2.2-4.7,15.5-21.7,16.9-23.6c0.1-0.1,0.1-0.2,0.1-0.4c0-0.3-0.2-0.5-0.4-0.6c-0.9-0.3-1.9-0.6-2.8-0.9c-0.5-0.1-1,0-1.4,0.4
					l-15.9,19.4c-1.8,2.2-2.8,5-2.9,7.8l-1.4,41.7l-0.1,2.7c0,0.1,0,0.3,0,0.4v0.4c0,0.2,0.1,0.4,0.2,0.6l0.1,0.1
					c0.2,0.4,0.5,0.7,0.8,0.9l2.5,1.8l2.5,1.8c0.3,0.3,0.7,0.4,1.1,0.5l0.1,0.1c0.2,0.1,0.4,0.1,0.6,0l0.3-0.1
					c0.1,0,0.2-0.1,0.4-0.1l2.5-0.9l39.2-14.2c2.7-1,5-2.8,6.5-5.2l13.6-21.1c0.3-0.4,0.3-1,0-1.4
					C1428.6,407,1428,406.2,1427.4,405.4z"/>
				<path class="st4" d="M1445.1,430.1c-4.8-14.9-13-27.8-23.3-38.1c-0.1-0.1-0.3-0.1-0.4,0.1l-12.8,23.5c-0.6,1.1-0.8,2.4-0.5,3.7
					l0.9,3.9c0.1,0.5,0.7,0.9,1.2,0.7c0.3-0.1,0.6-0.3,0.7-0.5l14.5-20.7c0.1-0.2,0.3-0.3,0.6-0.4c0.4-0.1,0.9,0,1.2,0.4
					c6.5,8.3,11.6,17.8,15.1,28.4s4.9,21.3,4.5,31.9c0,0.5-0.3,0.9-0.8,1c-0.2,0.1-0.5,0.1-0.7,0l-23.9-8.2c-0.3-0.1-0.6-0.1-0.9,0
					c-0.5,0.2-0.8,0.8-0.6,1.3l1.5,3.7c0.5,1.2,1.4,2.1,2.6,2.7l24.2,11.5c0.2,0.1,0.3,0,0.4-0.2
					C1450.9,460.2,1450,445,1445.1,430.1z"/>
				<path class="st4" d="M1368.2,466.1l0.5-1.7l0.5-1.7c0.1-0.4,0.3-0.7,0.6-1c8.7-2.1,42.2-10,47-9.4c5.2,0.7,25.4,8,27.6,8.8
					c0.1,0,0.3,0,0.4,0c0.3-0.1,0.4-0.3,0.4-0.6c0-1,0-2,0-2.9c0-0.5-0.3-1-0.8-1.2l-23.4-9.1c-2.7-1-5.6-1.2-8.3-0.4l-40.1,11.6
					l-2.6,0.7c-0.1,0-0.2,0.1-0.4,0.1l-0.4,0.1c-0.2,0.1-0.4,0.2-0.5,0.4l-0.1,0.1c-0.3,0.3-0.5,0.7-0.6,1.1l-0.9,2.9l-0.9,2.9
					c-0.1,0.4-0.2,0.8-0.1,1.2v0.1c0,0.2,0,0.4,0.2,0.6l0.2,0.3c0.1,0.1,0.1,0.2,0.2,0.3l1.7,2.1l25.6,32.9c1.8,2.3,4.2,3.9,7,4.6
					l24.2,6.4c0.5,0.1,1,0,1.4-0.5c0.6-0.8,1.2-1.6,1.7-2.4c0.2-0.2,0.2-0.5,0-0.7c-0.1-0.1-0.2-0.2-0.3-0.2
					c-2.3-0.7-23-6.6-27.5-9.1c-4.2-2.3-26.7-28.4-32.5-35.2C1368,466.9,1368,466.4,1368.2,466.1z"/>
			</g>
			<circle class="st4" cx="1354.2" cy="459.7" r="11.7"/>
			<g>
				<g>
					<g>
						<path class="st4" d="M1354.2,553.2c-5,0-10-0.4-15-1.2l0.1-0.5c9.8,1.6,20,1.6,29.7,0l0.1,0.5
							C1364.2,552.8,1359.2,553.2,1354.2,553.2z"/>
						<polygon class="st4" points="1339.3,551.7 1344.3,537.7 1339.8,551.8 						"/>
						<path class="st4" d="M1335.5,525.5c1.8-8.9,3.9-18.2,5.8-27.1v-0.1l0,0c0,0.1,0.2,0.2,0.2,0.1c-0.1,0.2-0.6,0.9-0.7,1.2
							c-2.1,3.4-4.4,7-6.5,10.3l-3.8,5.9l-0.5,0.7c-0.3,0.5-0.4,1-0.5,1.6c0,1.4,0,2.9,0,4.4c-0.1-1.4-0.1-2.9-0.1-4.4
							c0-0.6,0.1-1.2,0.5-1.7l0.4-0.7l3.6-6c2.2-3.6,4.6-7.5,6.9-11.1l0.2-0.4l0,0c0,0,0,0,0-0.1c0.3-0.4,0.9,0,0.7,0.4
							c-0.1,0.4-0.3,1.2-0.4,1.6C1339.6,508.4,1337.6,517.2,1335.5,525.5L1335.5,525.5z"/>
						<path class="st4" d="M1341.2,531.5c0.1-4.8,0.6-27.5,0.7-31.8c0.1-1,0-2.3,0.2-3.2c0.2-1.1,0.8-2,1.4-2.9l1.8-2.6
							c0.3-0.4,0.6-0.9,0.9-1.3c0.6-0.7,1.4-1,2.3-1h0.8c1,0,3.7,0,4.8,0v0.5c-1.1,0-3.7,0-4.8,0c-0.4,0-1.1-0.1-1.5,0.1
							c-0.5,0.1-0.9,0.4-1.2,0.7c-0.3,0.3-0.7,0.9-0.9,1.3l-1.8,2.6c-0.6,0.8-1.2,1.7-1.4,2.7c-0.2,0.9-0.1,2.2-0.2,3.1
							C1342.2,503.9,1341.4,526.8,1341.2,531.5L1341.2,531.5z"/>
						<polygon class="st4" points="1368.5,551.8 1364.1,537.7 1369,551.7 						"/>
						<path class="st4" d="M1372.9,525.5c-2.1-8.6-4.2-17.7-6.2-26.3c0-0.2-0.1-0.6-0.2-0.8c-0.1-0.4,0.5-0.7,0.7-0.3
							c0.1,0.1,0,0.1,0.1,0.1l0.2,0.4c2.2,3.6,4.7,7.5,6.9,11.1l3.6,6l0.4,0.7c0.3,0.5,0.4,1.1,0.5,1.7c0,1.4-0.1,2.9-0.1,4.4
							c0-1.4,0-2.9,0-4.4c0-0.6-0.2-1.1-0.5-1.6l-0.5-0.7l-3.8-5.9c-2.1-3.3-4.4-7-6.5-10.3c-0.2-0.3-0.6-1-0.7-1.2
							c0.1,0.1,0.2,0,0.2-0.1l0,0v0.1C1369,507.3,1371.1,516.6,1372.9,525.5L1372.9,525.5z"/>
						<path class="st4" d="M1367.1,531.5c-0.2-4.8-0.9-27.5-1.1-31.8c-0.1-0.9,0-2.3-0.2-3.1c-0.2-1-0.8-1.9-1.4-2.7l-1.8-2.6
							c-0.3-0.3-0.6-1-0.9-1.3c-0.3-0.4-0.8-0.6-1.2-0.7c-0.4-0.1-1.1-0.1-1.5-0.1c-1,0-3.7,0-4.8,0v-0.5c1.1,0,3.7,0,4.8,0h0.8
							c0.9,0,1.7,0.3,2.3,1c0.3,0.4,0.6,0.9,0.9,1.3l1.8,2.6c0.6,0.9,1.2,1.8,1.4,2.9c0.2,0.9,0.1,2.3,0.2,3.2
							C1366.5,503.9,1367,526.8,1367.1,531.5L1367.1,531.5z"/>
					</g>
					<g>
						<path class="st4" d="M1437.4,502.4l-0.5-0.2c2.3-4.4,4.2-9,5.7-13.8c1.5-4.7,2.7-9.6,3.5-14.5l0.5,0.1
							c-0.8,4.9-1.9,9.8-3.5,14.6C1441.6,493.3,1439.6,498,1437.4,502.4z"/>
						<polygon class="st4" points="1437.1,502.2 1425.4,493.2 1437.4,501.8 						"/>
						<path class="st4" d="M1411,497.8c-7.9-4.4-16.1-9.3-23.9-13.9l-0.1-0.1l0,0c0.1,0.1,0.2-0.1,0.2-0.2l0,0
							c0.2,0.2,0.7,0.8,0.9,1c2.5,3.1,5.3,6.3,7.8,9.4l4.4,5.4l0.5,0.7c0.3,0.5,0.8,0.7,1.4,0.9c1.4,0.5,2.8,0.9,4.1,1.4
							c-1.4-0.4-2.8-0.8-4.2-1.2c-0.6-0.2-1.1-0.5-1.5-1l-0.6-0.7l-4.5-5.3c-2.8-3.2-5.7-6.7-8.5-10l-0.3-0.3l0,0c0,0,0,0-0.1-0.1
							c-0.3-0.4,0.2-0.8,0.6-0.6c0.4,0.2,1,0.6,1.4,0.8C1396,488.6,1403.8,493.3,1411,497.8L1411,497.8z"/>
						<path class="st4" d="M1418.5,494.2c-4.5-1.6-26-9.1-30-10.5c-0.9-0.3-2.2-0.7-3-1.2c-1-0.5-1.7-1.4-2.3-2.3l-1.9-2.5
							c-0.3-0.4-0.7-0.9-1-1.3c-0.4-0.7-0.5-1.7-0.2-2.5l0.2-0.8c0.3-1,1.1-3.5,1.4-4.5l0.5,0.2l-1,3l-0.5,1.5l-0.2,0.8
							c-0.4,1-0.1,2,0.6,2.7c0.3,0.4,2,2.7,2.4,3.2c0.6,0.8,1.3,1.7,2.2,2.2c0.8,0.5,2.1,0.8,2.9,1.2
							C1392.5,484.8,1414.1,492.6,1418.5,494.2L1418.5,494.2z"/>
						<polygon class="st4" points="1446.3,474.5 1431.5,474.4 1446.3,474 						"/>
						<path class="st4" d="M1422.6,462.2c-8.8-0.6-18.1-1.4-26.9-2.2c-0.2,0-0.6-0.1-0.8-0.1c-0.4-0.1-0.5-0.7-0.1-0.8
							c0.1,0,0.1,0,0.1,0l0.4-0.1c4.2-1,8.6-2.1,12.7-3.1l6.8-1.6l0.8-0.2c0.6-0.2,1.2-0.1,1.8,0.1c1.4,0.5,2.8,1,4.1,1.5
							c-1.4-0.4-2.8-0.9-4.2-1.3c-0.5-0.1-1.1-0.2-1.7,0l-0.8,0.2l-6.8,1.8c-3.8,1-8,2-11.8,3c-0.3,0.1-1.1,0.3-1.3,0.3
							c0.1,0,0.1-0.2,0-0.2l0,0h0.1C1404.1,460.3,1413.6,461.2,1422.6,462.2L1422.6,462.2z"/>
						<path class="st4" d="M1426.5,469.5c-4.6-1.3-26.4-7.6-30.5-8.8c-0.9-0.2-2.1-0.7-3-0.8c-1-0.1-2.1,0.2-3,0.5l-3,0.9
							c-0.4,0.1-1.1,0.3-1.5,0.5s-0.8,0.5-1.1,0.9c-0.3,0.4-0.4,1-0.5,1.4c-0.3,1-1.1,3.5-1.4,4.5l-0.5-0.2c0.3-1,1.2-3.5,1.5-4.5
							l0.2-0.8c0.2-0.8,0.9-1.5,1.7-1.9c0.5-0.2,1.1-0.3,1.5-0.5l3-0.9c1-0.3,2.1-0.6,3.2-0.5c0.9,0.1,2.2,0.6,3.1,0.8
							C1400,461.6,1422,468.2,1426.5,469.5L1426.5,469.5z"/>
					</g>
					<g>
						<path class="st4" d="M1420.2,394.2c-3.5-3.5-7.3-6.8-11.3-9.7c-4-2.9-8.3-5.5-12.7-7.8l0.2-0.5c4.4,2.2,8.7,4.9,12.8,7.8
							c4.1,2.9,7.9,6.2,11.4,9.8L1420.2,394.2z"/>
						<polygon class="st4" points="1420.3,394 1408.1,402.3 1420,393.5 						"/>
						<path class="st4" d="M1408,417.4c-6.7,6.1-13.8,12.5-20.6,18.5l-0.1,0.1l0,0c0.1-0.1,0-0.2-0.1-0.2l0,0c0.3-0.1,1-0.4,1.3-0.5
							c3.7-1.5,7.6-3.1,11.3-4.5l6.5-2.5l0.8-0.3c0.5-0.2,1-0.6,1.3-1c0.9-1.2,1.7-2.4,2.6-3.5c-0.8,1.2-1.6,2.4-2.5,3.6
							c-0.4,0.5-0.8,0.9-1.4,1.1l-0.8,0.3l-6.4,2.7c-3.9,1.6-8.2,3.3-12.1,5l-0.4,0.2h-0.1c0,0,0,0-0.1,0c-0.4,0.1-0.7-0.5-0.3-0.7
							c0.3-0.3,0.9-0.8,1.2-1.1C1394.6,428.8,1401.5,422.9,1408,417.4L1408,417.4z"/>
						<path class="st4" d="M1406.9,409.2c-2.9,3.8-16.7,21.9-19.3,25.3c-0.6,0.7-1.3,1.9-2,2.5c-0.8,0.7-1.9,1.2-2.9,1.5l-3,1.1
							c-0.5,0.1-1,0.4-1.5,0.5c-0.8,0.2-1.8,0-2.4-0.5l-0.6-0.5c-0.8-0.6-3-2.2-3.9-2.8l0.3-0.4l2.6,1.9l1.3,0.9l0.6,0.5
							c0.8,0.7,1.9,0.7,2.8,0.3c0.5-0.2,3.2-1.1,3.8-1.3c1-0.3,2-0.7,2.7-1.4c0.7-0.6,1.4-1.7,2-2.4
							C1389.9,431,1404,412.9,1406.9,409.2L1406.9,409.2z"/>
						<polygon class="st4" points="1396.8,376.7 1392.1,390.7 1396.3,376.5 						"/>
						<path class="st4" d="M1377.8,395.4c-3.3,8.2-7,16.8-10.4,24.9c-0.1,0.2-0.2,0.6-0.3,0.8c-0.2,0.4-0.8,0.3-0.8-0.2
							c0-0.3,0.1-1.1,0.1-1.4c0.4-6,1-13.1,1.5-19.1l0.1-0.9c0-0.6,0.3-1.2,0.6-1.7c0.9-1.1,1.8-2.3,2.7-3.4
							c-0.8,1.2-1.7,2.4-2.5,3.5c-0.3,0.5-0.5,1-0.6,1.6v0.9l-0.4,7c-0.2,4-0.5,8.2-0.8,12.2c0,0.3-0.1,1.1-0.1,1.4
							c0-0.1-0.2-0.2-0.2-0.1l0,0v-0.1C1370.2,412.4,1374,403.7,1377.8,395.4L1377.8,395.4z"/>
						<path class="st4" d="M1385.9,394c-2.7,4-15.4,22.8-17.8,26.3c-0.5,0.8-1.3,1.8-1.7,2.7c-0.4,0.9-0.5,2-0.5,3
							c0,0.6,0,3.5-0.1,4c-0.1,1,0.2,2,1.1,2.6l0.6,0.5l1.3,0.9l2.6,1.9l-0.3,0.4c-0.9-0.6-3-2.2-3.8-2.8l-0.6-0.5
							c-0.7-0.5-1.2-1.3-1.3-2.2c0-0.5,0-1.1,0-1.6l0.1-3.2c0-1.1,0.1-2.2,0.5-3.2c0.4-0.9,1.2-1.9,1.7-2.7
							C1370.2,416.7,1383.3,397.8,1385.9,394L1385.9,394z"/>
					</g>
					<g>
						<path class="st4" d="M1288.2,394.2l-0.4-0.4c3.5-3.5,7.3-6.8,11.4-9.8c4.1-2.9,8.4-5.6,12.8-7.8l0.2,0.5
							c-4.4,2.2-8.7,4.9-12.7,7.8C1295.5,387.4,1291.7,390.6,1288.2,394.2z"/>
						<polygon class="st4" points="1312.2,376.5 1316.3,390.7 1311.6,376.6 						"/>
						<path class="st4" d="M1330.6,395.4c3.8,8.2,7.6,17,11.2,25.3v0.1l0,0c-0.1-0.1-0.2-0.1-0.2,0.1l0,0c0-0.3-0.1-1.1-0.1-1.4
							c-0.3-4-0.6-8.2-0.8-12.2l-0.4-7v-0.9c0-0.6-0.2-1.1-0.6-1.6c-0.8-1.2-1.7-2.4-2.5-3.5c0.9,1.1,1.8,2.3,2.7,3.4
							c0.3,0.5,0.6,1.1,0.6,1.7l0.1,0.9l0.6,7c0.3,4.2,0.7,8.8,1,13v0.4v0.1c0,0,0,0,0,0.1c0,0.5-0.7,0.5-0.8,0.1
							c-0.2-0.4-0.5-1.1-0.6-1.5C1337.4,411.7,1333.8,403.3,1330.6,395.4L1330.6,395.4z"/>
						<path class="st4" d="M1322.5,393.9c2.7,3.9,15.6,22.6,18.1,26.1c0.5,0.8,1.4,1.8,1.7,2.7c0.5,1,0.5,2.1,0.5,3.2l0.1,3.2
							c0,0.5,0.1,1.1,0,1.6c-0.1,0.9-0.6,1.7-1.3,2.2l-0.6,0.5c-0.8,0.6-3,2.2-3.8,2.8l-0.3-0.4c0.9-0.6,3-2.2,3.9-2.8
							c0.3-0.3,0.9-0.6,1.2-1c0.3-0.4,0.5-0.8,0.6-1.3c0-0.4,0-1.1,0-1.6v-3.2c0-1,0-2.1-0.5-3c-0.3-0.8-1.2-1.9-1.7-2.7
							C1337.9,416.8,1325.1,397.8,1322.5,393.9L1322.5,393.9z"/>
						<polygon class="st4" points="1288.4,393.5 1300.3,402.3 1288.1,394 						"/>
						<path class="st4" d="M1300.4,417.4c6.8,5.7,13.8,11.8,20.5,17.6c0.2,0.1,0.5,0.4,0.6,0.5c0.3,0.3,0,0.8-0.4,0.7
							c-0.3-0.1-1-0.4-1.3-0.5c-5.6-2.3-12.1-5-17.7-7.3l-0.8-0.3c-0.6-0.2-1-0.6-1.4-1.1c-0.8-1.2-1.6-2.4-2.5-3.6
							c0.9,1.2,1.7,2.3,2.6,3.5c0.4,0.4,0.8,0.8,1.3,1l0.8,0.3l6.5,2.5c3.7,1.4,7.6,3.1,11.3,4.5c0.3,0.1,1,0.4,1.3,0.5
							c-0.1,0-0.2,0.1-0.1,0.2l0,0l-0.1-0.1C1314.2,429.9,1307,423.5,1300.4,417.4L1300.4,417.4z"/>
						<path class="st4" d="M1301.5,409.2c2.9,3.8,16.9,21.7,19.5,25c0.6,0.7,1.3,1.8,2,2.4c0.8,0.7,1.8,1.1,2.7,1.4
							c0.5,0.2,3.3,1.1,3.8,1.3c0.9,0.4,2,0.4,2.8-0.3l0.6-0.5l1.3-0.9l2.6-1.9l0.3,0.4c-0.9,0.6-3,2.2-3.9,2.8l-0.6,0.5
							c-0.7,0.5-1.6,0.7-2.4,0.5c-0.5-0.1-1.1-0.4-1.5-0.5l-3-1.1c-1-0.3-2.1-0.7-2.9-1.5c-0.7-0.6-1.4-1.7-2-2.5
							C1318.3,431.1,1304.3,412.9,1301.5,409.2L1301.5,409.2z"/>
					</g>
					<g>
						<path class="st4" d="M1271,502.4c-2.3-4.4-4.2-9.1-5.8-13.9c-1.5-4.8-2.7-9.7-3.5-14.6l0.5-0.1c0.8,4.9,1.9,9.8,3.5,14.5
							c1.5,4.7,3.5,9.4,5.7,13.8L1271,502.4z"/>
						<polygon class="st4" points="1262.1,473.9 1276.9,474.3 1262.1,474.5 						"/>
						<path class="st4" d="M1285.8,462.2c9-1,18.5-2,27.5-2.8h0.1c0,0,0.1,0,0,0s-0.1,0.2,0,0.2l0,0c-0.3-0.1-1-0.3-1.3-0.3
							c-3.9-1-8-2-11.8-3l-6.8-1.8l-0.8-0.2c-0.5-0.2-1.1-0.1-1.7,0c-1.4,0.4-2.8,0.9-4.2,1.3c1.4-0.5,2.7-1,4.1-1.5
							c0.6-0.2,1.2-0.3,1.8-0.1l0.8,0.2l6.8,1.6c4.1,1,8.6,2.1,12.7,3.1l0.4,0.1h0.1c0,0,0,0,0.1,0c0.4,0.2,0.3,0.8-0.2,0.8
							c-0.4,0-1.2,0.1-1.6,0.1C1303.4,460.8,1294.3,461.6,1285.8,462.2L1285.8,462.2z"/>
						<path class="st4" d="M1281.9,469.5c4.6-1.4,26.4-7.9,30.4-9.1c0.9-0.2,2.2-0.7,3.1-0.8c1.1-0.1,2.2,0.2,3.2,0.5l3,0.9
							c0.5,0.2,1.1,0.3,1.5,0.5c0.8,0.3,1.4,1.1,1.7,1.9l0.2,0.8c0.3,1,1.2,3.5,1.5,4.5l-0.5,0.2c-0.3-1-1.1-3.6-1.4-4.5
							c-0.2-0.4-0.3-1.1-0.5-1.4c-0.3-0.4-0.6-0.7-1.1-0.9c-0.4-0.2-1.1-0.3-1.5-0.5l-3-0.9c-1-0.3-2-0.6-3-0.5
							c-0.9,0.1-2.2,0.6-3,0.8C1308.4,461.9,1286.4,468.2,1281.9,469.5L1281.9,469.5z"/>
						<polygon class="st4" points="1271,501.8 1283,493.2 1271.3,502.2 						"/>
						<path class="st4" d="M1297.3,497.8c7.5-4.7,15.5-9.5,23.1-14c0.2-0.1,0.5-0.3,0.7-0.4c0.4-0.2,0.8,0.3,0.5,0.6
							c0,0.1,0,0.1-0.1,0.1l-0.3,0.3c-2.8,3.3-5.7,6.7-8.5,10l-4.5,5.3l-0.6,0.7c-0.4,0.5-0.9,0.8-1.5,1c-1.4,0.4-2.8,0.8-4.2,1.2
							c1.4-0.5,2.8-0.9,4.1-1.4c0.5-0.2,1-0.5,1.4-0.9l0.5-0.7l4.4-5.4c2.5-3.1,5.3-6.3,7.8-9.4c0.2-0.2,0.7-0.9,0.9-1.1
							c-0.1,0.1,0,0.2,0.2,0.2l0,0l-0.1,0.1C1313.5,488.5,1305.2,493.3,1297.3,497.8L1297.3,497.8z"/>
						<path class="st4" d="M1289.9,494.2c4.5-1.6,25.9-9.4,29.9-10.8c0.9-0.3,2.1-0.7,2.9-1.2c0.9-0.5,1.6-1.4,2.2-2.2
							c0.3-0.5,2.1-2.8,2.4-3.2c0.7-0.8,1-1.8,0.6-2.7l-0.2-0.8l-0.5-1.5l-1-3l0.5-0.2c0.3,1,1.1,3.6,1.4,4.5l0.2,0.8
							c0.3,0.8,0.2,1.8-0.2,2.5c-0.3,0.4-0.7,0.9-1,1.3l-1.9,2.5c-0.6,0.9-1.3,1.7-2.3,2.3c-0.8,0.5-2.1,0.8-3,1.2
							C1316,485,1294.3,492.6,1289.9,494.2L1289.9,494.2z"/>
					</g>
				</g>
				<g>
					<g>
						<path class="st4" d="M1342.6,383.6c-0.9-1.2-3.2-4.1-4-5.2l-0.7-0.9c-0.4-0.6-0.9-1.1-1.6-1.4c-1.8-0.8-5.1-2.4-6.9-3.3
							l-0.2-0.1c1-0.5,2.1-0.9,3.2-1.2c5-1.6,10.3-2.3,15.5-2.6c1.8-0.1,4.4-0.2,6.3-0.2v0.5h-3.1c-5.7,0.2-11.6,0.7-17.1,2.1
							c-1.5,0.4-3,0.9-4.5,1.5v-0.2l3.9,1.9l2,1l1,0.5c0.7,0.3,1.2,0.8,1.7,1.4C1339.2,379.1,1341.4,382,1342.6,383.6L1342.6,383.6z
							"/>
						<path class="st4" d="M1365.6,383.6c1.2-1.6,3.4-4.5,4.6-6.1c0.4-0.6,1-1.2,1.7-1.4l1-0.5c1.3-0.6,4.6-2.3,5.9-2.9v0.2
							c-1.4-0.6-2.9-1.1-4.5-1.5c-5.6-1.4-11.4-2-17.1-2.1h-3.1v-0.5c1.9,0,4.5,0.1,6.3,0.2c5.2,0.4,10.5,1.1,15.5,2.6
							c1.1,0.3,2.1,0.7,3.2,1.2l-0.2,0.1c-1.8,0.9-5.1,2.4-6.9,3.3c-0.7,0.3-1.2,0.8-1.6,1.4l-0.7,0.9
							C1368.8,379.6,1366.5,382.5,1365.6,383.6L1365.6,383.6z"/>
					</g>
					<g>
						<path class="st4" d="M1278.3,447.2c-1.4,0.5-4.9,1.8-6.2,2.2l-1,0.4c-0.7,0.2-1.3,0.5-1.8,1.1c-1.4,1.4-3.9,4.1-5.3,5.6
							l-0.2,0.2c-0.2-1.1-0.2-2.3-0.2-3.4c0.1-5.3,1-10.5,2.3-15.6c0.4-1.8,1.2-4.3,1.7-6.1l0.5,0.2l-0.9,3
							c-1.6,5.5-2.9,11.2-3.3,16.9c-0.1,1.6-0.1,3.1,0,4.7l-0.2-0.1l3.1-3.1l1.5-1.6l0.8-0.8c0.5-0.6,1.2-0.9,1.9-1.1
							C1272.9,449,1276.4,447.8,1278.3,447.2L1278.3,447.2z"/>
						<path class="st4" d="M1285.4,425.3c-1.2-1.7-3.2-4.7-4.4-6.3c-0.5-0.6-0.8-1.3-0.8-2l-0.2-1.1c-0.2-1.4-0.7-5.1-0.9-6.5
							l0.2,0.1c-1,1.2-1.9,2.5-2.8,3.8c-3.1,4.9-5.4,10.2-7.3,15.6l-1,3l-0.5-0.2c0.6-1.8,1.5-4.2,2.2-5.9c2-4.9,4.3-9.7,7.3-14
							c0.7-0.9,1.3-1.8,2.1-2.6v0.2c0.3,2,0.7,5.6,1,7.6c0,0.7,0.4,1.4,0.8,2l0.6,0.9C1282.5,421,1284.6,424.1,1285.4,425.3
							L1285.4,425.3z"/>
					</g>
					<g>
						<path class="st4" d="M1318.9,528c0,1.5,0.2,5.2,0.2,6.6v1.1c0,0.7,0.1,1.4,0.5,2.1c1,1.7,2.7,5,3.7,6.7l0.1,0.2
							c-1.1-0.2-2.2-0.5-3.3-0.9c-5-1.7-9.7-4.2-14.1-7c-1.6-1-3.7-2.5-5.2-3.5l0.3-0.4l2.6,1.8c4.7,3.2,9.8,6.2,15.1,8.3
							c1.5,0.6,3,1.1,4.5,1.4l-0.1,0.2c-0.7-1.3-2.4-4.6-3.1-5.8l-0.5-1c-0.4-0.6-0.5-1.4-0.5-2.1C1319,533.6,1318.9,530,1318.9,528
							L1318.9,528z"/>
						<path class="st4" d="M1300.2,514.4c-2,0.6-5.4,1.6-7.4,2.2c-0.7,0.3-1.5,0.4-2.2,0.2l-1.1-0.2c-1.4-0.2-5.1-0.9-6.5-1.1
							l0.1-0.2c0.8,1.4,1.7,2.6,2.7,3.8c3.7,4.4,8.1,8.3,12.6,11.8l2.5,1.9l-0.3,0.4c-1.5-1.1-3.6-2.7-5-3.9c-4-3.4-7.9-7.1-11-11.3
							c-0.7-0.9-1.3-1.8-1.9-2.9h0.2c2,0.4,5.6,1,7.6,1.4c0.7,0.2,1.4,0.1,2.1-0.2l1.1-0.3C1295.3,515.9,1298.8,514.8,1300.2,514.4
							L1300.2,514.4z"/>
					</g>
					<g>
						<path class="st4" d="M1408.2,514.4c1.4,0.4,5,1.4,6.3,1.8l1.1,0.3c0.7,0.2,1.4,0.3,2.1,0.2c2-0.4,5.6-1,7.6-1.4h0.2
							c-0.5,1-1.2,1.9-1.9,2.9c-3.1,4.2-7,7.9-11,11.3c-1.4,1.2-3.5,2.8-5,3.9l-0.3-0.4l2.5-1.9c4.5-3.5,8.9-7.3,12.6-11.8
							c1-1.2,2-2.5,2.7-3.8l0.1,0.2c-1.5,0.3-5.1,0.9-6.5,1.1l-1.1,0.2c-0.7,0.2-1.5,0.1-2.2-0.2
							C1413.7,516,1410.2,515,1408.2,514.4L1408.2,514.4z"/>
						<path class="st4" d="M1389.6,527.9c0,2-0.1,5.7-0.2,7.7c0,0.7-0.1,1.5-0.5,2.1l-0.5,1c-0.7,1.2-2.4,4.5-3.1,5.8l-0.1-0.2
							c1.5-0.3,3-0.9,4.5-1.4c5.4-2.1,10.4-5.1,15.1-8.3l2.6-1.8l0.3,0.4c-1.5,1.1-3.7,2.5-5.2,3.5c-4.4,2.8-9.2,5.3-14.1,7
							c-1.1,0.4-2.2,0.7-3.3,0.9l0.1-0.2c1-1.8,2.7-5,3.7-6.7c0.4-0.6,0.5-1.3,0.5-2.1v-1.1C1389.4,533.1,1389.6,529.3,1389.6,527.9
							L1389.6,527.9z"/>
					</g>
					<g>
						<path class="st4" d="M1422.9,425.2c0.8-1.2,2.9-4.3,3.7-5.4l0.6-0.9c0.4-0.6,0.8-1.2,0.8-2c0.3-2,0.7-5.6,1-7.6v-0.2
							c0.8,0.8,1.5,1.7,2.1,2.6c3,4.3,5.4,9.1,7.3,14c0.7,1.7,1.6,4.2,2.2,5.9l-0.5,0.2l-1-3c-1.9-5.4-4.2-10.8-7.3-15.6
							c-0.9-1.3-1.7-2.6-2.8-3.8l0.2-0.1l-0.6,4.3l-0.3,2.2l-0.2,1.1c0,0.7-0.4,1.4-0.8,2C1426.2,420.5,1424.1,423.5,1422.9,425.2
							L1422.9,425.2z"/>
						<path class="st4" d="M1430,447.1c1.9,0.7,5.4,1.9,7.3,2.5c0.7,0.2,1.4,0.6,1.9,1.1l0.8,0.8c1,1,3.6,3.7,4.6,4.7l-0.2,0.1
							c0.2-1.5,0.1-3.1,0-4.7c-0.4-5.7-1.6-11.4-3.3-16.9l-0.9-3l0.5-0.2c0.5,1.8,1.3,4.3,1.7,6.1c1.3,5.1,2.2,10.3,2.3,15.6
							c0,1.1,0,2.3-0.2,3.4l-0.2-0.2c-1.4-1.5-3.9-4.1-5.3-5.6c-0.5-0.6-1.1-0.9-1.8-1.1l-1-0.4
							C1434.9,448.8,1431.4,447.6,1430,447.1L1430,447.1z"/>
					</g>
				</g>
				<g>
					<g>
						<path class="st4" d="M1352.4,417.7c0,0-0.8,6.4-0.8,6.3c0,4.2,0.1,13,0.2,17.1v0.7v0.3c0,0.1,0,0.1,0,0.1
							c0.1,0.2,0.2,0.2,0.4,0.2c0.4,0,1.5,0,2,0v0.5c-0.4,0-1.6,0-2,0c-0.5,0.1-0.9-0.3-0.9-0.8v-0.3c0-0.4,0-1.5,0-2
							c0-3.4,0.1-12.3,0.2-15.8C1351.5,424,1352.4,417.7,1352.4,417.7L1352.4,417.7z"/>
						<path class="st4" d="M1355.9,417.7l0.9,6.3c0,3.5,0.1,12.4,0.2,15.8c0,0.4,0,1.6,0,2v0.3c0,0.5-0.4,0.9-0.9,0.8
							c-0.4,0-1.5,0-2,0v-0.5c0.4,0,1.6,0,2,0c0.2,0,0.4-0.1,0.4-0.3c0,0,0,0,0-0.1v-0.3V441c0-4.1,0.1-12.9,0.2-17.1
							C1356.7,424,1355.9,417.7,1355.9,417.7L1355.9,417.7z"/>
					</g>
					<g>
						<path class="st4" d="M1313.7,448.4l5.8,2.7c4,1.3,12.4,3.9,16.3,5.1l0.6,0.2l0.3,0.1c0.1,0,0.1,0,0.1,0c0.2,0,0.3-0.1,0.3-0.3
							c0.1-0.4,0.5-1.5,0.6-1.9l0.5,0.2c-0.1,0.4-0.5,1.5-0.6,1.9c-0.1,0.5-0.6,0.8-1.1,0.6l-0.3-0.1c-0.4-0.1-1.5-0.5-1.9-0.6
							c-3.2-1.1-11.7-3.9-15-5C1319.4,451.2,1313.7,448.4,1313.7,448.4L1313.7,448.4z"/>
						<path class="st4" d="M1314.8,445l6.3,1.1c3.4,1.1,11.8,3.7,15.1,4.7c0.4,0.1,1.5,0.5,1.9,0.6l0.3,0.1c0.5,0.1,0.7,0.7,0.5,1.1
							c-0.1,0.4-0.5,1.5-0.6,1.9l-0.5-0.2c0.1-0.4,0.5-1.5,0.6-1.9c0.1-0.2,0.1-0.4-0.1-0.5c0,0,0,0-0.1,0l-0.3-0.1l-0.6-0.2
							c-3.9-1.3-12.3-4.1-16.2-5.5C1321.1,446.2,1314.8,445,1314.8,445L1314.8,445z"/>
					</g>
					<g>
						<path class="st4" d="M1330.9,494.7l4.4-4.7c2.5-3.5,7.5-10.6,9.9-13.9l0.4-0.5l0.2-0.3c0,0,0-0.1,0.1-0.1
							c0.1-0.2,0-0.3-0.2-0.4c-0.3-0.2-1.3-0.9-1.6-1.1l0.3-0.4c0.4,0.3,1.2,0.9,1.6,1.2c0.4,0.2,0.5,0.8,0.2,1.2l-0.2,0.3
							c-0.2,0.3-0.9,1.2-1.2,1.6c-2,2.7-7.4,9.9-9.4,12.7C1335.4,490.1,1330.9,494.7,1330.9,494.7L1330.9,494.7z"/>
						<path class="st4" d="M1328.1,492.6l3-5.7c2-2.9,7.2-10.1,9.2-12.9c0.2-0.3,0.9-1.3,1.1-1.6l0.2-0.3c0.2-0.4,0.9-0.5,1.2-0.1
							c0.3,0.2,1.3,0.9,1.6,1.1l-0.3,0.4c-0.4-0.3-1.2-0.9-1.6-1.2c-0.2-0.2-0.3-0.2-0.5,0l0,0l-0.2,0.3l-0.4,0.5
							c-2.4,3.3-7.7,10.4-10.2,13.8C1331.2,487,1328.1,492.6,1328.1,492.6L1328.1,492.6z"/>
					</g>
					<g>
						<path class="st4" d="M1380.3,492.6l-3.1-5.6c-2.5-3.4-7.7-10.4-10.2-13.8l-0.4-0.5l-0.2-0.3c0,0,0-0.1-0.1-0.1
							c-0.2-0.1-0.3-0.1-0.4,0.1c-0.3,0.2-1.2,0.9-1.6,1.2l-0.3-0.4c0.4-0.3,1.3-0.9,1.6-1.1c0.4-0.3,0.9-0.3,1.2,0.1l0.2,0.3
							c0.2,0.3,0.9,1.3,1.1,1.6c1.9,2.7,7.2,10.1,9.2,12.9C1377.3,486.9,1380.3,492.6,1380.3,492.6L1380.3,492.6z"/>
						<path class="st4" d="M1377.5,494.6l-4.5-4.6c-2.1-2.8-7.4-10-9.4-12.7c-0.3-0.3-0.9-1.3-1.2-1.6l-0.2-0.3
							c-0.3-0.4-0.2-1,0.2-1.2c0.3-0.3,1.2-0.9,1.6-1.2l0.3,0.4c-0.4,0.3-1.3,0.9-1.6,1.1c-0.2,0.1-0.3,0.3-0.2,0.4c0,0,0,0,0,0.1
							l0.2,0.3l0.4,0.5c2.4,3.3,7.5,10.5,9.9,13.9C1373.1,490,1377.5,494.6,1377.5,494.6L1377.5,494.6z"/>
					</g>
					<g>
						<path class="st4" d="M1393.6,445l-6.3,1.2c-4,1.4-12.3,4.1-16.2,5.5l-0.6,0.2l-0.3,0.1c-0.1,0-0.1,0-0.1,0
							c-0.2,0.1-0.2,0.2-0.1,0.4c0.1,0.4,0.5,1.5,0.6,1.9l-0.5,0.2c-0.1-0.4-0.5-1.5-0.6-1.9c-0.2-0.4,0-1,0.5-1.1l0.3-0.1
							c0.4-0.1,1.5-0.5,1.9-0.6c3.2-1,11.8-3.7,15.1-4.7L1393.6,445L1393.6,445z"/>
						<path class="st4" d="M1394.7,448.3l-5.7,2.8c-3.3,1.1-11.8,4-15,5c-0.4,0.1-1.5,0.5-1.9,0.6l-0.3,0.1c-0.4,0.2-1-0.1-1.1-0.6
							c-0.1-0.4-0.5-1.5-0.6-1.9l0.5-0.2c0.1,0.4,0.5,1.5,0.6,1.9c0,0.2,0.2,0.3,0.4,0.3c0,0,0,0,0.1,0l0.3-0.1l0.6-0.2
							c3.9-1.2,12.3-3.9,16.3-5.1C1388.9,451.1,1394.7,448.3,1394.7,448.3L1394.7,448.3z"/>
					</g>
				</g>
			</g>
			<g>
				<circle class="st2" cx="1339.5" cy="444.9" r="6.8"/>
				<circle class="st2" cx="1339.5" cy="474.3" r="6.8"/>
				<circle class="st2" cx="1368.8" cy="474.4" r="6.8"/>
				<circle class="st2" cx="1368.9" cy="445" r="6.8"/>
			</g>
		</g>
	</g>
	<path class="st5" d="M1594.4,399.5l-7.4-19.7V373c0,0,6.1-21.4,6.1-37.4s0-21.4,0-29.4s-18.6-29.6-18.6-29.6s-2.6-11.8-2.6-23.1
		c0-11.3,0-19.8,0-28.7s1.6-39.5-23.5-58.1c0,0-66.4-74.4-100-100c0,0,15.6-7.9,20.5-11c0.3-0.2,0.5-0.5,0.5-0.9v-1.7
		c0-0.5-0.3-0.9-0.8-1C1453,48.9,1218.7,1.7,988.2,1.7c0,0-184.7-3.1-282.6,28.9S441.1,153,398.8,178.9c0,0-22,0.2-32.6-4.6
		c-2.1-1-4.4-1.3-6.7-1.1c-21,2.3-119.4,13.9-200.3,40.3C68.1,243.1,43,269.2,43,269.2l-8.4,2c-2.4,0.6-4.4,1.9-5.8,3.9
		c-4.4,6.2-14,20.3-16.1,28.7c-2.8,10.9-2.5,33.9-2.5,33.9s-0.4,8.5,5.6,13.4l-10.2,12c-0.9,1.1-1.5,2.5-1.5,4v25.4
		c0,1.3,1,2.3,2.3,2.3h1.9v14.6c0,0.7,0.4,1.4,1,1.8l6.3,3.6v3.1L3.3,428.7c-1.1,0.9-1.7,2.3-1.7,3.7v41.5c0,7.3,4.7,14.4,23.1,17.9
		s117.4,15.8,145.4,15.8C150.8,385,234.6,316.7,313.6,316.7s160.5,63.1,146.8,192.5l745.4-10.4c-14.6-120.9,71.4-183.1,150.1-183.1
		s152.5,69.6,144.5,164.2c32.5-3.3,52.2-7.1,54.4-8.7c2.1-1.6,11.8-10.1,11.8-10.1h9.8c2,0,3.8-1,4.9-2.6c4.1-6,14-20.6,14-22.6v-32
		C1595.2,402.5,1595,400.9,1594.4,399.5z"/>
	<path d="M1559.9,351.1l-3.3,34.8c-0.2,1.8-0.6,3.5-1.3,5.1l-13.5,32.7l-0.3-6.9L1559.9,351.1z"/>
	<g>
		<path class="st0" d="M484.3,459.9c-4.4-44.6-22-89-55.2-119.8c-49-46.9-126.9-58.8-187.7-28.7c-51.3,24-87,75.1-95,130.9
			c-1.7,11.1-2.6,22.4-2.7,33.6c0-11.3,0.7-22.5,2.3-33.7c7.4-56.1,43.1-107.9,94.7-132.1c61.2-30.5,140-18.4,189.1,29.2
			C463.1,370.4,480.5,415.1,484.3,459.9L484.3,459.9z"/>
		<path class="st0" d="M1527.6,450C1517,343.2,1415,267.8,1310.1,296.2c-38.4,9.8-73.4,32.4-97.5,63.9
			c22.3-30.2,54.8-52.6,90.8-63.4c59.8-18.3,120.7-4.9,167.2,37C1503.6,363.8,1523.9,405.5,1527.6,450L1527.6,450z"/>
		<path class="st0" d="M633.6,245.7c-64.6,5-147.1,10.3-212.1,14.3c-2.9,0.3-5.3,2-7.1,4.2l-1.5,1.6c-0.3,0.4-1.1,1.1-1.2,1.6
			c-0.3,0.5-0.1,1.4-0.2,2c0,1.4-0.1,2.8,1.1,3.6l1.8,1.2c2.3,1.5,8.8,5.5,11.2,7.1l7.5,4.8l3.7,2.4c1.2,0.7,2.7,1,4.1,1l17.7,0.2
			l-17.7,0.2c-1.5,0.1-3.1-0.2-4.4-0.9c-5.5-3.3-13.5-8.2-18.9-11.5l-3.8-2.3l-1.9-1.2c-1.1-0.7-1.6-2.1-1.6-3.3
			c0-1.5-0.3-3.4,0.9-4.6c0.5-0.5,1.7-2,2.2-2.5c1.9-2.4,4.6-4.3,7.8-4.6c11.8-0.9,23.6-1.6,35.4-2.4
			C510.5,252.7,579.9,248.4,633.6,245.7L633.6,245.7z"/>
		<path class="st0" d="M501.6,479.3l-0.2-0.6c-25.8-93.1-25.3-174.8-25.1-205.6c0-2.1,0-4,0-5.6c0-24.1,9.1-47.6,9.2-47.9l1.7,0.1
			c-0.1,0.2-9.2,24-9.2,47.8c0,1.6,0,3.5,0,5.6c-0.2,30.6-0.6,111.9,24.9,204.6l603.3-10.3c22.7-0.4,44.4-11.5,57.9-29.8
			c26.1-35.2,72.7-98,91-123.4c20.5-28.4,68.3-96.2,68.3-113.2v-12.6c0-3.5-7.1-32.3-17.6-53.7l1.5-0.6
			c10.2,20.6,17.7,49.9,17.7,54.2v12.6c0,16.8-43,78.7-68.6,114.1c-18.4,25.4-64.9,88.2-91.1,123.4c-13.8,18.6-36,30-59.2,30.4
			L501.6,479.3z"/>
		<rect x="461.9" y="477.7" class="st0" width="40.3" height="1.6"/>
		<path class="st0" d="M897.4,471.9l-2.8-10.9c-0.5-2-0.6-4-0.3-6c1.8-11.2,7.7-49.2,9.8-70.2c3-29.7,6.8-73.1,7.8-97.4
			c1.1-26.9,9.7-57.7,13.1-64.9c3.5-7.3,11.9-32.8,12-33.1l1.6,0.2c-0.3,1.1-8.6,26.2-12.1,33.6c-3.4,7.1-11.9,37.6-13,64.3
			c-1,24.3-4.8,67.7-7.8,97.5c-2.1,21-8,59.1-9.8,70.3c-0.3,1.8-0.2,3.6,0.3,5.3l2.8,10.9L897.4,471.9z"/>
		<path class="st0" d="M498.8,465.8l-0.4-1.5l24.8-6.6c3.5-0.9,7.2-1.5,10.8-1.6l362.3-9.4l264.5-4.6v1.6l-264.5,4.6L534,457.7
			c-3.5,0.1-7,0.6-10.4,1.5L498.8,465.8z"/>
		<path class="st0" d="M529.6,450c4.2-2.3,9.4-3.9,13.9-5.4c4.5-1.4,9.7-2.9,14.4-4.1c16.1-4.2,32.4-7.3,48.7-10.3
			C718,411.4,830.9,404,943.4,394.9c26.1-1.6,53.5-3.9,79.7-2.1c19.9,1.4,39.2,7.7,58.1,13.7c25.2,8.4,50,17.9,74.7,27.9
			c-24.7-9.7-49.6-19-74.9-27.1c-14.2-4.5-28.5-8.9-43.2-11.6c-11.4-2-23.1-2.4-34.6-2.3c-65.8,1.7-132.9,9.2-198.6,14.4
			c-39.5,3.4-79.5,7.2-118.9,11.9c-42.8,5.3-85.7,10.9-127.7,21c-4.3,1.1-10.1,2.6-14.4,3.9C539.4,446,533.6,447.8,529.6,450
			L529.6,450z"/>
		<polygon class="st0" points="213.8,356.9 196.9,341.4 169.5,313.1 170.6,311.9 198,340.3 215,355.8 		"/>
		
			<rect x="1396.3" y="285.1" transform="matrix(0.4763 -0.8793 0.8793 0.4763 508.6608 1425.863)" class="st0" width="110" height="1.6"/>
		<path class="st0" d="M239.6,242.2l-0.3-1.6c0.9-0.2,89.1-18.6,212-30.8l0.2,1.6C328.7,223.6,240.5,242,239.6,242.2z"/>
		
			<rect x="377.6" y="197.3" transform="matrix(0.55 -0.8351 0.8351 0.55 15.0135 424.0613)" class="st0" width="46.9" height="1.6"/>
		<path class="st0" d="M404.1,183.1c-68.1,8.4-135.8,20.4-201.9,38.8c-26.3,7.5-52.6,16.1-77.6,27.1c-12.6,5.5-24.9,11.5-36.7,18.6
			c11.6-7.3,23.9-13.6,36.3-19.4c25-11.3,51.2-20.2,77.6-27.7C267.8,201.8,335.8,190,404.1,183.1L404.1,183.1z"/>
		<path class="st0" d="M1394.8,84.8c-0.3-0.3-27.4-26.4-37.8-35c-10.6-8.7-15.1-19.7-15.3-20.1l1.9,0.4c0,0.1,4.1,10.1,14.3,18.5
			c10.5,8.6,37.7,34.8,37.9,35.1L1394.8,84.8z"/>
		<path class="st0" d="M950.8,28.5c96.5-0.8,193.1,3.8,288.6,18.3c14.3,2.2,28.7,4.3,42.8,7.9c9.3,2.5,18.6,6.1,26.6,11.6
			c11.9,8.2,23.1,17.5,34,27.1c5.4,4.8,10.8,9.7,15.7,15c1.2,1.3,2.5,2.7,3.4,4.2c0.3,0.5,0.7,1.1,0.6,1.8
			c1.1,12.3-7,16.6-17.6,19.1c10.3-2.6,18.5-7,17.2-19.1c0-0.6-0.3-1.1-0.6-1.6c-1-1.5-2.2-2.8-3.5-4.1c-5-5.2-10.4-10-15.9-14.8
			c-10.9-9.4-22.1-18.6-34.1-26.8c-8-5.4-17-8.8-26.3-11.2c-14-3.5-28.3-5.6-42.6-7.7C1143.7,34.1,1047.2,29.1,950.8,28.5
			L950.8,28.5z"/>
		<path class="st0" d="M1569.5,288.8c-4.3,0-9.4-6.6-15.6-20c-4.5-9.7-7.8-19.5-7.9-19.6l1.5-0.5c3.6,10.7,14.7,38.6,21.9,38.6
			c3.1,0,5.5-0.7,6.9-2.2c1.5-1.6,2.3-5.1,2.3-5.2l0.8,1.7c0,0.1,0.1,2.6-1.9,4.6C1575.8,287.9,1573.1,288.8,1569.5,288.8z"/>
		<path class="st0" d="M1593.8,306.6c-9.6,8.8-44.7,10.6-58.3,11.3c14.8-1.1,29.7-2.5,44-6.4c3.5-1,7-2.2,10.3-3.9
			c0.9-0.6,3-2,3.7-2.8C1593.4,304.9,1593.8,306.6,1593.8,306.6L1593.8,306.6z"/>
		<path class="st0" d="M1532.2,189.8c-0.1-0.1-7.6-13.8-16.7-20.4c-9.5-6.9-16.7-21.3-17-21.8l1.4-0.7c0.1,0.1,7.3,14.6,16.5,21.2
			c9.5,6.9,16.9,20.4,17.2,21L1532.2,189.8z"/>
		<path class="st0" d="M67,367.8c-2.4,0.2-31.7,2.1-33.3,2.3c-1,0.1-2.6,0.1-3.5,0.5c-2.4,0.7-3.6,3.1-4.8,5l-8.1,12.5
			c-0.7,1.1-2.3,3.7-3,4.7c-1.4,1.8-1.8,4.3-0.6,6.3l0.9,1.6c11.7,21.4,27.4,50.2,39,71.8c1.5,3.5,4.6,5.2,8.3,4.9
			c10,0,34.4,0.2,44.5,0.3c0.8,0,2.8,0.1,3.6-0.1c1.2-0.3,2.2-1,3.2-1.7l3.1-2.1l12.2-8.4l-12,8.8l-3,2.2c-1.5,1.2-3.3,2.2-5.2,2.1
			c-11.2,0.1-35.4,0.3-46.4,0.4c-4.2,0.4-7.9-1.7-9.6-5.6c-11.7-21.4-27.4-50.3-39-71.8l-0.9-1.6c-1.4-2.4-1-5.5,0.7-7.6
			c0.7-1,2.4-3.6,3.1-4.6l8.3-12.3l1-1.5c1.3-2.3,3.6-4,6.3-4.2C35,369.2,63.1,367.9,67,367.8L67,367.8z"/>
		<polygon class="st0" points="167.6,484.6 21.1,483.8 167.6,483 		"/>
		<path class="st0" d="M1398.3,49.7c-192.7-29.1-389.3-48-583.8-27.2c-13.6,1.6-27.9,3.7-41.4,6.2c-13.4,2.7-27.7,5.5-40.5,10.4
			c12.8-5,27-8,40.4-10.8c68.6-12.8,138.9-15.4,208.6-16C1121.2,12.3,1260.7,26.9,1398.3,49.7L1398.3,49.7z"/>
		<path class="st0" d="M1586.1,338.6c-3.1,0.7-10.6,2.4-13.5,3.1l-2.3,0.5c-5.6,0.9-9.3,5-10.2,10.5c-5,18.8-10.8,39.1-16.1,57.9
			l-1.3,4.4c-0.2,0.8-0.4,1.3-0.3,2.1v2.3v2.3c-0.1,2.1,1.4,4,3.4,4.3c1.1,0.1,3.3-0.1,4.5-0.1l4.6-0.2c8.9-0.4,18.8-0.8,27.7-1.1
			c-6.1,0.5-12.3,1-18.4,1.5c-3.1,0.2-10.9,0.8-13.8,1c-0.7,0-2.7,0.2-3.5,0.2c-3.1,0.4-6.1-2.4-5.9-5.5c0-1.2,0-3.5,0-4.6
			c-0.1-0.7,0.1-1.8,0.4-2.5l1.2-4.5c4.8-17.3,10.2-36.2,15.2-53.3c0.8-2.5,1.7-6.5,2.9-8.9c1.9-3.6,5.6-5.9,9.5-6.4l2.3-0.4
			C1575.4,340.5,1583,339.2,1586.1,338.6L1586.1,338.6z"/>
		<path class="st0" d="M1486.3,248.9c20.4,5.4,41.6,8.5,62.7,8.8c1.1,0,2.6,0.1,3.7-0.1c7.7-1.5,10.4-10,11.5-16.9
			c1.4-7.6,2.2-15.4,2.7-23.1c-0.1-2.6,2.1-5,4.8-5c0,0.4,0-0.8,0,0.8s0,0.4,0,0.8c-1.9,0-3.3,1.6-3.3,3.5
			c-0.7,7.8-1.5,15.6-3.1,23.2c-1.2,7.2-4.3,16.1-12.5,17.5c-1.1,0.2-2.7,0-3.8,0C1527.8,258,1506.7,254.6,1486.3,248.9
			L1486.3,248.9z"/>
	</g>
	<path d="M1.6,473.9v-41.5c0-1.4,0.6-2.8,1.7-3.7l12.4-10.8v-3.1l-6.3-3.6c-0.6-0.4-1-1-1-1.8v-14.6L50,471.7H27.3
		c-1.7,0-3.3-0.6-4.6-1.7l-4.5-3.9c-0.5-0.5-1.3-0.6-2-0.2L1.6,473.9z"/>
	<path class="st6" d="M705.6,30.6c-97.9,32-264.5,122.4-306.8,148.2c0,0,28.9,2.8,59.3-11.6c30.4-14.5,126-76.9,265.8-127.8
		L705.6,30.6z"/>
	<path d="M1550.7,168.4c-0.7-0.6-1.5-1.2-2.3-1.8c0,0-66.4-74.4-100-100c0,0-41.4,14.6-54.8,17l53.2,50.3c1.3,1.3,3,2.1,4.8,2.4
		c10.9,2,52.4,10.5,90.2,31.3c1,0.5,2,0.8,3.1,0.8H1550.7z"/>
	<path class="st7" d="M1581,432.1l-30.3,4.6l4.5,7.1c0.6,0.9,1.6,1.3,2.6,1.2l16.1-2.3c1.2-0.2,2.3-1,2.9-2.1L1581,432.1z"/>
	<path class="st4" d="M1566.5,461.2l17.9-36c0.2-0.4,0.7-0.7,1.1-0.7h9.6v5.5h-8.4c-0.5,0-0.9,0.3-1.1,0.7l-16.4,30.6h-2.7V461.2z"
		/>
	<polygon class="st6" points="598.2,209.8 925.7,186.6 1124.1,172.9 1250.4,145 1250.4,57.3 1156.6,45.8 977.6,35.6 841.7,39.4 
		738.7,56 677.2,78.6 567.1,134.6 492.7,181.3 484.3,216.3 	"/>
	<path d="M1339.8,105.8c-10.8-11-42.7-41.6-65.7-46.2c-28.2-5.6-137.3-26.1-297.2-26.1S752.4,45.1,698.4,66.6s-170.1,78.3-252,144.5
		c0,0,22.9,10.6,53,8.4c30.1-2.1,283.3-19.2,438.2-29.8s177.9-10,230.5-21.4c43.6-9.4,135.3-32.9,165.5-40.6
		c5.8-1.5,9.9-6.7,9.9-12.8l0,0C1343.6,111.5,1342.2,108.2,1339.8,105.8z M499.1,211.6l11.6-37c29.3-19.2,60.2-37.1,89.4-52.6
		l-26,84.5C535.5,209.1,508.1,210.9,499.1,211.6z M588,205.5l26.7-91.2c33.8-17.4,64.4-31.4,86.7-40.2
		c29.4-11.7,59.5-19.2,97.6-24.2c39-5.1,87.8-7.8,152.1-8.3l-50.3,142.7c-75.8,5.2-167.2,11.4-242.6,16.5
		C632.7,202.5,609.1,204.1,588,205.5z M1166.5,160.6c-41.2,8.9-64.1,10.4-149.1,15.9c-12.3,0.8-26.4,1.7-42.1,2.8l30.8-137.6
		c99.7,1.6,178.1,11,226.8,18.7l8.6,15.4c3,5.5,4,11.9,2.6,18l-11.2,51.1C1207.8,151.1,1183.4,156.9,1166.5,160.6z"/>
	<g>
		<path d="M45.1,320.4c0,0,39.1-7.2,80-14c0,0-52.1,50.2-58.1,61.4c-6,11.2-10.9,19.3-8.5,24.2c1.9,3.8,23.2,38.7,33.3,55.1
			c3.3,5.3,8.7,9,14.9,10l21.7,3.4l-7.4-93c-0.2-2.7-2.5-4.6-5.2-4.5l-28.7,2c-0.5,0-0.8-0.6-0.5-1l8.3-9.5c2-2.3,4.7-4,7.7-4.7
			l36.8-9.4c1.8-0.5,3.4-1.4,4.7-2.6l98.8-96.7c0.5-0.5,0.1-1.3-0.6-1.2c-13.9,2.1-93,14.2-156.6,34.2c0,0-32.7,13.6-34.6,17.3
			C49.3,295.2,46.7,300.8,45.1,320.4z"/>
		<polygon class="st8" points="165,296.4 187.7,293.9 198.4,280.5 167,282 		"/>
		<path class="st2" d="M163.4,295.7l5.7-12.1l29.4-3.1l16-17.4L57.6,287c0,0-5.6,2.6-6.4,4.4c-0.8,1.8-2.1,5-2.1,5l102.3-12h5.3
			l0.5-0.8L163.4,295.7z"/>
		<path class="st9" d="M97.8,381H75.2c-0.2,0-0.3,0.1-0.2,0.3l0.2,0.7c0.2,0.7,0.8,1.1,1.5,1.1h10.6l0.3,1.1
			c0.1,0.5,0.6,0.8,1.1,0.8h10.8c0.1,0,0.2-0.1,0.2-0.2l-0.8-3C98.8,381.4,98.3,381,97.8,381z"/>
		<path class="st9" d="M94.9,369.8H72.4c-0.2,0-0.3,0.1-0.2,0.3l0.2,0.7c0.2,0.7,0.8,1.1,1.5,1.1h10.6l0.3,1.1
			c0.1,0.5,0.6,0.8,1.1,0.8h10.8c0.1,0,0.2-0.1,0.2-0.2l-0.8-3C96,370.1,95.5,369.8,94.9,369.8z"/>
		<path class="st9" d="M115.3,342.7L93,346.1c-0.2,0-0.3-0.1-0.3-0.3l0.1-0.8c0.1-0.7,0.6-1.2,1.3-1.3l10.5-1.6l0.1-1.1
			c0.1-0.5,0.5-0.9,1-1l10.7-1.6c0.1,0,0.2,0.1,0.2,0.2l-0.4,3.1C116.3,342.2,115.8,342.6,115.3,342.7z"/>
		<path class="st9" d="M126.5,332.4l-22.3,3.4c-0.2,0-0.3-0.1-0.3-0.3l0.1-0.8c0.1-0.7,0.6-1.2,1.3-1.3l10.5-1.6l0.1-1.1
			c0.1-0.5,0.5-0.9,1-1l10.7-1.6c0.1,0,0.2,0.1,0.2,0.2l-0.4,3.1C127.4,331.9,127,332.4,126.5,332.4z"/>
		<path class="st9" d="M136,322.2l-22.3,3.4c-0.2,0-0.3-0.1-0.3-0.3l0.1-0.8c0.1-0.7,0.6-1.2,1.3-1.3l10.5-1.6l0.1-1.1
			c0.1-0.5,0.5-0.9,1-1l10.7-1.6c0.1,0,0.2,0.1,0.2,0.2l-0.4,3.1C137,321.7,136.5,322.1,136,322.2z"/>
		<path class="st9" d="M146.7,312l-22.3,3.4c-0.2,0-0.3-0.1-0.3-0.3l0.1-0.8c0.1-0.7,0.6-1.2,1.3-1.3l10.5-1.6l0.1-1.1
			c0.1-0.5,0.5-0.9,1-1l10.7-1.6c0.1,0,0.2,0.1,0.2,0.2l-0.4,3.1C147.6,311.5,147.2,311.9,146.7,312z"/>
		<path class="st9" d="M100.2,392.3H79.4c-0.2,0-0.3,0.1-0.2,0.3l0.2,0.7c0.2,0.7,0.8,1.1,1.5,1.1h8.9l0.3,1.1
			c0.1,0.5,0.6,0.8,1.1,0.8H102c0.1,0,0.2-0.1,0.2-0.2l-0.8-3C101.3,392.7,100.8,392.3,100.2,392.3z"/>
		<path class="st9" d="M102.9,403.6H83.2c-0.2,0-0.3,0.1-0.2,0.3l0.2,0.7c0.2,0.7,0.8,1.1,1.5,1.1h7.7l0.3,1.1
			c0.1,0.5,0.6,0.8,1.1,0.8h10.8c0.1,0,0.2-0.1,0.2-0.2l-0.8-3C103.9,404,103.4,403.6,102.9,403.6z"/>
		<path class="st9" d="M105.8,414.9H86.7c-0.2,0-0.3,0.1-0.2,0.3l0.2,0.7c0.2,0.7,0.8,1.1,1.5,1.1h7.1l0.3,1.1
			c0.1,0.5,0.6,0.8,1.1,0.8h10.8c0.1,0,0.2-0.1,0.2-0.2l-0.8-3C106.8,415.3,106.3,414.9,105.8,414.9z"/>
		<path class="st9" d="M108.7,426.2H90.1c-0.2,0-0.3,0.1-0.2,0.3l0.2,0.7c0.2,0.7,0.8,1.1,1.5,1.1h6.7l0.3,1.1
			c0.1,0.5,0.6,0.8,1.1,0.8h10.8c0.1,0,0.2-0.1,0.2-0.2l-0.8-3C109.7,426.5,109.3,426.2,108.7,426.2z"/>
		<path class="st9" d="M111,437.5H93.7c-0.2,0-0.3,0.1-0.2,0.3l0.2,0.7c0.2,0.7,0.8,1.1,1.5,1.1h5.4l0.3,1.1
			c0.1,0.5,0.6,0.8,1.1,0.8h10.8c0.1,0,0.2-0.1,0.2-0.2l-0.8-3C112,437.8,111.5,437.5,111,437.5z"/>
		<path class="st9" d="M113.9,448.7H98.2c-0.2,0-0.3,0.1-0.2,0.3l0.2,0.7c0.2,0.7,0.8,1.1,1.5,1.1h3.7l0.3,1.1
			c0.1,0.5,0.6,0.8,1.1,0.8h10.8c0.1,0,0.2-0.1,0.2-0.2l-0.8-3C114.9,449.1,114.5,448.7,113.9,448.7z"/>
		<path class="st9" d="M190.9,270.6L113.7,281c-0.7,0.1-1.3,0.5-1.7,1.1l-1.2,2.2l32.4-4.4c0.4-0.1,0.8,0.1,1.1,0.3l1.4,1.3
			c0.3,0.3,0.7,0.4,1.1,0.3l37.5-4.8c0.8-0.1,1.5-0.5,2-1.1L190.9,270.6z"/>
		<polygon class="st9" points="113,280.1 191.4,269.2 193.1,267.6 113.8,278.8 		"/>
		<path class="st9" d="M102.4,282.9c0,0-28,4.2-39.2,6.5c-1,0.2-1.9,0.9-2.4,1.8l-1.1,2.1l20.7-3.7c0.4-0.1,0.9,0.1,1.2,0.4l0.5,0.5
			c0.3,0.3,0.7,0.5,1.2,0.4l15.5-2.6c0.7-0.1,1.3-0.6,1.7-1.2L102.4,282.9z"/>
		<path class="st9" d="M63.4,288.7l39.3-6.5l0.8-1.6l-38.9,6.8c-0.4,0.1-0.8,0.4-1,0.8L63.4,288.7z"/>
		<path class="st3" d="M56.3,303.9l6.5-1.1l-3,8.3c-0.2,0.5,0.3,1.1,0.8,1l99.3-16.5L51.6,315.4L56.3,303.9z"/>
		<path class="st4" d="M53.8,304.3l-3.3,10.6c-0.2,0.7,0.4,1.3,1,1.2l107.6-18.4l0.9-1.9L53.9,314c-0.5,0.1-0.9-0.4-0.7-0.8l3.2-9.3
			L53.8,304.3z"/>
		<polygon class="st4" points="89.2,307.5 97.5,291.4 107.7,291.4 100.8,305.5 		"/>
		<polygon class="st4" points="149.2,297.6 157.1,283.6 169,283.6 162.8,296.8 148.4,299.5 		"/>
		<polygon class="st3" points="97,292.5 92.6,292.5 83.9,308.3 89.2,307.5 		"/>
		<polygon class="st3" points="156.6,284.4 151.4,284.4 142.7,298.7 149.2,297.6 		"/>
		<polygon class="st2" points="162.8,296.8 169,283.6 171.2,283.4 165,296.4 		"/>
		<polygon class="st2" points="168.3,287.6 194.8,285.5 193.7,286.6 167.7,288.7 		"/>
		<polygon class="st2" points="165.8,290.8 192.2,288.7 191.2,289.7 165.2,291.9 		"/>
		<polygon class="st2" points="164.5,293.9 189.4,291.9 188.5,292.9 163.9,295 		"/>
		<path class="st2" d="M70.3,283.6l135.4-20.5l20.3-18.8C226,244.3,101.5,265.9,70.3,283.6z"/>
	</g>
	<g>
		<path d="M15.8,351.1c-6-4.9-5.6-13.4-5.6-13.4s-0.4-22.9,2.5-33.9c2.2-8.4,11.7-22.5,16.1-28.7c1.4-2,3.5-3.4,5.8-3.9l8.4-2
			l-10.2,14.5c0,0,21.5-5.6,52.9-9.5c0,0-31.1,13.1-34.6,17.3c-3.5,4.2-6,22.6-6,28.9C45.1,320.4,28.9,340.5,15.8,351.1z"/>
		<path class="st4" d="M38.3,305.5l-1.3,2.7c-0.3,0.7-0.9,1.2-1.6,1.4l-6.1,1.9l1.3-2.6c0.3-0.5,0.7-0.9,1.2-1.1L38.3,305.5z"/>
		<path class="st4" d="M33.2,315.2l-1.3,2.7c-0.3,0.7-0.9,1.2-1.6,1.4l-6.1,1.9l1.3-2.6c0.3-0.5,0.7-0.9,1.2-1.1L33.2,315.2z"/>
		<path class="st4" d="M27.9,325.4l-1.3,2.7c-0.3,0.7-0.9,1.2-1.6,1.4l-6.1,1.9l1.3-2.6c0.3-0.5,0.7-0.9,1.2-1.1L27.9,325.4z"/>
		<path class="st4" d="M21.5,335.4l-1.3,2.7c-0.3,0.7-0.9,1.2-1.6,1.4l-6.1,1.9l1.3-2.6c0.3-0.5,0.7-0.9,1.2-1.1L21.5,335.4z"/>
		<path class="st4" d="M27.7,309l-1.1,2.3c-0.3,0.6-0.7,1-1.3,1.1l-5,1.5l1-2.2c0.2-0.4,0.6-0.8,1-0.9L27.7,309z"/>
		<path class="st4" d="M22.9,318.4l-1.1,2.3c-0.3,0.6-0.7,1-1.3,1.1l-5,1.5l1-2.2c0.2-0.4,0.6-0.8,1-0.9L22.9,318.4z"/>
		<path class="st4" d="M18.7,328.4l-1.1,2.3c-0.3,0.6-0.7,1-1.3,1.1l-5,1.5l1-2.2c0.2-0.4,0.6-0.8,1-0.9L18.7,328.4z"/>
		<path class="st4" d="M18.9,312l-0.8,1.8c-0.2,0.4-0.6,0.8-1.1,0.9l-4,1.2l0.8-1.7c0.2-0.3,0.5-0.6,0.8-0.7L18.9,312z"/>
		<path class="st4" d="M10.5,322.4l4.2-1.5l-0.8,1.8c-0.2,0.4-0.6,0.8-1.1,0.9l-2.4,0.7L10.5,322.4z"/>
		<path class="st4" d="M46.6,303.6l-2.8,1c-0.5,0.2-1,0.6-1.2,1.1l-1.3,2.6l4.7-1.4L46.6,303.6z"/>
		<path class="st4" d="M43.6,312.4l-1.3,2.7c-0.3,0.7-0.9,1.2-1.6,1.4l-6.1,1.9l1.3-2.6c0.3-0.5,0.7-0.9,1.2-1.1L43.6,312.4z"/>
		<path class="st4" d="M37.9,322.4l-1.3,2.7c-0.3,0.7-0.9,1.2-1.6,1.4l-6.1,1.9l1.3-2.6c0.3-0.5,0.7-0.9,1.2-1.1L37.9,322.4z"/>
		<path class="st4" d="M31.3,332.4l-1.3,2.7c-0.3,0.7-0.9,1.2-1.6,1.4l-6.1,1.9l1.3-2.6c0.3-0.5,0.7-0.9,1.2-1.1L31.3,332.4z"/>
		<path class="st2" d="M47.1,297.1l-32.4,10.4c0,0,1.5-11.9,4.5-17.2s9.6-15.2,9.6-15.2s1.8-3,5.8-3.9s6.6-1.6,6.6-1.6l-11.9,16.5
			c0,0,26.6-6.6,48.6-9.6c0,0-27.7,11.3-28.9,14.9C47.8,295.1,47.1,297.1,47.1,297.1z"/>
	</g>
	<path class="st6" d="M1418.9,76.5l47.9,48.1c2.3,2.6,5.4,4.3,8.8,5.1c11.3,2.6,39.7,10.4,65.4,28.7c-16.7-18.3-63.5-69.9-92.6-91.8
		L1418.9,76.5z"/>
	<g>
		<path class="st7" d="M1565.3,207.7c0-1.6-0.6-3.2-1.8-4.2c-5.2-4.8-22.1-17.2-57.2-17.2c-43.4,0-77.6,6-77.6,9.5
			s32.1,39.9,57.9,46.6c25.8,6.7,63.5,7.8,68.8,5.3C1560.4,245.3,1564.9,225.2,1565.3,207.7z"/>
		<path class="st10" d="M1475.4,207.3h-30.7l2.5,2.7c0.5,0.6,1.3,0.9,2,0.9h27.6c0.4,0,0.7-0.4,0.5-0.8l-1.2-2.3
			C1476,207.4,1475.7,207.3,1475.4,207.3z"/>
		<path class="st10" d="M1479.7,212H1449l2.5,2.7c0.5,0.6,1.3,0.9,2,0.9h27.6c0.4,0,0.7-0.4,0.5-0.8l-1.2-2.3
			C1480.4,212.2,1480.1,212,1479.7,212z"/>
		<path class="st10" d="M1483.5,216.8h-29.2l2.5,2.7c0.5,0.6,1.3,0.9,2,0.9h26.2c0.4,0,0.7-0.4,0.5-0.8l-1.2-2.3
			C1484.1,217,1483.8,216.8,1483.5,216.8z"/>
		<path class="st10" d="M1487,221.6h-27.4l2.5,2.7c0.5,0.6,1.3,0.9,2,0.9h24.4c0.4,0,0.7-0.4,0.5-0.8l-1.2-2.3
			C1487.6,221.7,1487.3,221.6,1487,221.6z"/>
		<path class="st10" d="M1489.8,226.3h-24l2.5,2.7c0.5,0.6,1.3,0.9,2,0.9h20.9c0.4,0,0.7-0.4,0.5-0.8l-1.2-2.3
			C1490.4,226.5,1490.1,226.3,1489.8,226.3z"/>
		<path class="st10" d="M1493.6,231.1h-20.3l2.5,2.7c0.5,0.6,1.3,0.9,2,0.9h17.2c0.4,0,0.7-0.4,0.5-0.8l-1.2-2.3
			C1494.2,231.3,1493.9,231.1,1493.6,231.1z"/>
		<path class="st10" d="M1496.4,235.9h-16.3l2.5,2.7c0.5,0.6,1.3,0.9,2,0.9h13.2c0.4,0,0.7-0.4,0.5-0.8l-1.2-2.3
			C1497.1,236,1496.8,235.9,1496.4,235.9z"/>
		<path class="st10" d="M1478.9,201.4h56.2l-2.8-5.3c0,0-34.5,0-41.2,0C1484.3,196.1,1478.9,201.4,1478.9,201.4z"/>
		<path class="st10" d="M1537.4,196.1l2.8,5.3h20.9c0,0-4.1-3-7.2-4.7L1537.4,196.1z"/>
		<path class="st10" d="M1480.2,206.1c-0.6,0-0.9,0.6-0.6,1.1c3.9,5.5,21.9,30.3,32.3,33c11.8,3.1,33.6,4.7,33.6,4.7v-5.5
			c0,0-24.6-1.6-32.1-4.8c-7.1-2.9-26.1-25.7-28.3-28.3c-0.1-0.2-0.3-0.2-0.5-0.2H1480.2z"/>
		<path class="st10" d="M1548.4,245v-5.5l8.7,0.8c0.2,0,0.4,0.2,0.4,0.4v1.7c0,0.2-0.1,0.3-0.3,0.4L1548.4,245z"/>
		<path class="st8" d="M1542.4,217.6l2.5,18.2l-26.7-3.5c0,0-5.1-7.2-8.5-14.7l27.6-2L1542.4,217.6z"/>
		<path class="st4" d="M1501.2,204.5c-0.3,0-0.5,0.3-0.4,0.5c1.3,3.7,9.7,26.2,17,27.8c8,1.7,27.1,2.9,27.1,2.9l-0.2-1.2
			c0,0-22.5-1.5-26.4-3.2c-3.8-1.7-7.1-5-14.6-24.7c-0.1-0.3,0.1-0.5,0.4-0.5h2.8c0.8,0,1.6,0.2,2.3,0.7l6.4,4.2c1,0.6,2.1,1,3.2,1
			h20.6v-1.7h-20.2c-1.2,0-2.3-0.4-3.3-1l-6-4.1c-0.7-0.5-1.5-0.7-2.4-0.7H1501.2z"/>
		<path class="st6" d="M1546.3,217.6l2.1,17.5l4,0.7l7.3-1.1l2.4-1.4c0,0,1.6-6.7,2.6-15.7H1546.3z"/>
		<path class="st4" d="M1548.4,236.2v-1.1c0,0,9.5,0.2,13.7-1.8l-0.4,1.5C1561.7,234.7,1558,236.1,1548.4,236.2z"/>
		<polygon class="st4" points="1543.4,210.2 1543.4,212 1565.1,212 1565.2,210.2 		"/>
		<path class="st10" d="M1539.6,212.7l2.8,4.8h-32.7c0,0-2-4.5-4.6-10.3h2.5l6.2,4c1.6,1,3.5,1.6,5.3,1.6L1539.6,212.7z"/>
		<polygon class="st10" points="1543.4,212.9 1546.3,217.6 1564.7,217.6 1565,212.9 		"/>
	</g>
	<path class="st5" d="M517.1,233c0,0,19.1-23.5,19.1-27.8s0-9.9,0-15.8c0-5.9,3.1-16,21.4-24.7s36.9-1.9,41.2,3.5s8.2,23.8,7.8,35.3
		s-15.1,19.5-38.4,17.9c0,0-7,3.8-6.3,6.6s-0.5,13.4-10.1,15.3c-9.6,1.9-21.4,3.5-27.5,0S514.1,236.8,517.1,233z"/>
	<path d="M536.2,205.2c0,4.2-19.1,27.8-19.1,27.8c-3.1,3.9,0.9,6.8,7.1,10.4s17.9,1.9,27.5,0s10.8-12.5,10.1-15.3s6.3-6.6,6.3-6.6
		c23.3,1.6,37.9-6.4,38.4-17.9s-3.5-29.9-7.8-35.3c-1.5-1.9-4.6-3.9-8.9-5.4c0,0,2.8,1.2,6.1,9.4c2.7,6.7,4.7,20.7,5.4,25.7
		c0.1,1-0.6,1.9-1.6,2L536.2,205.2z"/>
	<path class="st8" d="M606.6,201.3l-49.3,4.9l2.8,2.5c0.8,0.7,1.9,1.1,3,1l43.2-4.1C606.3,205.7,606.6,203.7,606.6,201.3z"/>
	<g>
		<polygon class="st2" points="938.6,189.7 936.9,189.9 979.1,33.4 980.8,33.4 		"/>
		<path class="st2" d="M1232.9,60.4l27.1,5c4.9,1.1,15.8,2.6,20.3,4.3c6.5,2.5,11.3,8.1,16.6,12.4c6.6,5.7,24.5,21,31.3,26.9
			c4.8,4,2.7,12.2-3.4,13.5c-1,0.2-3.9,1-5,1.3c-18.2,4.6-41.8,10.4-60.2,14.9c-8.9,2.1-17.9,4.3-26.8,6.4
			c8.9-2.4,17.7-4.8,26.6-7.1c20.3-5.4,44.8-11.7,65-16.8c4.9-1,6.6-7.6,2.7-10.8l-41.6-36.1c-2.6-2.1-5.7-3.6-9-4.4
			C1266.1,67.4,1243.7,62.7,1232.9,60.4L1232.9,60.4z"/>
		<polygon class="st2" points="1305.8,134.9 1303,127.3 1304.5,126.7 1307.3,134.5 		"/>
		<polygon class="st2" points="1293.2,129.8 1264.4,57.7 1266.3,58 1294.7,129.2 		"/>
		<polygon class="st2" points="487.2,219.8 485.5,219.7 501.4,171.1 503.5,169.7 		"/>
		<path class="st2" d="M118.5,456.8c-5.9-23.4-12.2-49.7-17.6-73.3L98,371.3c-0.1-0.2-0.2-0.9-0.3-1.1c-0.2-0.8-0.9-1.5-1.8-1.6
			c-0.3,0-1.1,0-1.5,0h-6.3c-3.9,0-14.7-0.1-18.4,0c0.1,0.3,0.5,1.7,0.6,2.1c4.8,15.1,11.1,35.6,15.8,51c2.4,8,4.9,16,7.2,24.1
			c-4.5-13.8-11-33.9-15.6-47.8c-3.1-9.4-6.1-18.9-9.1-28.4l-0.1-0.4l-0.1-0.2c-0.3-0.9,0.4-1.9,1.3-2c0.7,0,2.1,0,2.8,0
			c2,0,13.5,0,15.7,0h6.3h0.8c1.8-0.2,3.7,1,4,2.8c0,0.2,0.2,0.9,0.3,1.1l2.8,12.2C107.7,406.7,113.6,433.2,118.5,456.8L118.5,456.8
			z"/>
		<path class="st2" d="M125.1,306.4c20.1-4.3,40.5-7.5,61-9.6C165.9,301.1,145.6,304.3,125.1,306.4L125.1,306.4z"/>
		<path class="st2" d="M83.9,274.9c-8.8,4.3-21.6,9.6-29.6,14.9c-1.7,1-3,2.4-3.8,4.3c-1.4,3.1-2.1,6.5-2.8,9.8
			c-1.1,5.4-1.8,10.9-2.5,16.4c0.1-5.6,0.4-11.1,1.3-16.7c1.1-5.4,1.8-12.1,6.9-15.2C62.9,282.6,73.3,278.6,83.9,274.9L83.9,274.9z"
			/>
		<path class="st2" d="M43.4,459.4c-6.1-0.2-28.1-0.6-28.4-8.6c0,1.3,0.8,2.5,1.8,3.2c5.3,3.5,12.3,3.5,18.5,3.9
			c2.6,0.1,4.7,0.1,7.3,0L43.4,459.4L43.4,459.4z"/>
		<path class="st2" d="M36.2,446.1c-5.8-0.2-22.1-0.8-22.3-8.6c0,1.1,0.4,2.1,1.1,2.8c4.5,4.6,14.2,4.4,20.3,4.2
			C35.3,444.5,36.2,446.1,36.2,446.1L36.2,446.1z"/>
		<path class="st2" d="M28.4,432.7c-5.7-0.2-15.8-1.1-15.9-8.5c0.1,1.7,0.9,3.3,2.2,4.3c4,2.9,8.6,2.9,13.4,2.7l0.8,1.6L28.4,432.7z
			"/>
		<path class="st2" d="M529,217.5c1-3.3,2.9-6.1,5.6-8.4C533.8,212.5,531.7,215.5,529,217.5L529,217.5z"/>
		<path class="st2" d="M606.6,204.3c0.6,2.3-0.2,4.9-1.7,6.7c-0.5,0.6-1.2,1.1-2,1.4c0.3-0.8,0.6-1.4,0.9-2.1
			C604.7,208.2,605.4,206.2,606.6,204.3L606.6,204.3z"/>
	</g>
</g>
</svg>
