<?xml version="1.0" encoding="utf-8"?>
<!-- Generator: Adobe Illustrator 28.5.0, SVG Export Plug-In . SVG Version: 9.03 Build 54727)  -->
<svg version="1.1" baseProfile="tiny" id="Réteg_1"
	 xmlns="http://www.w3.org/2000/svg" xmlns:xlink="http://www.w3.org/1999/xlink" x="0px" y="0px" viewBox="0 0 4015.8 1429.3"
	 overflow="visible" xml:space="preserve">
<g id="Réteg_2_00000003097002974690550810000017457417504758390912_">
	<path fill="#AA4805" d="M2299.7,0c-42,0-153.1,1.3-278.5,13.4c-155.7,15-279.3,40.9-367.6,77c-2.3,0.9-83.6,32.2-204.9,89.1
		c-71.9,33.8-143.6,69.8-213,107.1c-86.6,46.5-170.1,95.2-248,144.6c-19.2,2.5-429.9,55.6-576.2,94c-72.5,19-136.9,40.6-191.5,64
		c-51.2,22-92.1,45.3-118,67.2c-1.2,1-1.6,2.6-1.1,4s1.9,2.4,3.4,2.4h2.4l-25.5,42.5c-3.6,1.8-19,9.8-34.2,20.3
		c-23.8,16.4-35.9,31-35.9,43.4c0,20.5,2,72.4,20.6,114.7c-0.5,1-2.4,2.3-7.2,2.3h-3v3v118.6v3h3h1l14.2,28.1
		c-1.1,5.9-8.1,39.9-35.5,85.5c-3.2,5.3-4.6,11.2-4,17.1c0.8,8.6,4.2,20,16,25.3c19.5,8.7,178.7,45.5,255.7,48.3
		c46.8,1.7,70.4,2,81.9,2c7.5,0,9.6-0.2,9.7-0.2l3.4-0.2l-0.6-3.3c-15.9-82.4-17.4-157.3-4.5-222.7c11.8-59.5,35.6-111.3,70.6-153.7
		c34.5-41.8,79.1-74,132.7-95.7c25-10.1,51.7-17.8,79.6-22.9c27-4.9,55.1-7.5,83.5-7.5c53.1,0,101.9,8.1,145.1,24.1
		c46.7,17.3,86.9,44,119.7,79.2c40,43.1,69.4,99.6,87.2,167.9c19.4,74.5,25.4,164.1,17.9,266.6l-0.2,3.2h3.2l1760.5-5.6h3.2
		l-0.2-3.2c-7-98.6-0.5-185.7,19.3-258.8c18.3-67.5,48-123.7,88.4-167.1c33.4-35.9,74.3-63.1,121.4-81
		c44.3-16.8,94.1-25.3,147.9-25.3c56.9,0,109.2,8.6,155.4,25.4c49.5,18.1,91.9,45.8,125.9,82.2c37.3,40,64.9,91,81.8,151.6
		c18.3,65.4,24.5,142.9,18.4,230.3l-0.3,3.8l3.7-0.6c78.3-12.4,290.8-52.3,327.8-73.1c25.8-14.5,33.8-26.6,36.3-32.6
		c1.1-2.6,1-5.6-0.3-8.1c-1.8-3.6-7.4-16.1-3.8-23.6c2.8-5.8,27.1-57.7,29.3-95.8c0.2-3.8-0.8-7.6-3-10.7l-15.1-21.9
		c-0.7-1.5-6.5-15.7-4.3-52.9c2-34.3,1-70.3,0.6-80.9h4.6c3.9,0,7.1-3.2,7.1-7.1V786c0-17.8-4.3-29.5-12.1-44.7
		c-6.4-12.4-26-50.3-21.4-72.8c1.6-7.9,6-24.4,11.1-43.6c10.1-38.2,21.6-81.6,21-92.2c-1-15.7-9.7-42.4-10-43.6V489v-0.1
		c-0.1-0.3-10.9-27.2-2.1-49c1.1-1.9,4.1-9.7-9.8-22.6c-1.2-1.2-16.1-15.9-62.3-46.6c-43.4-28.8-123.7-77.7-260.4-147.3
		c-2-1.3-35.6-22.3-64.2-52.3c11.9-3.3,44.2-12,68.6-14.8c2.6-0.3,4.6-2.5,4.6-5.2c0-2.5-1.7-4.6-4.1-5.1
		c-19.4-4-197-40.5-448.8-75.9c-145.1-20.4-287.4-36.6-423.1-48.2c-168.4-14.5-327.1-21.8-472-21.8C2320.1,0.1,2312.6,0,2299.7,0
		L2299.7,0z"/>
	<polygon fill="#343434" points="361.2,1211.8 1107,1245.4 2861.1,1240 3630.4,1193.4 3757,892 3385.3,504.4 515.9,603.3 259.7,765 
			"/>
	<path fill="#EE7019" d="M4012.7,969.8c0.2-3.1-0.7-6.2-2.5-8.8l-15.3-22.1c0,0-7.1-13.6-4.7-54.6c2.4-40.9,0.5-83.8,0.5-83.8h7.7
		c2.3,0,4.1-1.8,4.1-4.1V786c0-17.4-4.2-28.7-11.8-43.3c-7.5-14.6-26.4-51.8-21.6-74.8c4.7-23.1,32.9-119.5,32-135.1
		c-0.9-15.5-9.9-42.8-9.9-42.8s-11.5-28.2-2-51.5c0,0,4.6-6.4-9.2-19.1c0,0-57.6-58.8-322.1-193.4c0,0-37.6-23.1-68.2-56.5
		c0,0,42.9-12.6,73.8-16.3c1.1-0.1,2-1.1,2-2.2c0-1-0.7-1.9-1.8-2.2C3625.1,140.8,2953.8,3,2320.6,3c0,0-427.8-7.4-666,90
		c0,0-324,123.9-666,340.9c0,0-425.9,54.5-576.5,94c-149.3,39.2-257.4,87.6-308.3,130.6c-0.5,0.4-0.2,1.1,0.4,1.1h7.7l-28.7,47.8
		c0,0-69.2,34.1-69.2,61.4c0,27.3,3.3,75.3,20.7,114.4c0,0,0,5.6-10.4,5.6v118.6h2.8l15.5,30.6c0,0-5.3,36.4-36.1,87.5
		c-2.8,4.6-4.1,9.9-3.6,15.3c0.7,7.8,3.8,18.1,14.3,22.8c17.9,8,176,45.2,254.6,48s91.3,1.9,91.3,1.9
		c-69.6-360.1,147-506.1,364.8-506.1s402.7,135.4,372.8,541.1l1760.5-5.6c-27.6-389.8,156.9-535.4,380-535.4
		s409.8,130.8,384.5,492.7c84.7-13.4,291.5-52.9,326.8-72.7c25.2-14.1,32.7-25.7,35-31.2c0.8-1.8,0.7-3.9-0.2-5.7
		c-2.5-5.1-7.8-17.8-3.8-26.3C3988.6,1054.2,4010.7,1005.4,4012.7,969.8z"/>
	<g>
		<path fill="#AA4805" d="M1107,1028.1C1080.9,880.9,1005.8,760,856.5,716c-160.3-44.6-359.3-5.3-456.6,138.9
			c-16,23.4-28.6,49.2-38.6,75.7c-1.8,5.6-4.6,13.5-6.4,19.1c-10.4,34.9-16.4,71.9-18.4,108.2c1.7-37.1,7.3-75,18-110.7
			C378.2,867.3,430.3,798,502,755c105.3-63,238-74.3,355.3-41.7C1007.4,757.9,1082.4,879.8,1107,1028.1L1107,1028.1z"/>
		<path fill="#AA4805" d="M3630.4,978c-28.1-112.1-97.8-206.3-206.6-250.4c-100.7-41-227.1-44.9-330.2-10.3
			c-85.7,28.6-157.4,92.5-197.5,173.2c-0.7,1.6-4.9,9.5-5.7,11.3c-1.9,4.3-5,11.1-6.9,15.4c-1.9,4.1-6.2,15.5-7.9,19.6
			c-9.7,26.2-17.5,53.8-23.2,81.1c5.4-27.4,12.9-55.1,22.3-81.5c1.4-3.4,6.3-16.8,7.7-19.7c1.9-4.3,4.9-11.2,6.8-15.5
			c1.1-2.2,4.4-9.1,5.6-11.4c39.9-81.6,111.6-146.2,198-175.1c104.4-35.2,230.2-31.1,332.1,10.5C3534.1,769.9,3603.4,865,3630.4,978
			L3630.4,978z"/>
		<path fill="#AA4805" d="M1124.2,849.5C1073.5,744.9,983,668.5,870.4,639c-194.1-51.1-434,4.2-540.6,186
			c-8.7,14-16.7,30.3-23.6,45.3c-11.1,25.9-20.3,53.3-26.7,80.8c5.1-22.2,11.5-44,19.5-65.3l6.3-15.8l7.1-15.5
			c1.9-4.3,5.5-10.9,7.7-15.2c2.5-5.1,5.5-10,8.3-14.9C434.2,640.7,676.3,584.3,871,636.5C984.1,666.5,1074.5,743.8,1124.2,849.5
			L1124.2,849.5z"/>
		<path fill="#AA4805" d="M3643.9,804.8c-18.6-30.3-41.1-58.2-66.9-82.7c-25.9-24.2-54.9-45.3-86.3-61.9
			c-33.8-18.2-70.3-31.5-107.6-40.6c-167-39.4-364.7-13.4-485.1,118.4c-52.7,56.2-87.7,127.3-109.4,200.8c-2.5,8.4-4.6,17.3-7,25.7
			c-1.8,7.3-4.3,19-6,26l3.8-17.4l1.9-8.7c2.3-8.5,4.4-17.4,6.7-25.8l5.1-17l1.3-4.3c3.3-9.7,6.6-19.9,10.3-29.4
			c78.5-210.9,264.5-302.9,482.2-286C3434.7,612.5,3566.2,674.9,3643.9,804.8L3643.9,804.8z"/>
		<path fill="#AA4805" d="M2130,1089.1c-11.7-217.1,0.6-386.2,12.7-509.2c8.9-91.2,25.7-155.5,33.3-176.8l2.8,1
			c-7.5,21.2-24.2,85.3-33.1,176.1c-12.1,122.9-24.4,291.8-12.7,508.7L2130,1089.1z"/>
		<path fill="#AA4805" d="M1173.5,1139.9c-19.2-143.4-41.3-393.7-23.3-495.8c17.4-98.8,49-171.1,49.3-171.8l3.3-0.2
			c-0.3,0.7-32.3,74.1-49.6,172.5c-18,101.7,4.1,351.7,23.3,494.8L1173.5,1139.9z"/>
		<path fill="#AA4805" d="M505.8,697.2L485,677.6c-39.5-26.1-78.5-38.9-78.8-39l1-2.8c0.3,0.1,39.7,13,79.5,39.4l0.2,0.2l21,19.8
			L505.8,697.2z"/>
		<path fill="#AA4805" d="M358.5,627.1l-1.7-2.5c0.7-0.5,21.5-14.8,65.5-31.2c73.4-27.4,161.5-45.1,222.5-55.2l1.4-0.2
			c166.7-27.5,192.3-31.8,218.1-41.7c14.3-5.5,28.4-12.7,42-21.3c18.2-11.5,42.8-27.7,56.4-38.9l1.9,2.3
			c-13.7,11.3-38.4,27.5-56.7,39.1c-13.7,8.7-28,15.9-42.5,21.5c-26.1,10.1-51.8,14.3-218.7,41.9l-1.4,0.2
			C434.7,576,359.2,626.6,358.5,627.1z"/>
		<path fill="#AA4805" d="M3081.7,664.4l-3.2,0.4c0.2-0.8,21.3-82.4,29.6-121.9c7.7-36.2,10.8-62.8,10.8-91.9
			c0-25.6-49.9-107.3-50.4-108.1l3.1-0.2c2.1,3.3,50.3,81.8,50.3,108.3c0,29.3-3.1,56.1-10.9,92.5
			C3102.7,583.1,3081.9,663.6,3081.7,664.4z"/>
		<polygon fill="#AA4805" points="3063.5,745.6 3060.1,747.3 3073.7,685.2 3076.9,684.8 		"/>
		
			<rect x="3336.5" y="573.7" transform="matrix(0.7149 -0.6993 0.6993 0.7149 580.142 2573.1406)" fill="#AA4805" width="217.4" height="3"/>
		<path fill="#AA4805" d="M4002.1,776.5c-107.6,14.1-216.7,25.1-324.8,35.3c80.7-8.3,163.1-17.4,243.5-27.5c27-3.4,54-6.9,80.9-10.8
			L4002.1,776.5L4002.1,776.5z"/>
		<path fill="#AA4805" d="M3990.2,802.6c-1.6,0-4.7-2.2-16.8-26.8c-1-2-2-4-3-6c-14.9-30.1-33.4-67.6-24.9-104.8
			c2.2-9.5,5.1-19.9,8.3-30.9c9.7-34,20.7-72.5,12.5-100.6c-10.7-37-15.1-51.2-15.1-51.3l2.7-1.2c0.2,0.3,4.4,14.3,15.3,51.7
			c8.4,28.9-2.7,67.9-12.5,102.2c-3.1,11-6.1,21.3-8.3,30.7c-8.3,36.1,10,73.1,24.7,102.8c1,2,2,4.1,3,6
			c11.1,22.6,14,24.9,14.5,25.2c-0.1-0.1,2,0.9,1.6,1.1c-0.1,0.1,0-0.4,0,0l0,0c-0.1,0.8-0.6,1.7-1.6,1.8
			C3990.5,802.5,3990.4,802.6,3990.2,802.6z"/>
		<path fill="#AA4805" d="M3943.4,435.1c-9.4-32.9-69.8-64.9-109.7-86c-8.1-4.3-15.8-8.4-22-11.9c-20.7-11.7-32-20.9-32.8-26.5
			c-0.2-1.6,0.5-2.5,0.7-2.7l2.8,0.4c0.1-0.1-0.5,1.6-0.5,1.6c0,0.1-1.8,6,31.3,24.7c6.2,3.5,13.9,7.6,21.9,11.8
			c42.8,22.7,102.5,54.5,112.3,88.7h-4V435.1z"/>
		<polygon fill="#AA4805" points="1178.1,420.2 1143.8,378.8 1146.2,376.9 1180.4,418.3 		"/>
		<path fill="#AA4805" d="M3668.6,418.3c-779.1,43.9-1621.8,88-2397.9,137.8c-58.6,4-144.3,10.2-203,15.5
			c59-5.6,144.2-12.1,202.9-16.4C2063,501.4,2874.9,459.4,3668.6,418.3L3668.6,418.3z"/>
	</g>
	<path fill="#CAE4ED" d="M1654.6,93.1c0,0-324,123.9-666,340.9c0,0,102.1-24.5,156.3-56.2c54.2-31.7,353.9-208.6,545.2-279.1
		L1654.6,93.1z"/>
	<path d="M3589.7,169.5c30.6,33.4,68.2,56.5,68.2,56.5c108.3,55.1,181.9,97.5,231,128.4c-57.2-30.1-228-90.3-326.4-125.1
		s-314-93.3-314-93.3c2.1-31.1-17.1-60.7-17.1-60.7c87.6,12.5,165.8,25,230.8,36.1l5.8,1l-99.9,34c-4.2,1.4-4.1,7.5,0.2,8.7l136,41
		C3504.3,196.2,3563.7,176.4,3589.7,169.5z"/>
	<path d="M3995,938.9l15.3,22.1c1.8,2.6,2.6,5.7,2.5,8.8c-2,35.5-24.1,84.4-29,94.7c-4.1,8.5,1.3,21.2,3.8,26.3
		c0.9,1.8,0.9,3.8,0.2,5.7c-2.3,5.5-9.9,17.1-35,31.2c-35.3,19.8-242.1,59.3-326.8,72.7c4.9-70.3,1.8-131.9-8-185.5l43.3-4.2
		c-37.1-243.6-218-354.5-419.1-354.5c-204.2,0-389.9,115.8-416.9,398.1l41.4-1.9c-8.2,55.7-10.3,119.1-5.2,190.8l-1760.5,5.6
		c2.7-37.2,3.7-72.1,2.9-104.9l35.3-1.5c0-348.2-196.8-482.8-413.1-482.8c-222.4,0-439,141.6-413,484.3h40
		c2.2,22.4,5.6,45.7,10.3,69.9c0,0-12.7,0.9-91.3-1.9s-236.7-40-254.6-48C7,1159.2,4,1148.8,3.2,1141.1c-0.5-5.3,0.8-10.7,3.6-15.3
		c30.8-51.2,36.1-87.5,36.1-87.5s29.3,98.9,58.5,101.3s201.1,4.3,201.1,4.3c-30.9-354,196.2-499.5,424.5-499.5
		c222.4,0,424.7,127.9,424.7,497.4l1657-86.8c28.4-295.7,220.7-417.3,433.4-417.3c209.4,0,391.2,103.2,435.5,370.6
		c0,0,66.9-4.6,89.1-21.6c22.1-16.9,98.8-88,122.8-98.4s47.5-15.1,68.7-15.5c21.2-0.5,22.1,8,22.1,67.8L3995,938.9z"/>
	<path d="M69.1,954.6c-0.4,9,1.1,18,4.3,26.4c6.1,16.1,18.6,44.2,33,49.9c20.5,8.1,41.6,6.4,41.6,6.4s6.7,0,16.6,0
		c9.9,0,34.9-1.1,46.6-13.4c11.6-12.4,16.2-43.8,14.8-80.7s-4.9-119.8-11.6-140.6s-22.9-26.8-30-26.8s-48,3.2-70.6,16.2
		c-22.6,13.1-32.5,39.9-35.3,64.2C76.2,875.7,70.1,927.5,69.1,954.6z"/>
	<path d="M1339.3,580.8l-369,25.2c-2.3,0.2-4,2-4,4.3l0,0c0,1.3,0.6,2.6,1.6,3.4c7.6,6.1,40.5,31,62.4,29.7
		c24.9-1.4,176-11.8,200.5-14.1c24.5-2.4,59.3-15.1,78.1-22.6c14.3-5.7,27.8-12.8,33.4-15.9c1.7-0.9,2.8-2.8,2.8-4.7l0,0
		C1345,583.1,1342.4,580.6,1339.3,580.8z"/>
	<polygon fill="#CAE4ED" points="1386.2,454.6 1810.2,422.1 2335.9,388.4 2997.5,344.7 3142.9,313.9 3240.4,259.8 3158.9,199.1 
		2983.1,141.7 2753.3,99.8 2412.1,67.3 2128.4,70.6 1873.8,95.6 1710,143.6 1535.9,214.1 1384.4,300.2 	"/>
	<path d="M3287.2,221.5c-20.8-8.8-116.8-50.2-322.5-95.4c0,0-341.2-74.1-723.8-74.1c0,0-264.7,2.8-436.2,48.7
		S1406,267.2,1247.8,369.6c0,0-71.3,48.5-89.6,64.5c-8.9,7.7-13.6,14.1-16,18.7c-3,5.6-2.6,12.6,1.4,17.5c2.4,3,6.2,5.3,12,4.9
		c0,0,224.9-14.6,376-26.6s519.3-37.2,645.8-45.1s825.5-54.7,904.6-61.8c79.1-7.1,168.9-47.5,200-61.6s37.8-21.3,37.8-30.8
		C3319.7,239.8,3308.1,230.3,3287.2,221.5z M3058.3,278.1l4.2-58.4c0.8-11.2,11.8-18.7,22.5-15.4l88,26.8c22,6.7,21.9,38-0.3,44.4
		l-86.4,25.2C3071.7,305,3057.3,293.3,3058.3,278.1z M2962.6,148.9c6.6,1.5,13.4,2.9,20.4,4.4l-8.4,186.6
		C2791,353,2432.5,377,2257.5,388.5L2277,74.7c109.7,1.2,271.1,8.2,467.7,35.6C2876,128.6,2961.8,148.7,2962.6,148.9z M1530.8,438.7
		c-34.7,2.8-73.5,5.7-112.6,8.5V289.4c36-17.2,72.2-34,107.5-51.5c106.3-52.8,203.6-92.1,281.6-112.9
		c121.7-32.6,292.8-44.4,379.2-48.4L2109.6,398C1952.1,408.3,1662.9,428.2,1530.8,438.7z"/>
	<path fill="#EE7019" d="M1271.4,426.2c0,0-16.2-37.1-14.8-48.4c1.4-11.3,23.3-36.3,61.8-58.5s84.7-24.4,102.4-10.2
		c17.6,14.1,24.4,39.5,27.2,61.4c2.8,21.9-9.2,63.9-17.6,70.2s-53.6,9.2-53.6,9.2s-0.7,21.2-15.2,21.5s-131.6-7.1-130.2-24.4
		C1232.5,429.8,1271.4,426.2,1271.4,426.2z"/>
	<path d="M1260.1,396.7c4.4,14,11.2,29.6,11.2,29.6s-38.8,3.5-40.2,20.8c-1.4,17.3,115.8,24.7,130.2,24.4s15.2-21.5,15.2-21.5
		s45.2-2.8,53.6-9.2s20.5-48.4,17.6-70.2c-2.8-21.9-9.5-47.3-27.2-61.4c-4.4-3.5-10.6-6-18-7.5c0,0,32.1,26.9,34.3,68.5
		c0,0,0.1,15.4-0.8,19.2l-176.4,5.9L1260.1,396.7z"/>
	<path fill="#D76B1D" d="M1284.5,394.4l2.7-5.7c1.8-3.8,5.6-6.3,9.8-6.5l139.8-5.2c0,0-0.2,7.2-0.3,8.7c-0.1,1.4-0.5,3.6-0.5,3.6
		L1284.5,394.4z"/>
	<path fill="#991915" d="M3980.2,932.8l-158.4,19.4c-0.9,0.1-1.4-1-0.8-1.6c10.5-9.9,58.3-53.9,86.1-63.3
		c31.4-10.6,39.7-10.3,53.3-9.9c13.6,0.4,18.4,12,18.9,20.5s0.8,20.8,0.8,25.4C3980.2,927.8,3980.2,932.8,3980.2,932.8z"/>
	<path fill="#C4C4C4" d="M1162.5,592.9l-151.8,10.4c-1.4,0.1-1.7,2-0.4,2.6l13.2,5.2c5,2,10.3,2.8,15.7,2.6l54.3-2.9
		c3.9-0.2,7.6-1.2,11.1-2.9l6.6-3.3c3.4-1.7,7.1-2.7,10.9-2.9l38.9-2.4C1161,599.2,1161.7,596.3,1162.5,592.9z"/>
	<path fill="#C4C4C4" d="M1170.7,592.3l-0.9,6l164.1-10.8c1.4-0.1,2.4-1.2,2.4-2.6v-1.2c0-1.5-1.3-2.7-2.8-2.6L1170.7,592.3z"/>
	<path fill="#C4C4C4" d="M69.4,947.8c0,0,102.5-11.1,134.8-11.9c1.8,0,3.3-1.5,3.3-3.3v-3.5c0-1.9-1.6-3.4-3.5-3.3
		c-4.3,0.2-11.9,0.5-20.1,0.9c-2,0.1-3.9,0.7-5.6,1.8l-4.3,2.9c-1.5,1-3.3,1.6-5.1,1.8c-13.8,1.3-75.5,7.1-99.2,10L69.4,947.8z"/>
	<g>
		<path d="M83.2,707.6l28.7-47.8l248.9-36.4c0,0,41.1,5,51.9,14.2c0,0-51.5,12.2-128.2,28.9S83.2,707.6,83.2,707.6z"/>
		<path fill="#252525" d="M318.6,637.7l26.4-3.4l-38,17.8c-7.1,3.3-14.6,5.8-22.4,7.4L88.5,698.8l5.5-9.1l30.2-14.1L280.9,647
			L318.6,637.7z"/>
		<path fill="#E9F2F4" d="M106.7,668.6l211.9-30.9l-29.1,12.1c-5.3,2.2-10.9,3.9-16.5,5L94,689.7L106.7,668.6z"/>
		<path fill="#C4C4C4" d="M94,689.7l179-34.9c0,0,9.8-2.2,16.5-5s29.1-12.1,29.1-12.1l-32,10.8c-4.8,1.6-9.6,2.9-14.5,3.8
			L96.5,685.6L94,689.7z"/>
	</g>
	<g>
		<polygon fill="#252525" points="198,838.6 196,836 191.7,849.4 197,862.4 198.9,859.7 194.8,849.3 		"/>
		<path fill="#CAE4ED" d="M199.5,838.6l-1.4,0.1c0,0-3.5,5-3.2,10.7s4.1,10.4,4.1,10.4l1.4-0.1l6.8-10.8L199.5,838.6z"/>
		<path fill="#C4C4C4" d="M202.5,834.6c-0.4-0.6-1.1-0.9-1.7-0.8l-6.5,0.3l11.1,14c0.4,0.6,1,0.9,1.7,0.8c-0.6,0-1.2,0.4-1.6,1
			l-9.9,14.8l6.5-0.3c0.6,0,1.2-0.4,1.6-1l9.7-14.8L202.5,834.6z"/>
		<polygon fill="#C4C4C4" points="194.4,834 193.6,834 188.4,849.6 194.8,864.6 195.6,864.6 189.2,849.5 		"/>
		<polygon fill="#8F8F8F" points="196,836 194.4,834 189.2,849.5 195.6,864.6 197,862.4 191.7,849.4 		"/>
	</g>
	<g>
		<polygon fill="#252525" points="200,872.9 197.9,870.3 193.6,883.7 198.9,896.7 200.8,893.9 196.7,883.5 		"/>
		<path fill="#CAE4ED" d="M201.4,872.8l-1.4,0.1c0,0-3.5,5-3.2,10.7c0.2,5.7,4.1,10.4,4.1,10.4l1.4-0.1l6.8-10.8L201.4,872.8z"/>
		<path fill="#C4C4C4" d="M204.5,868.8c-0.4-0.6-1.1-0.9-1.7-0.8l-6.5,0.3l11.1,14c0.4,0.6,1,0.9,1.7,0.8c-0.6,0-1.2,0.4-1.6,1
			l-9.9,14.8l6.5-0.3c0.6,0,1.2-0.4,1.6-1l9.7-14.8L204.5,868.8z"/>
		<polygon fill="#C4C4C4" points="196.3,868.3 195.5,868.3 190.4,883.8 196.7,898.8 197.5,898.8 191.2,883.8 		"/>
		<polygon fill="#8F8F8F" points="197.9,870.3 196.3,868.3 191.2,883.8 197.5,898.8 198.9,896.7 193.6,883.7 		"/>
	</g>
	<path fill="#CAE4ED" d="M3690.5,242.7l111.4,67.5c4,2.4,8.3,4.3,12.8,5.6l20.8,6.2l-58.5-33.1
		C3776.9,288.8,3702,248.6,3690.5,242.7z"/>
	<g>
		<path d="M3991.2,490c0,0-11.5-28.2-2-51.5c0,0-10.6-3.8-52-3.8s-210.9,11.7-272.7,16.3s-86.8,11.3-107.6,24s-34.1,25.8-34.1,25.8
			s357.7-15.5,420.6-15.5C3943.3,485.2,3973,484.3,3991.2,490z"/>
		<polygon fill="#D76B1D" points="3698,478.1 3943.3,469 3942.5,460.4 3836.3,462.9 3728.5,469.2 		"/>
		<path fill="#252525" d="M3600.9,481.5l97.1-3.4c13.3-0.5,26.1-5,36.7-13.1l11.7-8.6c0,0-97.5,7.8-121.5,14.6
			c-14.1,4-21.1,6.9-24.4,8.7C3599.6,480.2,3599.9,481.6,3600.9,481.5z"/>
		<path fill="#E51B2A" d="M3746.4,456.5l-17.8,12.7c0,0,192.1-8.8,214-8.8l-1.5-13.6L3746.4,456.5z"/>
		<path fill="#E51B2A" d="M3955.5,446.8l1.6,13.6l28.3-0.9c0,0,0-8.7,1.5-13.9L3955.5,446.8z"/>
		<path fill="#CAE4ED" d="M3957.1,460.4l0.9,8.1l27.8-1.3c0,0-0.4-4.1-0.4-7.7L3957.1,460.4z"/>
	</g>
	<g>
		<polygon fill="#252525" points="3076.9,684.8 3073.5,686.1 3078.5,664.8 3081.8,663.7 		"/>
		<path fill="#252525" d="M4012.5,966.3c-5.6,1.9-11.2,2.8-17,4c-7.7,1.5-16.1,3-23.8,4.3c-113.1,18.1-227.5,30.4-341.3,43.2
			c107.7-12.9,215.9-25.7,323-42.8c13.5-2.3,28.2-4.8,41.5-7.5c5.5-1.2,11.5-2.3,16.8-4.1C4011.7,963.5,4012.5,966.3,4012.5,966.3
			L4012.5,966.3z"/>
		<path fill="#252525" d="M3949.7,936.5c3,0,0.8,0,1.5,0c-0.1,4.3,2.2,8.3,5.6,10.9c7,6.2,14,12.4,20.6,19c2.6,2.8,5.6,5.3,7.2,8.8
			c0.2,0.5,0.1,1.2,0.1,1.7c-0.9,9.9-2.4,19.7-4,29.5c-2.4,13.8-5.2,27.6-9.2,41c-1.4,4.5-2.9,8.9-4.7,13.2
			c-3.8,8.6-9.5,16.1-15.6,23.2c-12.3,14.1-26.3,26.5-41,37.9c19.5-15.8,45.3-38.6,55.6-61.6c3.5-8.6,5.8-17.6,7.9-26.7
			c4.1-18.9,7.2-38.3,8.7-57.6c-1.4-2.9-4.5-5.5-6.8-7.9c-3.3-3.2-6.7-6.4-10.2-9.5s-7-6.1-10.5-9.2c-1.9-1.5-3.8-3.4-4.9-5.6
			c-1.2-2.3-1.8-4.8-1.9-7.3C3948.9,936.6,3946.7,936.5,3949.7,936.5L3949.7,936.5z"/>
		
			<rect x="1103.3" y="1198.5" transform="matrix(1 -6.347400e-03 6.347400e-03 1 -7.5771 12.5996)" fill="#252525" width="1755.7" height="3"/>
		
			<rect x="2132.3" y="1088.9" transform="matrix(0.999 -4.362405e-02 4.362405e-02 0.999 -47.8743 94.174)" fill="#252525" width="3" height="110.1"/>
		
			<rect x="1177" y="1139.4" transform="matrix(0.9944 -0.1053 0.1053 0.9944 -116.899 130.6156)" fill="#252525" width="3" height="65.8"/>
		<path fill="#252525" d="M1252.1,1206.1l-0.6-2.9c1.7-0.3,168.5-33.6,327.7-42c116.7-6.1,329.2-11.6,469.9-15.2
			c53.9-1.4,100.4-2.6,128.1-3.5c105-3.3,153.4-2.2,251.4,11.6c99.2,14,203.1,40,204.2,40.3l-0.7,2.9c-1-0.3-104.8-26.3-203.8-40.2
			c-97.8-13.8-146.1-14.9-250.9-11.6c-27.7,0.9-74.3,2.1-128.2,3.5c-140.6,3.6-353.2,9.1-469.8,15.2
			C1420.4,1172.6,1253.8,1205.8,1252.1,1206.1z"/>
		<path fill="#252525" d="M970.3,610.9c7.1-1.1,14.1-1.8,21.2-2.5c5.9-0.3,12-1.8,17.7,0.1c4.7,1.5,13,4.2,17.7,5.8
			c4.8,1.5,6.6,7.9,3.3,11.6c-3.1,4.1-6.5,8.7-9.8,12.7c1.7-3.1,3.6-6.2,5.4-9.2c0.5-0.8,3.1-4.9,3.4-5.6c1.3-2.7-0.3-6.1-3.1-6.9
			l-1.3-0.4c-4.1-1.2-12.5-3.8-16.5-5.2c-5.4-1.8-11.1-0.5-16.7-0.6C984.5,611,977.4,611.1,970.3,610.9L970.3,610.9z"/>
		<path fill="#252525" d="M1112.4,635.4l-5.6-5.2c-0.8-0.8-2.1-1.8-2.6-2.9c-0.6-1.2-0.7-2.6-0.7-3.9l-0.1-3.8v-1.9
			c-0.2-2,0.6-4.2,2.3-5.6c0.9-0.8,2.3-1.4,3.3-2.1l6.6-3.8c1.2-0.7,2.6-1.1,4-1.3c66.8-5.2,135.1-9.6,202-12.1
			c-65.4,6-132.5,10.3-198,13.7l-3.8,0.2c-1.1,0.1-2.3,0.4-3.3,0.9l-6.7,3.6l-1.7,0.9c-2.2,1-3.7,3-3.6,5.5c0,1.2-0.1,4.5-0.1,5.7
			c-0.2,1.9,0.1,3.7,1.4,5.1C1106.6,629.4,1111.4,634.4,1112.4,635.4L1112.4,635.4z"/>
		<path fill="#252525" d="M1154.9,635.1l-3.1,0.2c3.2-19.1,9.1-42.1,9.1-42.3l3.2-0.2C1164,593,1158.1,616.1,1154.9,635.1z"/>
		<polygon fill="#252525" points="1202.8,472.1 1199.5,472.4 1236.8,377.2 1241.2,374.1 		"/>
		<path fill="#252525" d="M1259.7,395.2c4,10.2,7.6,20.8,12.6,30.5l0.8,1.4l-1.7,0.2c-11.4,1.5-23.9,3.8-33.2,10.8
			c-2.9,2.4-5.1,5.5-5.6,9.1l-0.3,0.8c0.6,9.2,48.6,16.3,58,18.2c-10.3-0.8-61.8-5.3-61-18.5c0.1-0.6,0.3-1.1,0.7-1.7l-0.3,0.8
			c2.6-16.3,28-20.7,41.6-21.7l-0.9,1.6C1265.7,416.6,1262.7,405.9,1259.7,395.2L1259.7,395.2z"/>
		<path fill="#252525" d="M1253.1,385.7c-21.7,15.9-46.8,33.5-68.3,49.7c-8.2,6.4-16.9,12.6-24,20.2c-0.7,1-2,2.1-1.5,3.3
			c3.2,4.4,18.6,4.4,24.1,4.7c7,0.2,14.1,0,21.1-0.2c-7,0.9-14,1.4-21.1,1.7c-5.4,0-30.3,1.2-26.3-8.7c2.4-4,6-6.9,9.3-10
			C1193.5,423.6,1223.1,404.3,1253.1,385.7L1253.1,385.7z"/>
		<path fill="#252525" d="M2983.1,143.3c76.7,16.5,154.2,33.2,227.3,62.5c6,2.6,12,5.4,17.8,8.6c5.8,3.1,11.3,7.2,16.1,11.8
			c4.9,4.4,9.7,8.8,14.4,13.5c4.7,5,10.2,10,12.2,16.9c0.9,3.8-1.3,7.2-4,9.4c-7.5,6.6-17,10.5-25.9,14.7
			c-35.9,16.1-72.8,30.1-110.5,41.5c-18.9,5.5-38,10.7-57.6,12.9c-6.5,0.7-13.1,1.2-19.6,1.7c-26.1,1.9-52.3,3.3-78.6,3
			c32.7-0.5,65.5-3,98-6.4c19.4-2.4,38.4-7.8,57.2-13.4c37.4-11.8,74.2-25.7,110-41.9c7.3-3.6,14.9-6.5,21.4-11.4
			c2.3-1.8,5.2-3.7,6.5-6.2c1.7-3.9-2.2-8.4-4.6-11.6c-6.2-7.5-13.5-14-20.7-20.6c-1.2-1.1-4.3-3.8-5.5-4.8
			c-3.1-2.5-6.5-4.6-10.1-6.6c-17.1-9.4-35.7-16.1-54.2-22.4C3110.5,173.7,3046.8,158,2983.1,143.3L2983.1,143.3z"/>
		<polygon fill="#252525" points="3068.5,343 3065.7,335.4 3068.6,334.3 3071.6,342.7 		"/>
		<path fill="#252525" d="M301.4,1204.7c-15.5,0-31.7-0.1-45.1-0.4c-34.4-0.8-97.3-17.3-143.1-29.3c-8.4-2.2-16.2-4.3-23.3-6.1
			c-45.6-11.6-85.7-23.2-86.1-23.3l-0.6-3.6c0.4,0.1,41.9,12.3,87.4,24c7.1,1.8,15,3.9,23.3,6.1c45.7,12,108.4,28.4,142.4,29.2
			c40,0.9,103.9,0,104.5,0l0.5,2.9C361,1204.2,332.3,1204.7,301.4,1204.7z"/>
		<path fill="#252525" d="M224.7,911c-44.4,4-109.8,9.8-153.6,14.7c28.4-5.7,57.2-9.2,86.1-11.6C179.6,912.3,202.1,911.1,224.7,911
			L224.7,911z"/>
		<path fill="#252525" d="M213.4,865.7c-40.9,3.2-83.7,6.8-124.3,11.9c20.3-4.9,41-7.7,61.8-9.7C171.7,866.1,192.5,865,213.4,865.7
			L213.4,865.7z"/>
		<path fill="#252525" d="M209,925.7c0.9,19.2,1.2,38.4,1.4,57.6v9.6v4.8c0,1.4-0.5,3-1.3,4.2c-6.5,8.4-28.4,9.7-38.6,10.5
			c-12.8,0.8-25.7,0.7-38.5,0.1l9.6-0.5c9.6-0.5,19.2-1.1,28.7-2c9.4-1,19-2,28-4.9c3.6-1.4,7.9-2.8,9.1-6.5
			c0.1-0.5,0.1-5.1,0.1-5.7C207.7,970.6,208,948.1,209,925.7L209,925.7z"/>
		<path fill="#252525" d="M36.5,1107.3c0.6,0,1,0.5,1,1v6.6c0,0.2-0.1,0.4-0.2,0.6l-2.8,4.1c-0.2,0.3-0.5,0.4-0.8,0.4h-3.8
			c-0.6,0-1-0.5-1-1v-4.8c0-0.2,0-0.4,0.1-0.5l3.4-5.9c0.2-0.3,0.5-0.5,0.9-0.5L36.5,1107.3 M36.5,1106.3h-3.2c-0.7,0-1.4,0.4-1.7,1
			l-3.4,5.9c-0.2,0.3-0.3,0.7-0.3,1v4.8c0,1.1,0.9,2,2,2h3.8c0.7,0,1.3-0.3,1.7-0.9l2.8-4.1c0.2-0.3,0.3-0.7,0.3-1.1v-6.6
			C38.5,1107.2,37.6,1106.3,36.5,1106.3L36.5,1106.3z"/>
		<path fill="#252525" d="M44.3,1088.2c0.6,0,1,0.5,1,1v6.6c0,0.2-0.1,0.4-0.2,0.6l-2.8,4.1c-0.2,0.3-0.5,0.4-0.8,0.4h-3.8
			c-0.6,0-1-0.5-1-1v-4.8c0-0.2,0-0.4,0.1-0.5l3.4-5.9c0.2-0.3,0.5-0.5,0.9-0.5L44.3,1088.2 M44.3,1087.2h-3.2c-0.7,0-1.4,0.4-1.7,1
			l-3.4,5.9c-0.2,0.3-0.3,0.7-0.3,1v4.8c0,1.1,0.9,2,2,2h3.8c0.7,0,1.3-0.3,1.7-0.9l2.8-4.1c0.2-0.3,0.3-0.7,0.3-1.1v-6.6
			C46.3,1088.1,45.4,1087.2,44.3,1087.2L44.3,1087.2z"/>
		<path fill="#252525" d="M39.5,1077.5c0.2,0,0.5,0.3,0.5,0.7v5.7c0,0.2,0,0.3-0.1,0.5l-2,3.5c-0.1,0.2-0.2,0.3-0.4,0.3h-2.8
			c-0.2,0-0.5-0.3-0.5-0.7v-4.1c0-0.2,0-0.3,0.1-0.4l2.5-5.1c0.1-0.2,0.2-0.3,0.4-0.3L39.5,1077.5 M39.5,1076.5h-2.3
			c-0.5,0-1,0.3-1.3,0.9l-2.5,5.1c-0.1,0.3-0.2,0.6-0.2,0.9v4.1c0,1,0.7,1.7,1.5,1.7h2.8c0.5,0,0.9-0.3,1.2-0.8l2-3.5
			c0.2-0.3,0.3-0.6,0.3-1v-5.7C41,1077.2,40.3,1076.5,39.5,1076.5L39.5,1076.5z"/>
		<path fill="#252525" d="M31.2,1085.9c0,0,0.1,0.1,0.1,0.3v4.3c0,0.1,0,0.2-0.1,0.2l-1.5,2.7c0,0.1-0.1,0.1-0.1,0.1h-2.1
			c0,0-0.1-0.1-0.1-0.3v-3.1c0-0.1,0-0.2,0-0.2l1.9-3.9c0-0.1,0.1-0.1,0.1-0.1H31.2 M31.2,1084.9h-1.8c-0.4,0-0.8,0.3-1,0.7
			l-1.9,3.9c-0.1,0.2-0.2,0.4-0.2,0.7v3.1c0,0.7,0.5,1.3,1.1,1.3h2.1c0.4,0,0.7-0.2,0.9-0.6l1.5-2.7c0.1-0.2,0.2-0.5,0.2-0.7v-4.3
			C32.3,1085.5,31.8,1084.9,31.2,1084.9L31.2,1084.9z"/>
		<path fill="#252525" d="M22.5,1106.6c0,0,0.1,0.1,0.1,0.3v4.3c0,0.1,0,0.2-0.1,0.2l-1.5,2.7c0,0.1-0.1,0.1-0.1,0.1h-2.1
			c0,0-0.1-0.1-0.1-0.3v-3.1c0-0.1,0-0.2,0-0.2l1.9-3.9c0-0.1,0.1-0.1,0.1-0.1H22.5 M22.5,1105.6h-1.8c-0.4,0-0.8,0.3-1,0.7
			l-1.9,3.9c-0.1,0.2-0.2,0.4-0.2,0.7v3.1c0,0.7,0.5,1.3,1.1,1.3h2.1c0.4,0,0.7-0.2,0.9-0.6l1.5-2.7c0.1-0.2,0.2-0.5,0.2-0.7v-4.3
			C23.6,1106.2,23.1,1105.6,22.5,1105.6L22.5,1105.6z"/>
		<path fill="#252525" d="M14.2,1120.8c0,0,0.1,0.1,0.1,0.3v4.3c0,0.1,0,0.2-0.1,0.2l-1.5,2.7c0,0.1-0.1,0.1-0.1,0.1h-2.1
			c0,0-0.1-0.1-0.1-0.3v-3.1c0-0.1,0-0.2,0-0.2l1.9-3.9c0-0.1,0.1-0.1,0.1-0.1H14.2 M14.3,1119.8h-1.8c-0.4,0-0.8,0.3-1,0.7
			l-1.9,3.9c-0.1,0.2-0.2,0.4-0.2,0.7v3.1c0,0.7,0.5,1.3,1.1,1.3h2.1c0.4,0,0.7-0.2,0.9-0.6l1.5-2.7c0.1-0.2,0.2-0.5,0.2-0.7v-4.3
			C15.4,1120.4,14.9,1119.8,14.3,1119.8L14.3,1119.8z"/>
		<path fill="#252525" d="M38.4,1067.2c0,0,0.1,0.1,0.1,0.3v4.3c0,0.1,0,0.2-0.1,0.2l-1.5,2.7c0,0.1-0.1,0.1-0.1,0.1h-2.1
			c0,0-0.1-0.1-0.1-0.3v-3.1c0-0.1,0-0.2,0-0.2l1.9-3.9c0-0.1,0.1-0.1,0.1-0.1H38.4 M38.4,1066.2h-1.8c-0.4,0-0.8,0.3-1,0.7
			l-1.9,3.9c-0.1,0.2-0.2,0.4-0.2,0.7v3.1c0,0.7,0.5,1.3,1.1,1.3h2.1c0.4,0,0.7-0.2,0.9-0.6l1.5-2.7c0.1-0.2,0.2-0.5,0.2-0.7v-4.3
			C39.5,1066.8,39,1066.2,38.4,1066.2L38.4,1066.2z"/>
		<path fill="#252525" d="M46.2,1057.2c0.2,0,0.5,0.3,0.5,0.7v5.7c0,0.2,0,0.3-0.1,0.5l-2,3.5c-0.1,0.2-0.2,0.3-0.4,0.3h-2.8
			c-0.2,0-0.5-0.3-0.5-0.7v-4.1c0-0.2,0-0.3,0.1-0.4l2.5-5.1c0.1-0.2,0.2-0.3,0.4-0.3L46.2,1057.2 M46.2,1056.2h-2.3
			c-0.5,0-1,0.3-1.3,0.9l-2.5,5.1c-0.1,0.3-0.2,0.6-0.2,0.9v4.1c0,1,0.7,1.7,1.5,1.7h2.8c0.5,0,0.9-0.3,1.2-0.8l2-3.5
			c0.2-0.3,0.3-0.6,0.3-1v-5.7C47.7,1057,47,1056.2,46.2,1056.2L46.2,1056.2z"/>
		<path fill="#252525" d="M31.7,1097c0.2,0,0.5,0.3,0.5,0.7v5.7c0,0.2,0,0.3-0.1,0.5l-2,3.5c-0.1,0.2-0.2,0.3-0.4,0.3h-2.8
			c-0.2,0-0.5-0.3-0.5-0.7v-4.1c0-0.2,0-0.3,0.1-0.4l2.5-5.1c0.1-0.2,0.2-0.3,0.4-0.3L31.7,1097 M31.7,1096h-2.3
			c-0.5,0-1,0.3-1.3,0.9l-2.5,5.1c-0.1,0.3-0.2,0.6-0.2,0.9v4.1c0,1,0.7,1.7,1.5,1.7h2.8c0.5,0,0.9-0.3,1.2-0.8l2-3.5
			c0.2-0.3,0.3-0.6,0.3-1v-5.7C33.2,1096.8,32.6,1096,31.7,1096L31.7,1096z"/>
		<path fill="#252525" d="M24,1117.7c0.2,0,0.5,0.3,0.5,0.7v5.7c0,0.2,0,0.3-0.1,0.5l-2,3.5c-0.1,0.2-0.2,0.3-0.4,0.3h-2.8
			c-0.2,0-0.5-0.3-0.5-0.7v-4.1c0-0.2,0-0.3,0.1-0.4l2.5-5.1c0.1-0.2,0.2-0.3,0.4-0.3L24,1117.7 M24,1116.7h-2.3
			c-0.5,0-1,0.3-1.3,0.9l-2.5,5.1c-0.1,0.3-0.2,0.6-0.2,0.9v4.1c0,1,0.7,1.7,1.5,1.7H22c0.5,0,0.9-0.3,1.2-0.8l2-3.5
			c0.2-0.3,0.3-0.6,0.3-1v-5.7C25.4,1117.5,24.8,1116.7,24,1116.7L24,1116.7z"/>
		<path fill="#252525" d="M50.5,1069.2c0.6,0,1,0.5,1,1v6.6c0,0.2-0.1,0.4-0.2,0.6l-2.8,4.1c-0.2,0.3-0.5,0.4-0.8,0.4h-3.8
			c-0.6,0-1-0.5-1-1v-4.8c0-0.2,0-0.4,0.1-0.5l3.4-5.9c0.2-0.3,0.5-0.5,0.9-0.5L50.5,1069.2 M50.5,1068.2h-3.2c-0.7,0-1.4,0.4-1.7,1
			l-3.4,5.9c-0.2,0.3-0.3,0.7-0.3,1v4.8c0,1.1,0.9,2,2,2h3.8c0.7,0,1.3-0.3,1.7-0.9l2.8-4.1c0.2-0.3,0.3-0.7,0.3-1.1v-6.6
			C52.5,1069.1,51.6,1068.2,50.5,1068.2L50.5,1068.2z"/>
		<path fill="#252525" d="M53.4,1100c0.6,0,1,0.5,1,1v6.6c0,0.2-0.1,0.4-0.2,0.6l-2.8,4.1c-0.2,0.3-0.5,0.4-0.8,0.4h-3.8
			c-0.6,0-1-0.5-1-1v-4.8c0-0.2,0-0.4,0.1-0.5l3.4-5.9c0.2-0.3,0.5-0.5,0.9-0.5L53.4,1100 M53.4,1099h-3.2c-0.7,0-1.4,0.4-1.7,1
			l-3.4,5.9c-0.2,0.3-0.3,0.7-0.3,1v4.8c0,1.1,0.9,2,2,2h3.8c0.7,0,1.3-0.3,1.7-0.9l2.8-4.1c0.2-0.3,0.3-0.7,0.3-1.1v-6.6
			C55.4,1099.9,54.5,1099,53.4,1099L53.4,1099z"/>
		<path fill="#252525" d="M47.1,1117.7c0.6,0,1,0.5,1,1v6.6c0,0.2-0.1,0.4-0.2,0.6l-2.8,4.1c-0.2,0.3-0.5,0.4-0.8,0.4h-3.8
			c-0.6,0-1-0.5-1-1v-4.8c0-0.2,0-0.4,0.1-0.5l3.4-5.9c0.2-0.3,0.5-0.5,0.9-0.5L47.1,1117.7 M47.1,1116.7h-3.2c-0.7,0-1.4,0.4-1.7,1
			l-3.4,5.9c-0.2,0.3-0.3,0.7-0.3,1v4.8c0,1.1,0.9,2,2,2h3.8c0.7,0,1.3-0.3,1.7-0.9l2.8-4.1c0.2-0.3,0.3-0.7,0.3-1.1v-6.6
			C49.1,1117.6,48.2,1116.7,47.1,1116.7L47.1,1116.7z"/>
	</g>
	<g>
		<path fill="#252525" d="M727.7,778.5c-179.7,0-325.4,145.7-325.4,325.4s145.7,325.4,325.4,325.4s325.4-145.7,325.4-325.4
			S907.4,778.5,727.7,778.5z M727.7,1337.1c-128.8,0-233.2-104.4-233.2-233.2s104.4-233.2,233.2-233.2s233.2,104.4,233.2,233.2
			S856.5,1337.1,727.7,1337.1z"/>
		<circle fill="#343434" cx="727.7" cy="1103.9" r="152.8"/>
		<path fill="#8F8F8F" d="M727.7,866.5c-130.9,0-237.1,106.1-237.1,237.1s106.1,237.1,237.1,237.1s237.1-106.1,237.1-237.1
			S858.6,866.5,727.7,866.5z M906.2,1012.2c1.5-0.6,3.2,0.1,3.9,1.5c1.5,3,2.9,6.1,4.2,9.2c0.6,1.4,0,3.1-1.3,3.9
			c-14.4,8.2-89.3,49.5-95.2,35.4C811.8,1048,890.7,1018,906.2,1012.2z M857.5,947.2c11.5,9.5,21.9,20.3,31.2,32.3
			c1.1,1.4,0.7,3.4-0.8,4.3l-91.6,56.4c-7.2,4.4-15.6-3.6-11.4-11l40.4-71.9c2.2-4,6.1-6.9,10.6-7.9l15.6-3.6
			C853.5,945.2,855.8,945.8,857.5,947.2z M823.3,903c8.6,4.1,17,8.8,25.1,14c1.1,0.7,0.8,2.3-0.4,2.7l-17.5,5.7
			c-1.3,0.4-2.7-0.3-3.2-1.6l-6.1-18.9C820.9,903.6,822.2,902.5,823.3,903z M752.5,901.8c14,1.7,27.8,4.9,41,9.5
			c2.3,0.8,4.1,2.7,4.7,5.1l3.3,13.8c0.8,3.5,0.5,7.3-1,10.6l-35.4,77.2c-3.7,8-15.6,5.4-15.6-3.4l-0.2-109.8
			C749.3,903,750.8,901.6,752.5,901.8z M698.6,902.4c3.3-0.5,6.6-0.9,10-1.2c1.6-0.1,3,0.9,3.3,2.5c3.3,16.3,19.5,100.2,4.2,101.5
			s-19.5-83.1-20.2-99.6C695.9,904,697,902.6,698.6,902.4z M614.4,953.1l1.4-15.9c0.2-2.2,1.4-4.2,3.2-5.4
			c12.6-8,26.1-14.6,40.3-19.7c1.6-0.6,3.4,0.4,3.8,2.1l25.3,104.5c2,8.2-8.3,13.7-14,7.5l-55.9-60.6
			C615.5,962.2,614,957.7,614.4,953.1z M566.5,950.6c6.6-6.9,13.6-13.5,21.1-19.5c1-0.8,2.5-0.1,2.5,1.2v18.3c0,1.4-1.1,2.5-2.5,2.5
			h-19.9C566.3,953.2,565.6,951.6,566.5,950.6z M543.5,1017.6c6-12.8,13.3-24.9,21.7-36.1c1.5-2,3.9-3.1,6.3-2.9l14.1,1.2
			c3.6,0.3,7,1.8,9.7,4.3l62.5,57.5c6.5,6,0.3,16.5-8.1,13.8l-104.5-33.8C543.5,1021.1,542.7,1019.2,543.5,1017.6z M527.3,1069.1
			c0.6-3.3,1.2-6.6,2-9.9c0.3-1.5,1.8-2.6,3.4-2.4c16.5,1.9,101.3,12.4,97.8,27.3s-85-7.1-100.9-11.6
			C528,1072.2,527.1,1070.6,527.3,1069.1z M541.3,1190.4l-6.1,18.9c-0.4,1.3-2.1,1.4-2.8,0.3c-4.6-8.4-8.6-17.1-12-26.1
			c-0.5-1.2,0.7-2.4,1.9-2l17.5,5.7C541,1187.7,541.7,1189.1,541.3,1190.4z M549.5,1164.8l-14.7-6.3c-2-0.9-3.6-2.6-4.1-4.8
			c-3.7-14.4-5.8-29.3-6.3-44.4c0-1.7,1.4-3.1,3.2-3l107.2,8.2c8.4,0.6,10.5,12.1,2.8,15.6l-74.9,34.4
			C558.5,1166.6,553.8,1166.6,549.5,1164.8z M589,1252.2c-10.3-9.7-19.6-20.3-27.6-31.8c-1.4-2-1.7-4.6-0.8-6.9l5.4-13
			c1.4-3.4,3.9-6.1,7.1-7.9l74-41.6c7.7-4.3,15.8,4.8,10.7,11.9l-64.4,88.9C592.3,1253.2,590.2,1253.4,589,1252.2z M633,1283.5
			c-3-1.6-5.9-3.2-8.8-4.9c-1.4-0.8-1.9-2.5-1.2-3.9c6.9-15.1,43.1-92.5,56.2-84.6c13.1,8-33,78.7-42.2,92.4
			C636.1,1283.8,634.4,1284.2,633,1283.5z M730.9,1291.9l-10.5,12.1c-1.4,1.7-3.6,2.6-5.8,2.4c-14.9-0.9-29.7-3.5-44.2-7.8
			c-1.7-0.5-2.5-2.3-1.9-3.9l41-99.4c3.2-7.8,14.7-6.2,15.7,2.2l9.6,81.9C735.3,1283.9,733.9,1288.5,730.9,1291.9z M768.2,1322.1
			c-9.4,1.7-18.9,2.9-28.5,3.4c-1.3,0.1-2-1.4-1.3-2.4l10.8-14.8c0.8-1.1,2.4-1.4,3.5-0.6l16.1,11.7
			C769.8,1320.1,769.5,1321.8,768.2,1322.1z M826.2,1281.5c-12.4,6.8-25.4,12.3-38.8,16.4c-2.4,0.7-4.9,0.2-6.8-1.4l-10.7-9.2
			c-2.8-2.4-4.6-5.6-5.4-9.2l-16.7-83.2c-1.7-8.6,9.5-13.5,14.7-6.4l64.7,88.7C828.1,1278.6,827.7,1280.6,826.2,1281.5z
			 M869.5,1249.3c-2.4,2.3-4.9,4.6-7.4,6.8c-1.2,1-3,1-4.1-0.1c-12.2-11.2-74.7-69.6-63.1-79.6c11.6-10,64.6,55.7,74.9,68.7
			C870.7,1246.4,870.6,1248.2,869.5,1249.3z M916.6,1178.7c-5.5,13.8-12.5,27.1-21.1,39.6c-1,1.4-3,1.7-4.3,0.6l-81.9-69.7
			c-6.4-5.5-1.4-15.9,6.9-14.3l80.8,16.2c4.5,0.9,8.4,3.7,10.8,7.6l8.2,13.7C917.2,1174.4,917.4,1176.7,916.6,1178.7z M915.4,1120.2
			c-3.1,1.9-6.8,2.7-10.4,2.3l-84.3-9.8c-8.7-1-10-13.2-1.6-15.9l104.4-34.1c1.7-0.5,3.5,0.5,3.8,2.2c2.7,13.9,3.9,27.9,3.7,41.9
			c0,2.5-1.3,4.8-3.4,6L915.4,1120.2z M939.7,1161.2l-10.8-14.8c-0.8-1.1-0.6-2.7,0.6-3.5l16.1-11.7c1.1-0.8,2.6,0.1,2.4,1.4
			c-1.3,9.5-3.1,18.9-5.6,28.2C942.1,1162,940.5,1162.3,939.7,1161.2z"/>
		<path fill="#C4C4C4" d="M727.7,862.4c-133.2,0-241.1,108-241.1,241.1s108,241.1,241.1,241.1s241.1-108,241.1-241.1
			S860.9,862.4,727.7,862.4z M942.2,1011.3c2.4,5.5-0.1,11.8-5.4,14.4c-38.7,18.7-104,46.2-127.7,54c-16.8,5.6-25.4,4.9-29.4,3.6
			c-2-0.6-3.1-2.9-2.3-4.9c1.6-3.9,6.5-11,21.6-20.3c21.3-13.2,84.2-45.7,123.4-63.4c5.4-2.5,11.9-0.2,14.6,5.1
			C938.7,1003.6,940.5,1007.4,942.2,1011.3z M730.1,1018.8c0.1,17.7-3.2,25.7-5.7,29.1c-1.2,1.7-3.7,2-5.4,0.7
			c-3.2-2.7-8.4-9.6-12.6-26.8c-6-24.3-17.4-94.2-22.2-136.9c-0.7-6,3.5-11.4,9.4-12.3c4.2-0.6,8.3-1.1,12.6-1.5
			c5.9-0.5,11.2,3.7,12,9.6C724,923.3,729.9,993.9,730.1,1018.8z M499.9,1052.2c1.3-5.8,7-9.5,12.9-8.5
			c42.3,7.7,111.3,23.8,135.1,31.4c16.9,5.4,23.4,11,25.9,14.4c1.3,1.7,0.8,4.2-1,5.3c-3.6,2.2-11.7,5-29.4,3.7
			c-24.9-1.8-95-12.5-137.1-21.2c-5.9-1.2-9.8-6.8-8.8-12.7C498.2,1060.5,499,1056.3,499.9,1052.2z M608.4,1304.3
			c-5.1-3-6.9-9.6-4.1-14.8c20.3-37.8,57-98.4,71.6-118.8c10.3-14.4,17.7-18.9,21.7-20.2c2-0.7,4.2,0.5,4.7,2.6
			c1,4.1,1.1,12.7-5.6,29.1c-9.4,23.2-41.3,86.5-62.5,123.8c-3,5.2-9.5,7.2-14.8,4.4C615.7,1308.5,612,1306.5,608.4,1304.3z
			 M654.1,1325.2c-2.5-0.8-3.7-3.6-2.6-6c11.3-25.3,49.3-111.4,53-134.3c4.3-26.9,4.8-39.3,0.3-41.6l0,0
			c-4.3-2.5-14.6,4.5-35.1,22.4c-17.3,15.2-69.7,92.6-85.3,116c-1.5,2.2-4.5,2.6-6.5,0.9c-51.1-42.8-83.6-107.1-83.6-179
			c0-0.5,0-1,0-1.5c0-2.6,2.3-4.6,4.9-4.3c27.6,2.9,121.2,12.4,144.1,8.9c26.9-4.2,38.9-7.6,39.7-12.6l0,0c1-4.9-8.8-12.5-32.2-26.4
			c-19.8-11.8-109.7-37.7-136.7-45.3c-2.5-0.7-3.8-3.5-2.9-5.9C536.9,952.2,590.5,902.1,657,881c2.5-0.8,5.1,0.7,5.6,3.3
			c5.7,27.1,25.6,119.1,36.1,139.8c12.3,24.3,19.3,34.6,24.2,33.9l0,0c5-0.5,9.2-12.2,15.2-38.8c5.1-22.5,1.9-115.9,0.9-144
			c-0.1-2.6,2.1-4.7,4.7-4.5c71.6,4.8,134.3,42,173.8,96.9c1.5,2.1,0.9,5.1-1.4,6.4c-24,13.8-105.4,61.2-121.7,77.5
			c-19.3,19.2-27,29-24.7,33.5l0,0c2,4.6,14.5,5,41.6,2.5c23-2.1,110.9-34,137.2-43.7c2.5-0.9,5.1,0.5,5.8,3.1
			c4.5,18.2,7,37.2,7,56.8c0,51.8-16.9,99.7-45.5,138.4c-1.5,2.1-4.6,2.4-6.5,0.7c-20.6-18.6-90.7-81.3-111.3-91.8
			c-24.2-12.4-35.9-16.7-39.5-13.2l0,0c-3.7,3.4-0.2,15.3,10.5,40.3c9.1,21.2,66.5,94.9,83.9,117c1.6,2.1,1.1,5.1-1.1,6.4
			c-35.9,22.6-78.4,35.6-124,35.6C702,1337.1,677.2,1332.9,654.1,1325.2z M881.7,1279c-4.5,3.9-11.3,3.6-15.4-0.7
			c-29.7-31-76-84.6-90.8-104.7c-10.5-14.3-12.5-22.6-12.5-26.9c0-2.1,1.8-3.8,3.9-3.7c4.2,0.3,12.4,2.8,26,14.3
			c19.1,16.1,69.5,66,98.4,97.7c4,4.4,3.9,11.3-0.4,15.4C888,1273.3,884.9,1276.2,881.7,1279z"/>
		<g>
			<g>
				<path fill="#C4C4C4" d="M806.3,890.4c5.4,14,9.7,28.3,13.8,42.7c0,0.1,0.1,0.4,0.2,0.5c0.2,0.5,0.8,0.8,1.2,0.6
					c14.6-4.1,29.4-8,44.4-10.7c-14.1,5.7-28.7,10.2-43.3,14.5c-2.9,0.9-5.8-0.9-6.3-3.9C812.5,919.7,808.9,905.2,806.3,890.4
					L806.3,890.4z"/>
				<polygon fill="#C4C4C4" points="820.9,937.9 774,1022.7 817.4,936.1 				"/>
			</g>
			<g>
				<path fill="#C4C4C4" d="M549.2,962.9c15-0.8,30-0.5,44.9,0.1c0.2,0,0.5,0,0.6,0c0.5,0,0.9-0.5,0.8-1c0.6-15.2,1.5-30.4,3.6-45.5
					c1,14.9,0.8,30,0.4,44.9c0,0.1,0,0.8,0,0.9c-0.1,2.9-2.7,5-5.6,4.6C579,966.1,564.1,965.1,549.2,962.9L549.2,962.9z"/>
				<polygon fill="#C4C4C4" points="598.9,963.7 665.1,1034.6 596.1,966.5 				"/>
			</g>
			<g>
				<path fill="#C4C4C4" d="M538.7,1229.8c3.9-14.5,8.8-28.6,14-42.7c0-0.1,0.2-0.4,0.2-0.5c0.2-0.5-0.2-1.1-0.7-1.2
					c-14.3-5.3-28.5-10.8-42.2-17.5c14.8,3.7,29.2,8.6,43.6,13.7c2.9,0.9,4.1,4.1,2.8,6.8C551,1202.5,545.4,1216.4,538.7,1229.8
					L538.7,1229.8z"/>
				<polygon fill="#C4C4C4" points="554.9,1182.8 642.7,1141.8 556.6,1186.4 				"/>
			</g>
			<g>
				<path fill="#C4C4C4" d="M789.3,1322.3c-12.6-8.2-24.5-17.2-36.3-26.5c-0.1-0.1-0.3-0.3-0.4-0.3c-0.4-0.3-1.1-0.2-1.3,0.3
					c-9.4,11.9-19.1,23.7-29.7,34.7c8.1-12.9,17.2-25.1,26.5-37.2c1.8-2.4,5.2-2.6,7.4-0.6C767.2,1302.2,778.6,1311.8,789.3,1322.3
					L789.3,1322.3z"/>
				<polygon fill="#C4C4C4" points="749.6,1292.4 737.8,1196.2 753.6,1291.9 				"/>
			</g>
			<g>
				<path fill="#C4C4C4" d="M954.7,1112.5c-11.6,9.5-23.9,18-36.4,26.3c-0.1,0.1-0.4,0.2-0.5,0.3c-0.4,0.3-0.5,1-0.1,1.4
					c8.4,12.7,16.7,25.5,23.9,38.9c-9.7-11.7-18.6-24.2-27.2-36.7c-1.8-2.4-0.9-5.8,1.7-7.2C928.7,1127.4,941.4,1119.5,954.7,1112.5
					L954.7,1112.5z"/>
				<polygon fill="#C4C4C4" points="914.1,1141.1 818.9,1122.6 914.7,1137.1 				"/>
			</g>
		</g>
		<circle fill="#C4C4C4" cx="727.7" cy="1103.9" r="26.7"/>
		<g>
			<circle fill="#252525" cx="753.3" cy="1058.4" r="17.7"/>
			<circle fill="#252525" cx="692.4" cy="1065.5" r="17.7"/>
			<circle fill="#252525" cx="680.3" cy="1125.6" r="17.7"/>
			<circle fill="#252525" cx="733.7" cy="1155.6" r="17.7"/>
			<circle fill="#252525" cx="778.8" cy="1114.2" r="17.7"/>
		</g>
		<g>
			<g>
				<path fill="#C4C4C4" d="M806.5,890.8c-19.1-6.4-38.8-10.8-58.8-12.9l-4.3-0.4l-4.3-0.4C762.1,877.5,785.1,882.2,806.5,890.8
					L806.5,890.8z"/>
				<path fill="#C4C4C4" d="M914.6,974.8c-13.1-17.8-28.3-34.1-45.3-48.3l-3.4-2.8l3.6,2.6C887.1,939.8,902.5,956.2,914.6,974.8
					L914.6,974.8z"/>
			</g>
			<g>
				<path fill="#C4C4C4" d="M549.4,963.1c-12,16.2-22.3,33.6-30.5,51.9l-1.8,3.9l-1.7,4C523.1,1001.2,534.6,980.7,549.4,963.1
					L549.4,963.1z"/>
				<path fill="#C4C4C4" d="M662.7,886.3c-21,7-41.2,16.4-60,28.1l-3.8,2.4l3.6-2.6C620.9,901.6,641.3,892,662.7,886.3L662.7,886.3z
					"/>
			</g>
			<g>
				<path fill="#C4C4C4" d="M538.7,1229.9c11.7,16.4,25,31.6,40,45l3.2,2.9l3.3,2.8C566.8,1266.7,550.9,1249.4,538.7,1229.9
					L538.7,1229.9z"/>
				<path fill="#C4C4C4" d="M500.7,1098.4c0.1,22.1,2.9,44.2,8.2,65.7l1.1,4.3l-1.3-4.2C502.3,1142.9,499.5,1120.5,500.7,1098.4
					L500.7,1098.4z"/>
			</g>
			<g>
				<path fill="#C4C4C4" d="M789.2,1322.5c19.2-6,37.8-14.1,55.2-24.1l3.7-2.2l3.7-2.2C832.9,1307.2,811.5,1316.9,789.2,1322.5
					L789.2,1322.5z"/>
				<path fill="#C4C4C4" d="M652.3,1318.1c21.1,6.7,43,11,65,12.5l4.4,0.3h-4.4C695.2,1330.3,673,1326,652.3,1318.1L652.3,1318.1z"
					/>
			</g>
			<g>
				<path fill="#C4C4C4" d="M954.6,1113c0.2-20.1-1.7-40.3-5.9-59.9l-0.9-4.2l-1-4.2C953.6,1066.6,956.2,1090,954.6,1113L954.6,1113
					z"/>
				<path fill="#C4C4C4" d="M908.1,1241.7c12.9-18,23.7-37.5,32-58l1.6-4.1l-1.4,4.2C933,1204.7,922.1,1224.5,908.1,1241.7
					L908.1,1241.7z"/>
			</g>
			<polygon fill="#C4C4C4" points="775.9,1081 817.7,1062.2 776.3,1081.9 			"/>
			<polygon fill="#C4C4C4" points="720.8,1051 715.9,1005.3 721.8,1050.8 			"/>
			<polygon fill="#C4C4C4" points="675.3,1094 630.3,1084.6 675.4,1093 			"/>
			<polygon fill="#C4C4C4" points="702.1,1150.7 679.3,1190.5 701.2,1150.2 			"/>
			<polygon fill="#C4C4C4" points="764.3,1142.6 795.1,1176.6 763.6,1143.3 			"/>
		</g>
	</g>
	<g>
		<path fill="#252525" d="M3240.4,778.5c-179.7,0-325.4,145.7-325.4,325.4s145.7,325.4,325.4,325.4s325.4-145.7,325.4-325.4
			S3420.1,778.5,3240.4,778.5z M3240.4,1337.1c-128.8,0-233.2-104.4-233.2-233.2s104.4-233.2,233.2-233.2s233.2,104.4,233.2,233.2
			S3369.1,1337.1,3240.4,1337.1z"/>
		<circle fill="#343434" cx="3240.4" cy="1103.9" r="152.8"/>
		<path fill="#8F8F8F" d="M3240.4,866.5c-130.9,0-237.1,106.1-237.1,237.1s106.1,237.1,237.1,237.1c130.9,0,237.1-106.1,237.1-237.1
			S3371.3,866.5,3240.4,866.5z M3418.9,1012.2c1.5-0.6,3.2,0.1,3.9,1.5c1.5,3,2.9,6.1,4.2,9.2c0.6,1.4,0,3.1-1.3,3.9
			c-14.4,8.2-89.3,49.5-95.2,35.4C3324.5,1048,3403.4,1018,3418.9,1012.2z M3370.2,947.2c11.5,9.5,21.9,20.3,31.2,32.3
			c1.1,1.4,0.7,3.4-0.8,4.3l-91.6,56.4c-7.2,4.4-15.6-3.6-11.4-11l40.4-71.9c2.2-4,6.1-6.9,10.6-7.9l15.6-3.6
			C3366.2,945.2,3368.5,945.8,3370.2,947.2z M3336,903c8.6,4.1,17,8.8,25.1,14c1.1,0.7,0.8,2.3-0.4,2.7l-17.5,5.7
			c-1.3,0.4-2.7-0.3-3.2-1.6l-6.1-18.9C3333.5,903.6,3334.8,902.5,3336,903z M3265.2,901.8c14,1.7,27.8,4.9,41,9.5
			c2.3,0.8,4.1,2.7,4.7,5.1l3.3,13.8c0.8,3.5,0.5,7.3-1,10.6l-35.4,77.2c-3.7,8-15.6,5.4-15.6-3.4l-0.2-109.8
			C3261.9,903,3263.5,901.6,3265.2,901.8z M3211.3,902.4c3.3-0.5,6.6-0.9,10-1.2c1.6-0.1,3,0.9,3.3,2.5
			c3.3,16.3,19.5,100.2,4.2,101.5s-19.5-83.1-20.2-99.6C3208.6,904,3209.7,902.6,3211.3,902.4z M3127.1,953.1l1.4-15.9
			c0.2-2.2,1.4-4.2,3.2-5.4c12.6-8,26.1-14.6,40.3-19.7c1.6-0.6,3.4,0.4,3.8,2.1l25.3,104.5c2,8.2-8.3,13.7-14,7.5l-55.9-60.6
			C3128.2,962.2,3126.7,957.7,3127.1,953.1z M3079.2,950.6c6.6-6.9,13.6-13.5,21.1-19.5c1-0.8,2.5-0.1,2.5,1.2v18.3
			c0,1.4-1.1,2.5-2.5,2.5h-19.9C3079,953.2,3078.3,951.6,3079.2,950.6z M3056.1,1017.6c6-12.8,13.3-24.9,21.7-36.1
			c1.5-2,3.9-3.1,6.3-2.9l14.1,1.2c3.6,0.3,7,1.8,9.7,4.3l62.5,57.5c6.5,6,0.3,16.5-8.1,13.8l-104.5-33.8
			C3056.2,1021.1,3055.4,1019.2,3056.1,1017.6z M3040,1069.1c0.6-3.3,1.2-6.6,2-9.9c0.3-1.5,1.8-2.6,3.4-2.4
			c16.5,1.9,101.3,12.4,97.8,27.3s-85-7.1-100.9-11.6C3040.7,1072.2,3039.7,1070.6,3040,1069.1z M3054,1190.4l-6.1,18.9
			c-0.4,1.3-2.1,1.4-2.8,0.3c-4.6-8.4-8.6-17.1-12-26.1c-0.5-1.2,0.7-2.4,1.9-2l17.5,5.7C3053.7,1187.7,3054.4,1189.1,3054,1190.4z
			 M3062.2,1164.8l-14.7-6.3c-2-0.9-3.6-2.6-4.1-4.8c-3.7-14.4-5.8-29.3-6.3-44.4c0-1.7,1.4-3.1,3.2-3l107.2,8.2
			c8.4,0.6,10.5,12.1,2.8,15.6l-74.9,34.4C3071.2,1166.6,3066.4,1166.6,3062.2,1164.8z M3101.6,1252.2
			c-10.3-9.7-19.6-20.3-27.6-31.8c-1.4-2-1.7-4.6-0.8-6.9l5.4-13c1.4-3.4,3.9-6.1,7.1-7.9l74-41.6c7.7-4.3,15.8,4.8,10.7,11.9
			l-64.4,88.9C3105,1253.2,3102.9,1253.4,3101.6,1252.2z M3145.6,1283.5c-3-1.6-5.9-3.2-8.8-4.9c-1.4-0.8-1.9-2.5-1.2-3.9
			c6.9-15.1,43.1-92.5,56.2-84.6c13.1,8-33,78.7-42.2,92.4C3148.8,1283.8,3147,1284.2,3145.6,1283.5z M3243.6,1291.9l-10.5,12.1
			c-1.4,1.7-3.6,2.6-5.8,2.4c-14.9-0.9-29.7-3.5-44.2-7.8c-1.7-0.5-2.5-2.3-1.9-3.9l41-99.4c3.2-7.8,14.7-6.2,15.7,2.2l9.6,81.9
			C3248,1283.9,3246.6,1288.5,3243.6,1291.9z M3280.8,1322.1c-9.4,1.7-18.9,2.9-28.5,3.4c-1.3,0.1-2-1.4-1.3-2.4l10.8-14.8
			c0.8-1.1,2.4-1.4,3.5-0.6l16.1,11.7C3282.5,1320.1,3282.1,1321.8,3280.8,1322.1z M3338.8,1281.5c-12.4,6.8-25.4,12.3-38.8,16.4
			c-2.4,0.7-4.9,0.2-6.8-1.4l-10.7-9.2c-2.8-2.4-4.6-5.6-5.4-9.2l-16.7-83.2c-1.7-8.6,9.5-13.5,14.7-6.4l64.7,88.7
			C3340.8,1278.6,3340.4,1280.6,3338.8,1281.5z M3382.2,1249.3c-2.4,2.3-4.9,4.6-7.4,6.8c-1.2,1-3,1-4.1-0.1
			c-12.2-11.2-74.7-69.6-63.1-79.6c11.6-10,64.6,55.7,74.9,68.7C3383.4,1246.4,3383.3,1248.2,3382.2,1249.3z M3429.3,1178.7
			c-5.5,13.8-12.5,27.1-21.1,39.6c-1,1.4-3,1.7-4.3,0.6l-81.9-69.7c-6.4-5.5-1.4-15.9,6.9-14.3l80.8,16.2c4.5,0.9,8.4,3.7,10.8,7.6
			l8.2,13.7C3429.8,1174.4,3430.1,1176.7,3429.3,1178.7z M3428.1,1120.2c-3.1,1.9-6.8,2.7-10.4,2.3l-84.3-9.8
			c-8.7-1-10-13.2-1.6-15.9l104.4-34.1c1.7-0.5,3.5,0.5,3.8,2.2c2.7,13.9,3.9,27.9,3.7,41.9c0,2.5-1.3,4.8-3.4,6L3428.1,1120.2z
			 M3452.4,1161.2l-10.8-14.8c-0.8-1.1-0.6-2.7,0.6-3.5l16.1-11.7c1.1-0.8,2.6,0.1,2.4,1.4c-1.3,9.5-3.1,18.9-5.6,28.2
			C3454.8,1162,3453.1,1162.3,3452.4,1161.2z"/>
		<path fill="#C4C4C4" d="M3240.4,862.4c-133.2,0-241.1,108-241.1,241.1s108,241.1,241.1,241.1c133.2,0,241.1-108,241.1-241.1
			S3373.5,862.4,3240.4,862.4z M3454.8,1011.3c2.4,5.5-0.1,11.8-5.4,14.4c-38.7,18.7-104,46.2-127.7,54c-16.8,5.6-25.4,4.9-29.4,3.6
			c-2-0.6-3.1-2.9-2.3-4.9c1.6-3.9,6.5-11,21.6-20.3c21.3-13.2,84.2-45.7,123.4-63.4c5.4-2.5,11.9-0.2,14.6,5.1
			C3451.4,1003.6,3453.2,1007.4,3454.8,1011.3z M3242.8,1018.8c0.1,17.7-3.2,25.7-5.7,29.1c-1.2,1.7-3.7,2-5.4,0.7
			c-3.2-2.7-8.4-9.6-12.6-26.8c-6-24.3-17.4-94.2-22.2-136.9c-0.7-6,3.5-11.4,9.4-12.3c4.2-0.6,8.3-1.1,12.6-1.5
			c5.9-0.5,11.2,3.7,12,9.6C3236.6,923.3,3242.6,993.9,3242.8,1018.8z M3012.6,1052.2c1.3-5.8,7-9.5,12.9-8.5
			c42.3,7.7,111.3,23.8,135.1,31.4c16.9,5.4,23.4,11,25.9,14.4c1.3,1.7,0.8,4.2-1,5.3c-3.6,2.2-11.7,5-29.4,3.7
			c-24.9-1.8-95-12.5-137.1-21.2c-5.9-1.2-9.8-6.8-8.8-12.7C3010.8,1060.5,3011.7,1056.3,3012.6,1052.2z M3121.1,1304.3
			c-5.1-3-6.9-9.6-4.1-14.8c20.3-37.8,57-98.4,71.6-118.8c10.3-14.4,17.7-18.9,21.7-20.2c2-0.7,4.2,0.5,4.7,2.6
			c1,4.1,1.1,12.7-5.6,29.1c-9.4,23.2-41.3,86.5-62.5,123.8c-3,5.2-9.5,7.2-14.8,4.4C3128.4,1308.5,3124.7,1306.5,3121.1,1304.3z
			 M3166.8,1325.2c-2.5-0.8-3.7-3.6-2.6-6c11.3-25.3,49.3-111.4,53-134.3c4.3-26.9,4.8-39.3,0.3-41.6l0,0
			c-4.3-2.5-14.6,4.5-35.1,22.4c-17.3,15.2-69.7,92.6-85.3,116c-1.5,2.2-4.5,2.6-6.5,0.9c-51.1-42.8-83.6-107.1-83.6-179
			c0-0.5,0-1,0-1.5c0-2.6,2.3-4.6,4.9-4.3c27.6,2.9,121.2,12.4,144.1,8.9c26.9-4.2,38.9-7.6,39.7-12.6l0,0c1-4.9-8.8-12.5-32.2-26.4
			c-19.8-11.8-109.7-37.7-136.7-45.3c-2.5-0.7-3.8-3.5-2.9-5.9c25.9-64.2,79.4-114.2,145.9-135.3c2.5-0.8,5.1,0.7,5.6,3.3
			c5.7,27.1,25.6,119.1,36.1,139.8c12.3,24.3,19.3,34.6,24.2,33.9l0,0c5-0.5,9.2-12.2,15.2-38.8c5.1-22.5,1.9-115.9,0.9-144
			c-0.1-2.6,2.1-4.7,4.7-4.5c71.6,4.8,134.3,42,173.8,96.9c1.5,2.1,0.9,5.1-1.4,6.4c-24,13.8-105.4,61.2-121.7,77.5
			c-19.3,19.2-27,29-24.7,33.5l0,0c2,4.6,14.5,5,41.6,2.5c23-2.1,110.9-34,137.2-43.7c2.5-0.9,5.1,0.5,5.8,3.1
			c4.5,18.2,7,37.2,7,56.8c0,51.8-16.9,99.7-45.5,138.4c-1.5,2.1-4.6,2.4-6.5,0.7c-20.6-18.6-90.7-81.3-111.3-91.8
			c-24.2-12.4-35.9-16.7-39.5-13.2l0,0c-3.7,3.4-0.2,15.3,10.5,40.3c9.1,21.2,66.5,94.9,83.9,117c1.6,2.1,1.1,5.1-1.1,6.4
			c-35.9,22.6-78.4,35.6-124,35.6C3214.6,1337.1,3189.9,1332.9,3166.8,1325.2z M3394.4,1279c-4.5,3.9-11.3,3.6-15.4-0.7
			c-29.7-31-76-84.6-90.8-104.7c-10.5-14.3-12.5-22.6-12.5-26.9c0-2.1,1.8-3.8,3.9-3.7c4.2,0.3,12.4,2.8,26,14.3
			c19.1,16.1,69.5,66,98.4,97.7c4,4.4,3.9,11.3-0.4,15.4C3400.7,1273.3,3397.6,1276.2,3394.4,1279z"/>
		<g>
			<g>
				<path fill="#C4C4C4" d="M3319,890.4c5.4,14,9.7,28.3,13.8,42.7c0,0.1,0.1,0.4,0.2,0.5c0.2,0.5,0.8,0.8,1.2,0.6
					c14.6-4.1,29.4-8,44.4-10.7c-14.1,5.7-28.7,10.2-43.3,14.5c-2.9,0.9-5.8-0.9-6.3-3.9C3325.1,919.7,3321.5,905.2,3319,890.4
					L3319,890.4z"/>
				<polygon fill="#C4C4C4" points="3333.6,937.9 3286.7,1022.7 3330.1,936.1 				"/>
			</g>
			<g>
				<path fill="#C4C4C4" d="M3061.9,962.9c15-0.8,30-0.5,44.9,0.1c0.2,0,0.5,0,0.6,0c0.5,0,0.9-0.5,0.8-1
					c0.6-15.2,1.5-30.4,3.6-45.5c1,14.9,0.8,30,0.4,44.9c0,0.1,0,0.8,0,0.9c-0.1,2.9-2.7,5-5.6,4.6
					C3091.7,966.1,3076.8,965.1,3061.9,962.9L3061.9,962.9z"/>
				<polygon fill="#C4C4C4" points="3111.6,963.7 3177.8,1034.6 3108.7,966.5 				"/>
			</g>
			<g>
				<path fill="#C4C4C4" d="M3051.4,1229.8c3.9-14.5,8.8-28.6,14-42.7c0-0.1,0.2-0.4,0.2-0.5c0.2-0.5-0.2-1.1-0.7-1.2
					c-14.3-5.3-28.5-10.8-42.2-17.5c14.8,3.7,29.2,8.6,43.6,13.7c2.9,0.9,4.1,4.1,2.8,6.8
					C3063.7,1202.5,3058.1,1216.4,3051.4,1229.8L3051.4,1229.8z"/>
				<polygon fill="#C4C4C4" points="3067.5,1182.8 3155.4,1141.8 3069.3,1186.4 				"/>
			</g>
			<g>
				<path fill="#C4C4C4" d="M3302,1322.3c-12.6-8.2-24.5-17.2-36.3-26.5c-0.1-0.1-0.3-0.3-0.4-0.3c-0.4-0.3-1.1-0.2-1.3,0.3
					c-9.4,11.9-19.1,23.7-29.7,34.7c8.1-12.9,17.2-25.1,26.5-37.2c1.8-2.4,5.2-2.6,7.4-0.6C3279.8,1302.2,3291.3,1311.8,3302,1322.3
					L3302,1322.3z"/>
				<polygon fill="#C4C4C4" points="3262.3,1292.4 3250.4,1196.2 3266.2,1291.9 				"/>
			</g>
			<g>
				<path fill="#C4C4C4" d="M3467.4,1112.5c-11.6,9.5-23.9,18-36.4,26.3c-0.1,0.1-0.4,0.2-0.5,0.3c-0.4,0.3-0.5,1-0.1,1.4
					c8.4,12.7,16.7,25.5,23.9,38.9c-9.7-11.7-18.6-24.2-27.2-36.7c-1.8-2.4-0.9-5.8,1.7-7.2
					C3441.4,1127.4,3454.1,1119.5,3467.4,1112.5L3467.4,1112.5z"/>
				<polygon fill="#C4C4C4" points="3426.7,1141.1 3331.6,1122.6 3427.4,1137.1 				"/>
			</g>
		</g>
		<circle fill="#C4C4C4" cx="3240.4" cy="1103.9" r="26.7"/>
		<g>
			<circle fill="#252525" cx="3266" cy="1058.4" r="17.7"/>
			<circle fill="#252525" cx="3205.1" cy="1065.5" r="17.7"/>
			<circle fill="#252525" cx="3193" cy="1125.6" r="17.7"/>
			<circle fill="#252525" cx="3246.3" cy="1155.6" r="17.7"/>
			<circle fill="#252525" cx="3291.5" cy="1114.2" r="17.7"/>
		</g>
		<g>
			<g>
				<path fill="#C4C4C4" d="M3319.1,890.8c-19.1-6.4-38.8-10.8-58.8-12.9l-4.3-0.4l-4.3-0.4C3274.8,877.5,3297.8,882.2,3319.1,890.8
					L3319.1,890.8z"/>
				<path fill="#C4C4C4" d="M3427.2,974.8c-13.1-17.8-28.3-34.1-45.3-48.3l-3.4-2.8l3.6,2.6C3399.8,939.8,3415.2,956.2,3427.2,974.8
					L3427.2,974.8z"/>
			</g>
			<g>
				<path fill="#C4C4C4" d="M3062.1,963.1c-12,16.2-22.3,33.6-30.5,51.9l-1.8,3.9l-1.7,4C3035.7,1001.2,3047.3,980.7,3062.1,963.1
					L3062.1,963.1z"/>
				<path fill="#C4C4C4" d="M3175.4,886.3c-21,7-41.2,16.4-60,28.1l-3.8,2.4l3.6-2.6C3133.5,901.6,3154,892,3175.4,886.3
					L3175.4,886.3z"/>
			</g>
			<g>
				<path fill="#C4C4C4" d="M3051.4,1229.9c11.7,16.4,25,31.6,40,45l3.2,2.9l3.3,2.8C3079.5,1266.7,3063.6,1249.4,3051.4,1229.9
					L3051.4,1229.9z"/>
				<path fill="#C4C4C4" d="M3013.3,1098.4c0.1,22.1,2.9,44.2,8.2,65.7l1.1,4.3l-1.3-4.2C3014.9,1142.9,3012.2,1120.5,3013.3,1098.4
					L3013.3,1098.4z"/>
			</g>
			<g>
				<path fill="#C4C4C4" d="M3301.8,1322.5c19.2-6,37.8-14.1,55.2-24.1l3.7-2.2l3.7-2.2C3345.6,1307.2,3324.2,1316.9,3301.8,1322.5
					L3301.8,1322.5z"/>
				<path fill="#C4C4C4" d="M3165,1318.1c21.1,6.7,43,11,65,12.5l4.4,0.3h-4.4C3207.9,1330.3,3185.7,1326,3165,1318.1L3165,1318.1z"
					/>
			</g>
			<g>
				<path fill="#C4C4C4" d="M3467.3,1113c0.2-20.1-1.7-40.3-5.9-59.9l-0.9-4.2l-1-4.2C3466.2,1066.6,3468.9,1090,3467.3,1113
					L3467.3,1113z"/>
				<path fill="#C4C4C4" d="M3420.8,1241.7c12.9-18,23.7-37.5,32-58l1.6-4.1l-1.4,4.2C3445.7,1204.7,3434.8,1224.5,3420.8,1241.7
					L3420.8,1241.7z"/>
			</g>
			<polygon fill="#C4C4C4" points="3288.6,1081 3330.4,1062.2 3289,1081.9 			"/>
			<polygon fill="#C4C4C4" points="3233.5,1051 3228.6,1005.3 3234.5,1050.8 			"/>
			<polygon fill="#C4C4C4" points="3187.9,1094 3143,1084.6 3188.1,1093 			"/>
			<polygon fill="#C4C4C4" points="3214.8,1150.7 3192,1190.5 3213.9,1150.2 			"/>
			<polygon fill="#C4C4C4" points="3277,1142.6 3307.8,1176.6 3276.2,1143.3 			"/>
		</g>
	</g>
</g>
</svg>
